G04 ================== begin FILE IDENTIFICATION RECORD ==================*
G04 Layout Name:  G:/Work/sh-z-004/design/pcb/io_4di_4do.brd*
G04 Film Name:    BOTTOM*
G04 File Format:  Gerber RS274X*
G04 File Origin:  Cadence Allegro 17.2-S007*
G04 Origin Date:  Mon Oct 15 21:01:38 2018*
G04 *
G04 Layer:  ETCH/BOTTOM*
G04 Layer:  PIN/BOTTOM*
G04 Layer:  VIA CLASS/BOTTOM*
G04 *
G04 Offset:    (0.000 0.000)*
G04 Mirror:    No*
G04 Mode:      Positive*
G04 Rotation:  0*
G04 FullContactRelief:  No*
G04 UndefLineWidth:     0.200*
G04 ================== end FILE IDENTIFICATION RECORD ====================*
%FSLAX25Y25*MOMM*%
%IR0*IPPOS*OFA0.00000B0.00000*MIA0B0*SFA1.00000B1.00000*%
%ADD23R,1.X.6*%
%ADD11C,1.*%
%ADD24C,2.*%
%ADD21R,.8X1.4*%
%ADD19C,1.3*%
%ADD14C,2.2*%
%ADD10C,4.*%
%ADD16C,3.2*%
%ADD13R,.9X1.5*%
%ADD18R,1.5X.9*%
%ADD17C,1.6*%
%ADD25R,2.X2.*%
%ADD20R,1.3X1.3*%
%ADD15R,2.2X2.2*%
%ADD22R,1.6X1.6*%
%ADD12C,.6*%
%ADD26C,1.5*%
%ADD27C,.2*%
%ADD28C,.3*%
%ADD29C,.5*%
%ADD30C,.25*%
%ADD31C,.8*%
%ADD36C,2.01*%
%ADD33C,2.004*%
%ADD35C,1.404*%
%ADD37C,3.61*%
%ADD32C,2.404*%
%ADD34C,1.704*%
G75*
%LPD*%
G75*
G36*
G01X2700000Y5900200D02*
X2620000D01*
G03X2599800Y5880000I0J-20200D01*
G01Y5772400D01*
G02X2565700Y5758300I-19979J33D01*
G01X2540200Y5783700D01*
Y5880000D01*
G03X2530200Y5897500I-20312J0D01*
G01X2525200Y5900400D01*
Y5949600D01*
X2530200Y5952500D01*
G03X2540200Y5970000I-10312J17500D01*
G01Y6066300D01*
X2565700Y6091700D01*
G02X2599800Y6077600I14121J-14133D01*
G01Y5970000D01*
G03X2620000Y5949800I20200J0D01*
G01X2700000D01*
G03X2720200Y5970000I0J20200D01*
G01Y5996400D01*
G02X2748700Y6014500I19984J21D01*
G03X2736800Y6097700I21278J45494D01*
G01X2734000Y6095200D01*
X2720200D01*
Y6110000D01*
G03X2700000Y6130200I-20200J0D01*
G01X2652400D01*
G02X2638300Y6164300I33J19979D01*
G01X2698700Y6224800D01*
X2758300D01*
X2760200Y6224000D01*
G03X2815800Y6234800I19905J46044D01*
G01X2885400D01*
X3054800Y6065400D01*
Y6005000D01*
G03X3075000Y5984800I20200J0D01*
G01X3225000D01*
G03X3245200Y6005000I0J20200D01*
G01Y6095000D01*
G03X3225000Y6115200I-20200J0D01*
G01X3104600D01*
X2914600Y6305200D01*
X2825200D01*
Y6618200D01*
X2826000Y6620100D01*
G03Y6659900I-46000J19900D01*
G01X2825200Y6661800D01*
Y7301300D01*
X2959400Y7435500D01*
X3145100Y7249800D01*
X4244900D01*
X4414900Y7419800D01*
X4964800D01*
Y7335800D01*
G03X5035200I35200J-35800D01*
G01Y7419800D01*
X5305100D01*
X6001800Y6723000D01*
X6002500Y6720500D01*
G03X6139000Y6753000I67500J19399D01*
G01X6138000Y6758200D01*
X6335200Y6955400D01*
Y7484600D01*
X6265400Y7554400D01*
X6267700Y7560400D01*
G03X6209600Y7502300I-93700J35600D01*
G01X6215600Y7504600D01*
X6264800Y7455400D01*
Y7439100D01*
G02X6233000Y7423000I-19994J36D01*
G03Y7261000I-59000J-81000D01*
G02X6264800Y7244900I11806J-16136D01*
G01Y6984600D01*
X6087700Y6807400D01*
X5354900Y7540200D01*
X4365100D01*
X4195100Y7370200D01*
X3929400D01*
G02X3915400Y7404400I73J19995D01*
G03X3930100Y7442700I-35418J35565D01*
G01X3929900Y7447200D01*
X4302500Y7819800D01*
X5819800D01*
Y7770000D01*
G03X5840000Y7749800I20200J0D01*
G01X6000000D01*
G03X6020200Y7770000I0J20200D01*
G01Y7930000D01*
G03X6000000Y7950200I-20200J0D01*
G01X5840000D01*
G03X5819800Y7930000I0J-20200D01*
G01Y7880200D01*
X4277500D01*
X3887200Y7489900D01*
X3882700Y7490100D01*
G03X3844600Y7404400I-2697J-50120D01*
G02X3830600Y7370200I-14073J-14205D01*
G01X3194900D01*
X2675300Y7889800D01*
X2685400Y7899900D01*
X2689600Y7899800D01*
X2850000D01*
G03X2870200Y7920000I0J20200D01*
G01Y8080000D01*
G03X2850000Y8100200I-20200J0D01*
G01X2690000D01*
G03X2669800Y8080000I0J-20200D01*
G01Y7919600D01*
X2669900Y7915400D01*
X2659800Y7905300D01*
X2504900Y8060200D01*
X2122300D01*
X2122200Y8060300D01*
Y8277900D01*
X2120200Y8279900D01*
Y8301400D01*
X2121900Y8303900D01*
G03X2125200Y8315000I-17018J11100D01*
G01Y8465000D01*
G03X2105000Y8485200I-20200J0D01*
G01X2015000D01*
G03X1994800Y8465000I0J-20200D01*
G01Y8315000D01*
G03X1998100Y8303900I20318J0D01*
G01X1999800Y8301400D01*
Y8230100D01*
X2001800Y8228100D01*
Y8060300D01*
G03X1976900Y8003700I60217J-60268D01*
G01X1976700Y7999800D01*
X319800Y6342900D01*
Y5628600D01*
X318100Y5626100D01*
G03X314800Y5615000I17018J-11100D01*
G01Y5465000D01*
G03X318100Y5453900I20318J0D01*
G01X319800Y5451400D01*
Y5128400D01*
X228000Y5036700D01*
X225500Y5036000D01*
G03X177500Y4988000I19500J-67500D01*
G01X176800Y4985500D01*
X84200Y4892900D01*
G02X50100Y4907000I-14118J14140D01*
G01Y9149900D01*
X8649900D01*
Y4630000D01*
X6490000D01*
X5950000Y4090000D01*
Y50100D01*
X50100D01*
Y1466500D01*
G02X84200Y1480600I19982J-40D01*
G01X225100Y1339800D01*
X2570000D01*
G03X2629800Y1392800I0J60236D01*
G01X2630200Y1396300D01*
X3448700Y2214800D01*
X3495000D01*
G03X3515200Y2235000I0J20200D01*
G01Y2385000D01*
G03X3501800Y2404000I-20170J0D01*
G01X3495200Y2406400D01*
Y2483600D01*
X3501800Y2486000D01*
G03X3515200Y2505000I-6770J19000D01*
G01Y2655000D01*
G03X3509800Y2668700I-20079J0D01*
G02X3510400Y2696400I14707J13538D01*
G01X3526400Y2712500D01*
X3528400Y2713300D01*
G03X3463300Y2778400I-18400J46700D01*
G01X3462500Y2776400D01*
X3404800Y2718700D01*
Y2676400D01*
X3398200Y2674000D01*
G03X3384800Y2655000I6770J-19000D01*
G01Y2505000D01*
G03X3398200Y2486000I20170J0D01*
G01X3404800Y2483600D01*
Y2406400D01*
X3398200Y2404000D01*
G03X3384800Y2385000I6770J-19000D01*
G01Y2278700D01*
X3359300Y2253300D01*
G02X3325200Y2267400I-14121J14133D01*
G01Y2385000D01*
G03X3305000Y2405200I-20200J0D01*
G01X3215000D01*
G03X3194800Y2385000I0J-20200D01*
G01Y2235000D01*
G03X3215000Y2214800I20200J0D01*
G01X3272600D01*
G02X3286700Y2180700I-33J-19979D01*
G01X2566300Y1460200D01*
X274900D01*
X150200Y1584900D01*
Y1648300D01*
X201300D01*
G03X324000Y1706500I53712J45202D01*
G01X323000Y1711700D01*
X868100Y2256800D01*
X984800D01*
Y2245000D01*
G03X1005000Y2224800I20200J0D01*
G01X1155000D01*
G03X1175200Y2245000I0J20200D01*
G01Y2256800D01*
X1319300D01*
G03X1440700I60700J35200D01*
G01X1520600D01*
X1615800Y2352000D01*
X1621000Y2351000D01*
G03X1694500Y2455600I12998J68990D01*
G02X1711700Y2485800I17200J10202D01*
G01X1839100D01*
X1884800Y2440100D01*
Y2325000D01*
G03X1897500Y2291600I50270J0D01*
G02Y2278400I-7511J-6600D01*
G03X1884800Y2245000I37570J-33400D01*
G01Y2226200D01*
X1714100D01*
G03Y2105800I-80100J-60200D01*
G01X1884800D01*
Y2095000D01*
G03X1935000Y2044800I50200J0D01*
G01X2025000D01*
G03X2075200Y2095000I0J50200D01*
G01Y2245000D01*
G03X2062500Y2278400I-50270J0D01*
G02Y2291600I7511J6600D01*
G03X2075200Y2325000I-37570J33400D01*
G01Y2475000D01*
G03X2062500Y2508400I-50270J0D01*
G02Y2521600I7511J6600D01*
G03X2075200Y2555000I-37570J33400D01*
G01Y2705000D01*
G03X2062500Y2738400I-50270J0D01*
G02Y2751600I7511J6600D01*
G03X2075200Y2785000I-37570J33400D01*
G01Y2935000D01*
G03X2025000Y2985200I-50200J0D01*
G01X1935000D01*
G03X1884800Y2935000I0J-50200D01*
G01Y2920200D01*
X1415100D01*
X1394200Y2899300D01*
X1389500Y2899800D01*
G03X1479800Y2790700I-9493J-99777D01*
G01X1480600Y2799800D01*
X1884800D01*
Y2785000D01*
G03X1897500Y2751600I50270J0D01*
G02Y2738400I-7511J-6600D01*
G03X1894200Y2734200I37765J-33069D01*
G01X1714100D01*
G03X1542100Y2634100I-80086J-60212D01*
G02X1523700Y2606200I-18375J-7899D01*
G01X1460100D01*
G03Y2485800I-80100J-60200D01*
G01X1556300D01*
G02X1573500Y2455600I0J-19998D01*
G03X1565000Y2407000I60494J-35624D01*
G01X1566000Y2401800D01*
X1491400Y2327200D01*
X1440700D01*
G03X1319300I-60700J-35200D01*
G01X1175800D01*
X1175100Y2336500D01*
G03X1155000Y2355200I-20100J-1452D01*
G01X1005000D01*
G03X984900Y2336500I0J-20152D01*
G01X984200Y2327200D01*
X838900D01*
X273200Y1761500D01*
X268000Y1762500D01*
G03X201300Y1738700I-12979J-68991D01*
G01X150200D01*
Y2973300D01*
X201300D01*
G03Y3063700I53700J45200D01*
G01X150200D01*
Y3284800D01*
X1418700D01*
X1908700Y3774800D01*
X1959800D01*
Y3750000D01*
G03X1980000Y3729800I20200J0D01*
G01X2060000D01*
G03X2080200Y3750000I0J20200D01*
G01Y3867500D01*
X2122500Y3909800D01*
X2141400D01*
Y3898100D01*
X2140800Y3896200D01*
X2140500Y3895200D01*
G03X2139800Y3890000I19491J-5271D01*
G01Y3750000D01*
G03X2149800Y3732500I20312J0D01*
G01X2154800Y3729600D01*
Y3686400D01*
X2148200Y3684000D01*
G03X2134800Y3665000I6770J-19000D01*
G01Y3515000D01*
G03X2155000Y3494800I20200J0D01*
G01X2245000D01*
G03X2265200Y3515000I0J20200D01*
G01Y3531400D01*
G02X2282000Y3538700I9998J-29D01*
G03Y3641300I48000J51300D01*
G02X2265200Y3648600I-6802J7329D01*
G01Y3665000D01*
G03X2251800Y3684000I-20170J0D01*
G01X2245200Y3686400D01*
Y3729600D01*
X2250200Y3732500D01*
G03X2260200Y3750000I-10312J17500D01*
G01Y3890000D01*
G03X2259500Y3895200I-20191J-71D01*
G01X2259200Y3896200D01*
X2258600Y3898100D01*
Y3909800D01*
X2584800D01*
Y3885000D01*
G03X2605000Y3864800I20200J0D01*
G01X2695000D01*
G03X2715200Y3885000I0J20200D01*
G01Y4035000D01*
G03X2695000Y4055200I-20200J0D01*
G01X2605000D01*
G03X2584800Y4035000I0J-20200D01*
G01Y3970200D01*
X2234800D01*
Y3982000D01*
X2234900Y3982900D01*
G03X2235200Y3985000I-19689J3884D01*
G01Y4029800D01*
X2312500D01*
X2367500Y4084800D01*
X2495000D01*
G03X2515200Y4105000I0J20200D01*
G01Y4195000D01*
G03X2495000Y4215200I-20200J0D01*
G01X2345000D01*
G03X2324800Y4195000I0J-20200D01*
G01Y4127500D01*
X2287500Y4090200D01*
X2235200D01*
Y4135000D01*
G03X2215000Y4155200I-20200J0D01*
G01X2200200D01*
Y4194800D01*
X2215000D01*
G03X2235200Y4215000I0J20200D01*
G01Y4365000D01*
G03X2215000Y4385200I-20200J0D01*
G01X2125000D01*
G03X2104800Y4365000I0J-20200D01*
G01Y4215000D01*
G03X2125000Y4194800I20200J0D01*
G01X2139800D01*
Y4155200D01*
X2125000D01*
G03X2104800Y4135000I0J-20200D01*
G01Y3985000D01*
G03X2104900Y3982900I20204J-90D01*
G01X2105400Y3978100D01*
X2090500Y3963200D01*
X2085100Y3957700D01*
X2071800Y3965200D01*
X2073700Y3972700D01*
G03X2075200Y3985000I-48714J12182D01*
G01Y4135000D01*
G03X2062500Y4168400I-50270J0D01*
G02Y4181600I7511J6600D01*
G03X2075200Y4215000I-37570J33400D01*
G01Y4365000D01*
G03X2062500Y4398400I-50270J0D01*
G02Y4411600I7511J6600D01*
G03X2075200Y4445000I-37570J33400D01*
G01Y4595000D01*
G03X2062500Y4628400I-50270J0D01*
G02Y4641600I7511J6600D01*
G03X2075200Y4675000I-37570J33400D01*
G01Y4825000D01*
G03X2025000Y4875200I-50200J0D01*
G01X1935000D01*
G03X1884800Y4825000I0J-50200D01*
G01Y4810200D01*
X1450100D01*
G03Y4689800I-80100J-60200D01*
G01X1512900D01*
G02X1531400Y4662200I-10J-20007D01*
G03X1532100Y4584100I92608J-38223D01*
G02X1513700Y4556200I-18375J-7899D01*
G01X1450100D01*
G03Y4435800I-80100J-60200D01*
G01X1546300D01*
G02X1563500Y4405600I0J-19998D01*
G03X1555000Y4357000I60494J-35624D01*
G01X1556000Y4351800D01*
X1481400Y4277200D01*
X1430700D01*
G03X1309300I-60700J-35200D01*
G01X1195800D01*
X1195100Y4286500D01*
G03X1175000Y4305200I-20100J-1452D01*
G01X1025000D01*
G03X1004900Y4286500I0J-20152D01*
G01X1004200Y4277200D01*
X828900D01*
X263200Y3711500D01*
X258000Y3712500D01*
G03X208900Y3703700I-12973J-68994D01*
G01X150200D01*
Y4788600D01*
X262000Y4900300D01*
X264500Y4901000D01*
G03X312500Y4949000I-19500J67500D01*
G01X313200Y4951500D01*
X440200Y5078600D01*
Y5451400D01*
X441900Y5453900D01*
G03X445200Y5465000I-17018J11100D01*
G01Y5615000D01*
G03X441900Y5626100I-20318J0D01*
G01X440200Y5628600D01*
Y6293100D01*
X2061800Y7914700D01*
X2065700Y7914900D01*
G03X2122300Y7939800I-3668J85117D01*
G01X2455100D01*
X2895500Y7499400D01*
X2734800Y7338700D01*
Y6661800D01*
X2734000Y6659900D01*
G03Y6620100I46000J-19900D01*
G01X2734800Y6618200D01*
Y6315200D01*
X2661300D01*
X2476300Y6130200D01*
X2440000D01*
G03X2419800Y6110000I0J-20200D01*
G01Y5970000D01*
G03X2429800Y5952500I20312J0D01*
G01X2434800Y5949600D01*
Y5900400D01*
X2429800Y5897500D01*
G03X2419800Y5880000I10312J-17500D01*
G01Y5740000D01*
G03X2440000Y5719800I20200J0D01*
G01X2476300D01*
X3494800Y4701300D01*
Y4361700D01*
X3494000Y4359800D01*
G03X3499000Y4311000I46034J-19940D01*
G02X3490900Y4295200I-8143J-5802D01*
G01X3485000D01*
G03X3464800Y4275000I0J-20200D01*
G01Y4185000D01*
G03X3485000Y4164800I20200J0D01*
G01X3635000D01*
G03X3655200Y4184900I0J20200D01*
G01X3655300Y4194800D01*
X3905400D01*
X4125800Y3974500D01*
X4114800Y3963500D01*
X4109400Y3964700D01*
G03X4105000Y3965200I-4466J-19692D01*
G01X4015000D01*
G03X3994800Y3945000I0J-20200D01*
G01Y3938600D01*
G02X3970600Y3919100I-19986J37D01*
G03Y3820900I-10600J-49100D01*
G02X3994800Y3801400I4214J-19537D01*
G01Y3795000D01*
G03X3995400Y3790100I20308J0D01*
G02X3976000Y3765200I-19385J-4904D01*
G01X3508700D01*
X3255200Y4018700D01*
Y4228200D01*
X3256000Y4230100D01*
G03X3164000I-46000J19900D01*
G01X3164800Y4228200D01*
Y3981300D01*
X3471300Y3674800D01*
X3994800D01*
Y3525000D01*
G03X4015000Y3504800I20200J0D01*
G01X4105000D01*
G03X4125200Y3525000I0J20200D01*
G01Y3675000D01*
G03X4113400Y3693400I-20246J0D01*
G02X4108000Y3705400I4165J9089D01*
G03X4093500Y3757400I-48013J14633D01*
G01X4090200Y3760300D01*
Y3774800D01*
X4105000D01*
G03X4125200Y3795000I0J20200D01*
G01Y3945000D01*
G03X4124700Y3949400I-20192J-66D01*
G01X4123500Y3954800D01*
X4134500Y3965800D01*
X4184800Y3915400D01*
Y3795000D01*
G03X4205000Y3774800I20200J0D01*
G01X4295000D01*
G03X4315200Y3795000I0J20200D01*
G01Y3945000D01*
G03X4295000Y3965200I-20200J0D01*
G01X4234600D01*
X3934600Y4265200D01*
X3655300D01*
X3655200Y4275100D01*
G03X3635000Y4295200I-20200J-100D01*
G01X3605700D01*
G02X3587000Y4322300I-18J19989D01*
G03X3586000Y4359700I-47018J17456D01*
G01X3585200Y4361600D01*
Y4738700D01*
X3128900Y5195000D01*
X3426400Y5492500D01*
X3428400Y5493300D01*
G03X3445800Y5504800I-18375J46716D01*
G01X3576000D01*
G02X3591400Y5472000I-4J-20017D01*
G03X3591500Y5407800I38615J-32040D01*
G02Y5382200I-15376J-12800D01*
G03Y5317800I38500J-32200D01*
G02Y5292200I-15376J-12800D01*
G03Y5227800I38500J-32200D01*
G02Y5202200I-15376J-12800D01*
G03X3632700Y5119900I38509J-32184D01*
G01X3637200Y5120100D01*
X4479800Y4277500D01*
Y1105200D01*
X4465000D01*
G03X4444800Y1085000I0J-20200D01*
G01Y935000D01*
G03X4465000Y914800I20200J0D01*
G01X4555000D01*
G03X4575200Y935000I0J20200D01*
G01Y1085000D01*
G03X4555000Y1105200I-20200J0D01*
G01X4540200D01*
Y1708800D01*
G02X4574300Y1723000I19999J18D01*
G01X4654800Y1642500D01*
Y1575000D01*
G03X4675000Y1554800I20200J0D01*
G01X4825000D01*
G03X4845200Y1575000I0J20200D01*
G01Y1665000D01*
G03X4825000Y1685200I-20200J0D01*
G01X4697500D01*
X4590200Y1792500D01*
Y2658800D01*
G02X4624300Y2673000I19999J18D01*
G01X4654800Y2642500D01*
Y2575000D01*
G03X4675000Y2554800I20200J0D01*
G01X4825000D01*
G03X4845200Y2575000I0J20200D01*
G01Y2665000D01*
G03X4825000Y2685200I-20200J0D01*
G01X4697500D01*
X4640200Y2742500D01*
Y3357700D01*
G02X4667600Y3376200I19995J-74D01*
G03X4675000Y3374800I7400J18857D01*
G01X4825000D01*
G03X4845200Y3395000I0J20200D01*
G01Y3409800D01*
X4928600D01*
X4931000Y3403200D01*
G03X4950000Y3389800I19000J6770D01*
G01X4969800D01*
Y3275200D01*
X4955000D01*
G03X4934800Y3255000I0J-20200D01*
G01Y3105000D01*
G03X4955000Y3084800I20200J0D01*
G01X4969800D01*
Y3025200D01*
X4955000D01*
G03X4934800Y3005000I0J-20200D01*
G01Y2855000D01*
G03X4955000Y2834800I20200J0D01*
G01X5045000D01*
G03X5065200Y2855000I0J20200D01*
G01Y3005000D01*
G03X5045000Y3025200I-20200J0D01*
G01X5030200D01*
Y3084800D01*
X5045000D01*
G03X5065200Y3105000I0J20200D01*
G01Y3255000D01*
G03X5045000Y3275200I-20200J0D01*
G01X5030200D01*
Y3389800D01*
X5050000D01*
G03X5070200Y3410000I0J20200D01*
G01Y3470000D01*
G03X5050000Y3490200I-20200J0D01*
G01X4950000D01*
G03X4931000Y3476800I0J-20170D01*
G01X4928600Y3470200D01*
X4845200D01*
Y3485000D01*
G03X4825000Y3505200I-20200J0D01*
G01X4675000D01*
G03X4667600Y3503800I0J-20257D01*
G02X4640200Y3522300I-7405J18574D01*
G01Y3547700D01*
G02X4667600Y3566200I19995J-74D01*
G03X4675000Y3564800I7400J18857D01*
G01X4825000D01*
G03X4845200Y3585000I0J20200D01*
G01Y3675000D01*
G03X4825000Y3695200I-20200J0D01*
G01X4780200D01*
Y4332500D01*
X3679900Y5432800D01*
X3680100Y5437300D01*
G03X3656800Y5482500I-50131J2764D01*
G01X3650900Y5486200D01*
X3654900Y5504800D01*
X3675400D01*
X3885400Y5294800D01*
X4784200D01*
G03Y5365200I35800J35200D01*
G01X3914600D01*
X3704600Y5575200D01*
X3690000D01*
G02X3672600Y5605000I5J19983D01*
G03X3675200Y5615000I-17621J9919D01*
G01Y5765000D01*
G03X3655000Y5785200I-20200J0D01*
G01X3565000D01*
G03X3544800Y5765000I0J-20200D01*
G01Y5615000D01*
G03X3547400Y5605000I20221J-81D01*
G02X3530000Y5575200I-17405J-9817D01*
G01X3500000D01*
G02X3482600Y5605000I5J19983D01*
G03X3485200Y5615000I-17621J9919D01*
G01Y5765000D01*
G03X3465000Y5785200I-20200J0D01*
G01X3375000D01*
G03X3354800Y5765000I0J-20200D01*
G01Y5615000D01*
G03X3364000Y5598000I20307J0D01*
G02X3369400Y5569500I-10810J-16810D01*
G03X3363300Y5558400I40587J-29531D01*
G01X3362500Y5556400D01*
X3065000Y5258900D01*
X2638300Y5685700D01*
G02X2652400Y5719800I14133J14121D01*
G01X2700000D01*
G03X2720200Y5740000I0J20200D01*
G01Y5746400D01*
G02X2748700Y5764500I19996J3D01*
G03Y5855500I21300J45500D01*
G02X2720200Y5873600I-8504J18097D01*
G01Y5880000D01*
G03X2700000Y5900200I-20200J0D01*
G37*
G36*
G01X150200Y3375200D02*
Y3583300D01*
X208900D01*
G03X314000Y3656500I36111J60203D01*
G01X313000Y3661700D01*
X858100Y4206800D01*
X1004800D01*
Y4195000D01*
G03X1025000Y4174800I20200J0D01*
G01X1175000D01*
G03X1195200Y4195000I0J20200D01*
G01Y4206800D01*
X1309300D01*
G03X1430700I60700J35200D01*
G01X1510600D01*
X1605800Y4302000D01*
X1611000Y4301000D01*
G03X1674600Y4321400I12944J68987D01*
G02X1703200Y4321700I14447J-13858D01*
G01X1795100Y4229800D01*
X1884800D01*
Y4215000D01*
G03X1897500Y4181600I50270J0D01*
G02Y4168400I-7487J-6600D01*
G03X1884800Y4135000I37570J-33400D01*
G01Y4119600D01*
X1724500D01*
X1723400Y4128400D01*
G03X1633500Y4016200I-99431J-12447D01*
G01X1638200Y4016700D01*
X1655700Y3999200D01*
X1884800D01*
Y3985000D01*
G03X1935000Y3934800I50200J0D01*
G01X2025000D01*
G03X2037300Y3936300I118J50214D01*
G01X2042900Y3937700D01*
X2053900Y3926600D01*
X2037500Y3910200D01*
X1980000D01*
G03X1959800Y3890000I0J-20200D01*
G01Y3865200D01*
X1871300D01*
X1381300Y3375200D01*
X150200D01*
G37*
%LPC*%
G75*
G36*
G01X7943500Y5387300D02*
X7949800Y5390200D01*
G02X7893800Y5337400I50126J-109261D01*
G01X7696400Y5534800D01*
X7670300D01*
X7667500Y5529800D01*
G02X7650000Y5519800I-17500J10312D01*
G01X7550000D01*
G02X7531000Y5533200I0J20170D01*
G01X7528600Y5539800D01*
X6697500D01*
X6352500Y5884800D01*
X6285000D01*
G02X6264800Y5905000I0J20200D01*
G01Y6055000D01*
G02X6285000Y6075200I20200J0D01*
G01X6375000D01*
G02X6395200Y6055000I0J-20200D01*
G01Y5927500D01*
X6722500Y5600200D01*
X7272600D01*
G03X7291200Y5627600I26J19996D01*
G02X7289800Y5635000I18857J7400D01*
G01Y5695000D01*
G02X7291200Y5702400I20257J0D01*
G03X7272600Y5729800I-18574J7404D01*
G01X7197500D01*
X6857500Y6069800D01*
X6584800D01*
Y6059000D01*
X6584900Y6058200D01*
G02X6585200Y6055000I-19874J-3477D01*
G01Y6015200D01*
X6624200D01*
G02Y5944800I35800J-35200D01*
G01X6585200D01*
Y5905000D01*
G02X6565000Y5884800I-20200J0D01*
G01X6475000D01*
G02X6454800Y5905000I0J20200D01*
G01Y6055000D01*
G02X6455100Y6058200I20174J-277D01*
G01X6455200Y6059000D01*
Y6069800D01*
X6417500D01*
X6352500Y6134800D01*
X6285000D01*
G02X6264800Y6155000I0J20200D01*
G01Y6305000D01*
G02X6285000Y6325200I20200J0D01*
G01X6375000D01*
G02X6395200Y6305000I0J-20200D01*
G01Y6177500D01*
X6442500Y6130200D01*
X6458700D01*
Y6142800D01*
X6457400Y6145100D01*
G02X6454800Y6155000I17548J9900D01*
G01Y6305000D01*
G02X6475000Y6325200I20200J0D01*
G01X6565000D01*
G02X6585200Y6305000I0J-20200D01*
G01Y6266200D01*
X6624200D01*
G02Y6195800I35800J-35200D01*
G01X6585200D01*
Y6155000D01*
G02X6585100Y6152600I-20215J-360D01*
G03X6604900Y6130200I19836J-2417D01*
G01X6882500D01*
X7222500Y5790200D01*
X7528600D01*
X7531000Y5796800D01*
G02X7550000Y5810200I19000J-6770D01*
G01X7650000D01*
G02X7667500Y5800200I0J-20312D01*
G01X7670300Y5795200D01*
X7702400D01*
X7893800Y5986600D01*
G02X7949800Y5933800I106126J56461D01*
G01X7943500Y5936700D01*
X7751100Y5744300D01*
G03X7765300Y5710200I14166J-14108D01*
G01X7870700D01*
X7873700Y5707200D01*
X7888600D01*
G02Y5616800I111400J-45200D01*
G01X7836300D01*
X7833300Y5619800D01*
X7759300D01*
G03X7745100Y5585700I-34J-19992D01*
G01X7943500Y5387300D01*
G37*
G36*
G01X6375000Y6394800D02*
X6285000D01*
G02X6264800Y6415000I0J20200D01*
G01Y6565000D01*
G02X6285000Y6585200I20200J0D01*
G01X6352500D01*
X6407500Y6640200D01*
X6435100D01*
G03X6454900Y6662600I-36J19983D01*
G02X6454800Y6665000I20115J2040D01*
G01Y6815000D01*
G02X6475000Y6835200I20200J0D01*
G01X6565000D01*
G02X6585200Y6815000I0J-20200D01*
G01Y6774200D01*
X6623200D01*
G02X6709200Y6739800I35800J-35200D01*
G03X6743300Y6726000I19993J373D01*
G01X7137500Y7120200D01*
X7272600D01*
G03X7291200Y7147600I26J19996D01*
G02X7289800Y7155000I18857J7400D01*
G01Y7215000D01*
G02X7291200Y7222400I20257J0D01*
G03X7272600Y7249800I-18574J7404D01*
G01X6852500D01*
X6395200Y6792500D01*
Y6665000D01*
G02X6375000Y6644800I-20200J0D01*
G01X6285000D01*
G02X6264800Y6665000I0J20200D01*
G01Y6815000D01*
G02X6285000Y6835200I20200J0D01*
G01X6352500D01*
X6827500Y7310200D01*
X7528600D01*
X7531000Y7316800D01*
G02X7550000Y7330200I19000J-6770D01*
G01X7650000D01*
G02X7667500Y7320200I0J-20312D01*
G01X7670300Y7315200D01*
X7698400D01*
X7893700Y7510500D01*
X7890800Y7516800D01*
G02X7949800Y7457800I109200J50200D01*
G01X7943500Y7460700D01*
X7747100Y7264300D01*
G03X7761300Y7230200I14166J-14108D01*
G01X7835300D01*
X7836300Y7231200D01*
X7888600D01*
G02Y7140800I111400J-45200D01*
G01X7873700D01*
X7872700Y7139800D01*
X7763300D01*
G03X7749100Y7105700I-34J-19992D01*
G01X7943500Y6911300D01*
X7949800Y6914200D01*
G02X7890800Y6855200I50200J-109200D01*
G01X7893700Y6861500D01*
X7700400Y7054800D01*
X7670300D01*
X7667500Y7049800D01*
G02X7650000Y7039800I-17500J10312D01*
G01X7550000D01*
G02X7531000Y7053200I0J20170D01*
G01X7528600Y7059800D01*
X7162500D01*
X6682500Y6579800D01*
X6584800D01*
Y6569000D01*
X6584900Y6568200D01*
G02X6585200Y6565000I-19874J-3477D01*
G01Y6525200D01*
X6624200D01*
G02Y6454800I35800J-35200D01*
G01X6585200D01*
Y6415000D01*
G02X6565000Y6394800I-20200J0D01*
G01X6475000D01*
G02X6454800Y6415000I0J20200D01*
G01Y6565000D01*
G02X6455100Y6568200I20174J-277D01*
G01X6455200Y6569000D01*
Y6579800D01*
X6432500D01*
X6395200Y6542500D01*
Y6415000D01*
G02X6375000Y6394800I-20200J0D01*
G37*
G36*
G01X4765200Y365000D02*
G02X4745000Y344800I-20200J0D01*
G01X4655000D01*
G02X4634800Y365000I0J20200D01*
G01Y515000D01*
G02X4655000Y535200I20200J0D01*
G01X4669800D01*
Y644800D01*
X4655000D01*
G02X4634800Y665000I0J20200D01*
G01Y815000D01*
G02X4655000Y835200I20200J0D01*
G01X4669800D01*
Y914800D01*
X4655000D01*
G02X4634800Y935000I0J20200D01*
G01Y1085000D01*
G02X4655000Y1105200I20200J0D01*
G01X4745000D01*
G02X4765200Y1085000I0J-20200D01*
G01Y935000D01*
G02X4745000Y914800I-20200J0D01*
G01X4730200D01*
Y835200D01*
X4745000D01*
G02X4765200Y815000I0J-20200D01*
G01Y665000D01*
G02X4745000Y644800I-20200J0D01*
G01X4730200D01*
Y535200D01*
X4745000D01*
G02X4765200Y515000I0J-20200D01*
G01Y470200D01*
X4928600D01*
X4931000Y476800D01*
G02X4950000Y490200I19000J-6770D01*
G01X5050000D01*
G02X5070200Y470000I0J-20200D01*
G01Y410000D01*
G02X5050000Y389800I-20200J0D01*
G01X4950000D01*
G02X4931000Y403200I0J20170D01*
G01X4928600Y409800D01*
X4765200D01*
Y365000D01*
G37*
G36*
G01X5311400Y565200D02*
X5384900D01*
X5387300Y571700D01*
G02X5384300Y497500I112709J-41718D01*
G01X5382200Y504800D01*
X5311400D01*
X5309000Y498200D01*
G02X5290000Y484800I-19000J6770D01*
G01X5190000D01*
G02X5169800Y505000I0J20200D01*
G01Y565000D01*
G02X5190000Y585200I20200J0D01*
G01X5290000D01*
G02X5309000Y571800I0J-20170D01*
G01X5311400Y565200D01*
G37*
G36*
G01X5065200Y845000D02*
G02X5045000Y824800I-20200J0D01*
G01X4955000D01*
G02X4934800Y845000I0J20200D01*
G01Y995000D01*
G02X4955000Y1015200I20200J0D01*
G01X4969800D01*
Y1084800D01*
X4955000D01*
G02X4934800Y1105000I0J20200D01*
G01Y1255000D01*
G02X4955000Y1275200I20200J0D01*
G01X4969800D01*
Y1379800D01*
X4950000D01*
G02X4931000Y1393200I0J20170D01*
G01X4928600Y1399800D01*
X4845200D01*
Y1385000D01*
G02X4825000Y1364800I-20200J0D01*
G01X4675000D01*
G02X4654800Y1385000I0J20200D01*
G01Y1475000D01*
G02X4675000Y1495200I20200J0D01*
G01X4825000D01*
G02X4845200Y1475000I0J-20200D01*
G01Y1460200D01*
X4928600D01*
X4931000Y1466800D01*
G02X4950000Y1480200I19000J-6770D01*
G01X5050000D01*
G02X5070200Y1460000I0J-20200D01*
G01Y1400000D01*
G02X5050000Y1379800I-20200J0D01*
G01X5030200D01*
Y1275200D01*
X5045000D01*
G02X5065200Y1255000I0J-20200D01*
G01Y1105000D01*
G02X5045000Y1084800I-20200J0D01*
G01X5030200D01*
Y1015200D01*
X5045000D01*
G02X5065200Y995000I0J-20200D01*
G01Y845000D01*
G37*
G36*
G01X5311400Y1555200D02*
X5382200D01*
X5384300Y1562500D01*
G02X5387300Y1488300I115709J-32482D01*
G01X5384900Y1494800D01*
X5311400D01*
X5309000Y1488200D01*
G02X5290000Y1474800I-19000J6770D01*
G01X5190000D01*
G02X5169800Y1495000I0J20200D01*
G01Y1555000D01*
G02X5190000Y1575200I20200J0D01*
G01X5290000D01*
G02X5309000Y1561800I0J-20170D01*
G01X5311400Y1555200D01*
G37*
G36*
G01X5065200Y1845000D02*
G02X5045000Y1824800I-20200J0D01*
G01X4955000D01*
G02X4934800Y1845000I0J20200D01*
G01Y1995000D01*
G02X4955000Y2015200I20200J0D01*
G01X4969800D01*
Y2084800D01*
X4955000D01*
G02X4934800Y2105000I0J20200D01*
G01Y2255000D01*
G02X4955000Y2275200I20200J0D01*
G01X4969800D01*
Y2379800D01*
X4950000D01*
G02X4931000Y2393200I0J20170D01*
G01X4928600Y2399800D01*
X4845200D01*
Y2385000D01*
G02X4825000Y2364800I-20200J0D01*
G01X4675000D01*
G02X4654800Y2385000I0J20200D01*
G01Y2475000D01*
G02X4675000Y2495200I20200J0D01*
G01X4825000D01*
G02X4845200Y2475000I0J-20200D01*
G01Y2460200D01*
X4928600D01*
X4931000Y2466800D01*
G02X4950000Y2480200I19000J-6770D01*
G01X5050000D01*
G02X5070200Y2460000I0J-20200D01*
G01Y2400000D01*
G02X5050000Y2379800I-20200J0D01*
G01X5030200D01*
Y2275200D01*
X5045000D01*
G02X5065200Y2255000I0J-20200D01*
G01Y2105000D01*
G02X5045000Y2084800I-20200J0D01*
G01X5030200D01*
Y2015200D01*
X5045000D01*
G02X5065200Y1995000I0J-20200D01*
G01Y1845000D01*
G37*
G36*
G01X2235200Y2095000D02*
G02X2215000Y2074800I-20200J0D01*
G01X2125000D01*
G02X2104800Y2095000I0J20200D01*
G01Y2245000D01*
G02X2125000Y2265200I20200J0D01*
G01X2139800D01*
Y2304800D01*
X2125000D01*
G02X2104800Y2325000I0J20200D01*
G01Y2475000D01*
G02X2125000Y2495200I20200J0D01*
G01X2215000D01*
G02X2235200Y2475000I0J-20200D01*
G01Y2325000D01*
G02X2215000Y2304800I-20200J0D01*
G01X2200200D01*
Y2265200D01*
X2215000D01*
G02X2235200Y2245000I0J-20200D01*
G01Y2200200D01*
X2324800D01*
Y2215000D01*
G02X2345000Y2235200I20200J0D01*
G01X2495000D01*
G02X2515200Y2215000I0J-20200D01*
G01Y2125000D01*
G02X2495000Y2104800I-20200J0D01*
G01X2345000D01*
G02X2324800Y2125000I0J20200D01*
G01Y2139800D01*
X2235200D01*
Y2095000D01*
G37*
G36*
G01X5311400Y2555200D02*
X5382200D01*
X5384300Y2562500D01*
G02X5387300Y2488300I115709J-32482D01*
G01X5384900Y2494800D01*
X5311400D01*
X5309000Y2488200D01*
G02X5290000Y2474800I-19000J6770D01*
G01X5190000D01*
G02X5169800Y2495000I0J20200D01*
G01Y2555000D01*
G02X5190000Y2575200I20200J0D01*
G01X5290000D01*
G02X5309000Y2561800I0J-20170D01*
G01X5311400Y2555200D01*
G37*
G36*
G01X2235200Y2555000D02*
G02X2215000Y2534800I-20200J0D01*
G01X2125000D01*
G02X2104800Y2555000I0J20200D01*
G01Y2705000D01*
G02X2125000Y2725200I20200J0D01*
G01X2139800D01*
Y2764800D01*
X2125000D01*
G02X2104800Y2785000I0J20200D01*
G01Y2935000D01*
G02X2125000Y2955200I20200J0D01*
G01X2215000D01*
G02X2235200Y2935000I0J-20200D01*
G01Y2890200D01*
X2324800D01*
Y2905000D01*
G02X2345000Y2925200I20200J0D01*
G01X2495000D01*
G02X2515200Y2905000I0J-20200D01*
G01Y2815000D01*
G02X2495000Y2794800I-20200J0D01*
G01X2345000D01*
G02X2324800Y2815000I0J20200D01*
G01Y2829800D01*
X2235200D01*
Y2785000D01*
G02X2215000Y2764800I-20200J0D01*
G01X2200200D01*
Y2725200D01*
X2215000D01*
G02X2235200Y2705000I0J-20200D01*
G01Y2555000D01*
G37*
G36*
G01X3785200Y2635000D02*
G02X3765000Y2614800I-20200J0D01*
G01X3615000D01*
G02X3594800Y2635000I0J20200D01*
G01Y2725000D01*
G02X3615000Y2745200I20200J0D01*
G01X3659800D01*
Y2759800D01*
X3656500Y2762700D01*
G02X3723500I33500J37400D01*
G01X3720200Y2759800D01*
Y2745200D01*
X3765000D01*
G02X3785200Y2725000I0J-20200D01*
G01Y2635000D01*
G37*
G36*
G01X2947700Y4007000D02*
G03X2974800Y4025700I7111J18682D01*
G01Y4466300D01*
G02X3065200I45200J53700D01*
G01Y3771300D01*
X2410100Y3116100D01*
X2410200Y3111800D01*
G02X2289100Y3061700I-70175J-1786D01*
G01X2286100Y3064800D01*
X2265200D01*
Y3035000D01*
G02X2245000Y3014800I-20200J0D01*
G01X2155000D01*
G02X2134800Y3035000I0J20200D01*
G01Y3185000D01*
G02X2155000Y3205200I20200J0D01*
G01X2245000D01*
G02X2265200Y3185000I0J-20200D01*
G01Y3155200D01*
X2286100D01*
X2289100Y3158300D01*
G02X2341800Y3180200I50962J-48276D01*
G01X2346100Y3180100D01*
X2974800Y3808700D01*
Y3894300D01*
G03X2947700Y3913000I-19989J18D01*
G02X2926600Y3909900I-17682J46996D01*
G03X2905200Y3890000I-1408J-19942D01*
G01Y3885000D01*
G02X2885000Y3864800I-20200J0D01*
G01X2795000D01*
G02X2774800Y3885000I0J20200D01*
G01Y4035000D01*
G02X2795000Y4055200I20200J0D01*
G01X2885000D01*
G02X2905200Y4035000I0J-20200D01*
G01Y4030000D01*
G03X2926600Y4010100I19992J42D01*
G02X2947700Y4007000I3418J-50096D01*
G37*
G36*
G01X5311400Y3565200D02*
X5384900D01*
X5387300Y3571700D01*
G02X5384300Y3497500I112709J-41718D01*
G01X5382200Y3504800D01*
X5311400D01*
X5309000Y3498200D01*
G02X5290000Y3484800I-19000J6770D01*
G01X5190000D01*
G02X5169800Y3505000I0J20200D01*
G01Y3565000D01*
G02X5190000Y3585200I20200J0D01*
G01X5290000D01*
G02X5309000Y3571800I0J-20170D01*
G01X5311400Y3565200D01*
G37*
G36*
G01X3585200Y3974800D02*
Y3945100D01*
G02X3524800I-30200J-40100D01*
G01Y3974800D01*
X3485000D01*
G02X3464800Y3995000I0J20200D01*
G01Y4085000D01*
G02X3485000Y4105200I20200J0D01*
G01X3635000D01*
G02X3655200Y4085000I0J-20200D01*
G01Y3995000D01*
G02X3635000Y3974800I-20200J0D01*
G01X3585200D01*
G37*
G36*
G01X2235200Y4445000D02*
G02X2215000Y4424800I-20200J0D01*
G01X2125000D01*
G02X2104800Y4445000I0J20200D01*
G01Y4595000D01*
G02X2125000Y4615200I20200J0D01*
G01X2139800D01*
Y4654800D01*
X2125000D01*
G02X2104800Y4675000I0J20200D01*
G01Y4825000D01*
G02X2125000Y4845200I20200J0D01*
G01X2215000D01*
G02X2235200Y4825000I0J-20200D01*
G01Y4780200D01*
X2324800D01*
Y4795000D01*
G02X2345000Y4815200I20200J0D01*
G01X2495000D01*
G02X2515200Y4795000I0J-20200D01*
G01Y4705000D01*
G02X2495000Y4684800I-20200J0D01*
G01X2345000D01*
G02X2324800Y4705000I0J20200D01*
G01Y4719800D01*
X2235200D01*
Y4675000D01*
G02X2215000Y4654800I-20200J0D01*
G01X2200200D01*
Y4615200D01*
X2215000D01*
G02X2235200Y4595000I0J-20200D01*
G01Y4445000D01*
G37*
G36*
G01X525000Y5635200D02*
X539800D01*
Y5649700D01*
X536500Y5652600D01*
G02X603500I33500J37400D01*
G01X600200Y5649700D01*
Y5635200D01*
X615000D01*
G02X635200Y5615000I0J-20200D01*
G01Y5465000D01*
G02X615000Y5444800I-20200J0D01*
G01X525000D01*
G02X504800Y5465000I0J20200D01*
G01Y5615000D01*
G02X525000Y5635200I20200J0D01*
G37*
G36*
G01X3828900Y5575000D02*
G03X3824800Y5587600I-9162J3986D01*
G02X3814800Y5605000I10138J17400D01*
G01Y5755000D01*
G02X3835000Y5775200I20200J0D01*
G01X3925000D01*
G02X3945200Y5755000I0J-20200D01*
G01Y5605000D01*
G02X3934400Y5587100I-20234J0D01*
G03X3924100Y5565300I9280J-17718D01*
G02X3828900Y5575000I-49142J-10285D01*
G37*
G36*
G01X3245200Y5815000D02*
G02X3225000Y5794800I-20200J0D01*
G01X3075000D01*
G02X3058100Y5804000I0J20122D01*
G03X3035200Y5812200I-16812J-10875D01*
G02Y5907800I-15200J47800D01*
G03X3058100Y5916000I6088J19075D01*
G02X3075000Y5925200I16900J-10922D01*
G01X3225000D01*
G02X3245200Y5905000I0J-20200D01*
G01Y5815000D01*
G37*
G36*
G01X5345200Y5835000D02*
G02X5325000Y5814800I-20200J0D01*
G01X5235000D01*
G02X5214800Y5835000I0J20200D01*
G01Y5985000D01*
G02X5235000Y6005200I20200J0D01*
G01X5325000D01*
G02X5345200Y5985000I0J-20200D01*
G01Y5980000D01*
G03X5363700Y5960100I19985J30D01*
G02X5377700Y5957000I-3746J-50080D01*
G03X5404800Y5975700I7111J18682D01*
G01Y5985000D01*
G02X5425000Y6005200I20200J0D01*
G01X5515000D01*
G02X5535200Y5985000I0J-20200D01*
G01Y5835000D01*
G02X5515000Y5814800I-20200J0D01*
G01X5425000D01*
G02X5404800Y5835000I0J20200D01*
G01Y5844300D01*
G03X5377700Y5863000I-19989J18D01*
G02X5363700Y5859900I-17746J46980D01*
G03X5345200Y5840000I1485J-19930D01*
G01Y5835000D01*
G37*
G36*
G01Y6055000D02*
G02X5325000Y6034800I-20200J0D01*
G01X5235000D01*
G02X5214800Y6055000I0J20200D01*
G01Y6205000D01*
G02X5235000Y6225200I20200J0D01*
G01X5325000D01*
G02X5345200Y6205000I0J-20200D01*
G01Y6200000D01*
G03X5363700Y6180100I19985J30D01*
G02X5377700Y6177000I-3746J-50080D01*
G03X5404800Y6195700I7111J18682D01*
G01Y6205000D01*
G02X5425000Y6225200I20200J0D01*
G01X5515000D01*
G02X5535200Y6205000I0J-20200D01*
G01Y6055000D01*
G02X5515000Y6034800I-20200J0D01*
G01X5425000D01*
G02X5404800Y6055000I0J20200D01*
G01Y6064300D01*
G03X5377700Y6083000I-19989J18D01*
G02X5363700Y6079900I-17746J46980D01*
G03X5345200Y6060000I1485J-19930D01*
G01Y6055000D01*
G37*
G36*
G01Y6275000D02*
G02X5325000Y6254800I-20200J0D01*
G01X5235000D01*
G02X5214800Y6275000I0J20200D01*
G01Y6425000D01*
G02X5235000Y6445200I20200J0D01*
G01X5325000D01*
G02X5345200Y6425000I0J-20200D01*
G01Y6420000D01*
G03X5363700Y6400100I19985J30D01*
G02X5377700Y6397000I-3746J-50080D01*
G03X5404800Y6415700I7111J18682D01*
G01Y6425000D01*
G02X5425000Y6445200I20200J0D01*
G01X5515000D01*
G02X5535200Y6425000I0J-20200D01*
G01Y6275000D01*
G02X5515000Y6254800I-20200J0D01*
G01X5425000D01*
G02X5404800Y6275000I0J20200D01*
G01Y6284300D01*
G03X5377700Y6303000I-19989J18D01*
G02X5363700Y6299900I-17746J46980D01*
G03X5345200Y6280000I1485J-19930D01*
G01Y6275000D01*
G37*
G36*
G01X3245200Y6365000D02*
G02X3225000Y6344800I-20200J0D01*
G01X3075000D01*
G02X3054800Y6365000I0J20200D01*
G01Y6455000D01*
G02X3075000Y6475200I20200J0D01*
G01X3225000D01*
G02X3245200Y6455000I0J-20200D01*
G01Y6440200D01*
X3269900D01*
G02Y6379800I40100J-30200D01*
G01X3245200D01*
Y6365000D01*
G37*
G36*
G01X5345200Y6640000D02*
G03X5363700Y6620100I19985J30D01*
G02X5377700Y6617000I-3746J-50080D01*
G03X5404800Y6635700I7111J18682D01*
G01Y6645000D01*
G02X5425000Y6665200I20200J0D01*
G01X5515000D01*
G02X5535200Y6645000I0J-20200D01*
G01Y6495000D01*
G02X5515000Y6474800I-20200J0D01*
G01X5425000D01*
G02X5404800Y6495000I0J20200D01*
G01Y6504300D01*
G03X5377700Y6523000I-19989J18D01*
G02X5363700Y6519900I-17746J46980D01*
G03X5345200Y6500000I1485J-19930D01*
G01Y6495000D01*
G02X5325000Y6474800I-20200J0D01*
G01X5235000D01*
G02X5214800Y6495000I0J20200D01*
G01Y6645000D01*
G02X5235000Y6665200I20200J0D01*
G01X5325000D01*
G02X5345200Y6645000I0J-20200D01*
G01Y6640000D01*
G37*
G36*
G01X2963800Y8151100D02*
X2465100Y8649800D01*
X1604900D01*
X1360200Y8405100D01*
Y8086300D01*
X1368500Y8084900D01*
G02X1385200Y8065000I-3507J-19900D01*
G01Y7935000D01*
G02X1365000Y7914800I-20200J0D01*
G01X1314100D01*
X1010200Y7610900D01*
Y7220900D01*
X638100Y6848800D01*
X509700D01*
G02Y6989200I-109700J70200D01*
G01X579900D01*
X869800Y7279100D01*
Y7669100D01*
X1214800Y8014100D01*
Y8065000D01*
G02X1231500Y8084900I20207J0D01*
G01X1239800Y8086300D01*
Y8454900D01*
X1555100Y8770200D01*
X2514900D01*
X3084200Y8200900D01*
Y8080100D01*
G02X2963800I-60200J-80100D01*
G01Y8151100D01*
G37*
G36*
G01X269800Y7190000D02*
Y7410000D01*
G02X290000Y7430200I20200J0D01*
G01X510000D01*
G02X530200Y7410000I0J-20200D01*
G01Y7190000D01*
G02X510000Y7169800I-20200J0D01*
G01X290000D01*
G02X269800Y7190000I0J20200D01*
G37*
G36*
G01X984800Y2055000D02*
Y2145000D01*
G02X1005000Y2165200I20200J0D01*
G01X1155000D01*
G02X1175200Y2145000I0J-20200D01*
G01Y2055000D01*
G02X1155000Y2034800I-20200J0D01*
G01X1005000D01*
G02X984800Y2055000I0J20200D01*
G37*
G36*
G01X1944800Y3035000D02*
Y3185000D01*
G02X1965000Y3205200I20200J0D01*
G01X2055000D01*
G02X2075200Y3185000I0J-20200D01*
G01Y3035000D01*
G02X2055000Y3014800I-20200J0D01*
G01X1965000D01*
G02X1944800Y3035000I0J20200D01*
G37*
G36*
G01Y3515000D02*
Y3665000D01*
G02X1965000Y3685200I20200J0D01*
G01X2055000D01*
G02X2075200Y3665000I0J-20200D01*
G01Y3515000D01*
G02X2055000Y3494800I-20200J0D01*
G01X1965000D01*
G02X1944800Y3515000I0J20200D01*
G37*
G36*
G01X2184800Y8315000D02*
Y8465000D01*
G02X2205000Y8485200I20200J0D01*
G01X2295000D01*
G02X2315200Y8465000I0J-20200D01*
G01Y8315000D01*
G02X2295000Y8294800I-20200J0D01*
G01X2205000D01*
G02X2184800Y8315000I0J20200D01*
G37*
G36*
G01X2324800Y2315000D02*
Y2405000D01*
G02X2345000Y2425200I20200J0D01*
G01X2495000D01*
G02X2515200Y2405000I0J-20200D01*
G01Y2315000D01*
G02X2495000Y2294800I-20200J0D01*
G01X2345000D01*
G02X2324800Y2315000I0J20200D01*
G37*
G36*
G01Y2625000D02*
Y2715000D01*
G02X2345000Y2735200I20200J0D01*
G01X2495000D01*
G02X2515200Y2715000I0J-20200D01*
G01Y2625000D01*
G02X2495000Y2604800I-20200J0D01*
G01X2345000D01*
G02X2324800Y2625000I0J20200D01*
G37*
G36*
G01Y4295000D02*
Y4385000D01*
G02X2345000Y4405200I20200J0D01*
G01X2495000D01*
G02X2515200Y4385000I0J-20200D01*
G01Y4295000D01*
G02X2495000Y4274800I-20200J0D01*
G01X2345000D01*
G02X2324800Y4295000I0J20200D01*
G37*
G36*
G01Y4515000D02*
Y4605000D01*
G02X2345000Y4625200I20200J0D01*
G01X2495000D01*
G02X2515200Y4605000I0J-20200D01*
G01Y4515000D01*
G02X2495000Y4494800I-20200J0D01*
G01X2345000D01*
G02X2324800Y4515000I0J20200D01*
G37*
G36*
G01X3054800Y6555000D02*
Y6645000D01*
G02X3075000Y6665200I20200J0D01*
G01X3225000D01*
G02X3245200Y6645000I0J-20200D01*
G01Y6555000D01*
G02X3225000Y6534800I-20200J0D01*
G01X3075000D01*
G02X3054800Y6555000I0J20200D01*
G37*
G36*
G01X3194800Y2505000D02*
Y2655000D01*
G02X3215000Y2675200I20200J0D01*
G01X3305000D01*
G02X3325200Y2655000I0J-20200D01*
G01Y2505000D01*
G02X3305000Y2484800I-20200J0D01*
G01X3215000D01*
G02X3194800Y2505000I0J20200D01*
G37*
G36*
G01X3594800Y2445000D02*
Y2535000D01*
G02X3615000Y2555200I20200J0D01*
G01X3765000D01*
G02X3785200Y2535000I0J-20200D01*
G01Y2445000D01*
G02X3765000Y2424800I-20200J0D01*
G01X3615000D01*
G02X3594800Y2445000I0J20200D01*
G37*
G36*
G01X4004800Y5605000D02*
Y5755000D01*
G02X4025000Y5775200I20200J0D01*
G01X4115000D01*
G02X4135200Y5755000I0J-20200D01*
G01Y5605000D01*
G02X4115000Y5584800I-20200J0D01*
G01X4025000D01*
G02X4004800Y5605000I0J20200D01*
G37*
G36*
G01X4184800Y3525000D02*
Y3675000D01*
G02X4205000Y3695200I20200J0D01*
G01X4295000D01*
G02X4315200Y3675000I0J-20200D01*
G01Y3525000D01*
G02X4295000Y3504800I-20200J0D01*
G01X4205000D01*
G02X4184800Y3525000I0J20200D01*
G37*
G36*
G01X4444800Y365000D02*
Y515000D01*
G02X4465000Y535200I20200J0D01*
G01X4555000D01*
G02X4575200Y515000I0J-20200D01*
G01Y365000D01*
G02X4555000Y344800I-20200J0D01*
G01X4465000D01*
G02X4444800Y365000I0J20200D01*
G37*
G36*
G01Y665000D02*
Y815000D01*
G02X4465000Y835200I20200J0D01*
G01X4555000D01*
G02X4575200Y815000I0J-20200D01*
G01Y665000D01*
G02X4555000Y644800I-20200J0D01*
G01X4465000D01*
G02X4444800Y665000I0J20200D01*
G37*
G36*
G01X4929800Y600000D02*
Y660000D01*
G02X4950000Y680200I20200J0D01*
G01X5050000D01*
G02X5070200Y660000I0J-20200D01*
G01Y600000D01*
G02X5050000Y579800I-20200J0D01*
G01X4950000D01*
G02X4929800Y600000I0J20200D01*
G37*
G36*
G01X5124800Y845000D02*
Y995000D01*
G02X5145000Y1015200I20200J0D01*
G01X5235000D01*
G02X5255200Y995000I0J-20200D01*
G01Y845000D01*
G02X5235000Y824800I-20200J0D01*
G01X5145000D01*
G02X5124800Y845000I0J20200D01*
G37*
G36*
G01Y1105000D02*
Y1255000D01*
G02X5145000Y1275200I20200J0D01*
G01X5235000D01*
G02X5255200Y1255000I0J-20200D01*
G01Y1105000D01*
G02X5235000Y1084800I-20200J0D01*
G01X5145000D01*
G02X5124800Y1105000I0J20200D01*
G37*
G36*
G01X4929800Y1590000D02*
Y1650000D01*
G02X4950000Y1670200I20200J0D01*
G01X5050000D01*
G02X5070200Y1650000I0J-20200D01*
G01Y1590000D01*
G02X5050000Y1569800I-20200J0D01*
G01X4950000D01*
G02X4929800Y1590000I0J20200D01*
G37*
G36*
G01X5124800Y1845000D02*
Y1995000D01*
G02X5145000Y2015200I20200J0D01*
G01X5235000D01*
G02X5255200Y1995000I0J-20200D01*
G01Y1845000D01*
G02X5235000Y1824800I-20200J0D01*
G01X5145000D01*
G02X5124800Y1845000I0J20200D01*
G37*
G36*
G01Y2105000D02*
Y2255000D01*
G02X5145000Y2275200I20200J0D01*
G01X5235000D01*
G02X5255200Y2255000I0J-20200D01*
G01Y2105000D01*
G02X5235000Y2084800I-20200J0D01*
G01X5145000D01*
G02X5124800Y2105000I0J20200D01*
G37*
G36*
G01X4929800Y2590000D02*
Y2650000D01*
G02X4950000Y2670200I20200J0D01*
G01X5050000D01*
G02X5070200Y2650000I0J-20200D01*
G01Y2590000D01*
G02X5050000Y2569800I-20200J0D01*
G01X4950000D01*
G02X4929800Y2590000I0J20200D01*
G37*
G36*
G01X5124800Y2855000D02*
Y3005000D01*
G02X5145000Y3025200I20200J0D01*
G01X5235000D01*
G02X5255200Y3005000I0J-20200D01*
G01Y2855000D01*
G02X5235000Y2834800I-20200J0D01*
G01X5145000D01*
G02X5124800Y2855000I0J20200D01*
G37*
G36*
G01Y3105000D02*
Y3255000D01*
G02X5145000Y3275200I20200J0D01*
G01X5235000D01*
G02X5255200Y3255000I0J-20200D01*
G01Y3105000D01*
G02X5235000Y3084800I-20200J0D01*
G01X5145000D01*
G02X5124800Y3105000I0J20200D01*
G37*
G36*
G01X4929800Y3600000D02*
Y3660000D01*
G02X4950000Y3680200I20200J0D01*
G01X5050000D01*
G02X5070200Y3660000I0J-20200D01*
G01Y3600000D01*
G02X5050000Y3579800I-20200J0D01*
G01X4950000D01*
G02X4929800Y3600000I0J20200D01*
G37*
G36*
G01X7879800Y4800000D02*
Y5000000D01*
G02X7900000Y5020200I20200J0D01*
G01X8100000D01*
G02X8120200Y5000000I0J-20200D01*
G01Y4800000D01*
G02X8100000Y4779800I-20200J0D01*
G01X7900000D01*
G02X7879800Y4800000I0J20200D01*
G37*
G36*
G01X1004800Y4005000D02*
Y4095000D01*
G02X1025000Y4115200I20200J0D01*
G01X1175000D01*
G02X1195200Y4095000I0J-20200D01*
G01Y4005000D01*
G02X1175000Y3984800I-20200J0D01*
G01X1025000D01*
G02X1004800Y4005000I0J20200D01*
G37*
G54D36*
X1040000Y5080500D03*
X1050000Y3130500D03*
Y1581500D03*
X1040000Y3531500D03*
G54D33*
X6174000Y7850000D03*
X5920000Y7596000D03*
Y7342000D03*
X4040000Y8000000D03*
X3786000D03*
X3532000D03*
X3278000D03*
G54D35*
X1634000Y1912000D03*
X1380000Y2038000D03*
X245000Y4714500D03*
Y3897500D03*
X255000Y2764500D03*
Y1947500D03*
X1370000Y3988000D03*
X1624000Y3862000D03*
G54D37*
X735000Y4877500D03*
X745000Y2927500D03*
Y1784500D03*
X735000Y3734500D03*
G54D32*
X8000000Y6424000D03*
X5500000Y4000000D03*
Y3000000D03*
Y2000000D03*
Y1000000D03*
G54D34*
X1808000Y8000000D03*
X1554000D03*
%LPD*%
G75*
G54D10*
X350000Y350000D03*
Y8850000D03*
X8350000Y350000D03*
Y8850000D03*
G54D20*
X1300000Y8000000D03*
G54D11*
G01D02*
X940000Y7640000D01*
Y7250000D01*
X609000Y6919000D01*
X400000D01*
X255000Y1693500D03*
Y1947500D03*
Y2764500D03*
Y3018500D03*
X245000Y3643500D03*
Y3897500D03*
Y4714500D03*
Y4968500D03*
X1380000Y2038000D03*
Y2292000D03*
Y2546000D03*
Y2800000D03*
X1370000Y3988000D03*
Y4242000D03*
Y4496000D03*
Y4750000D03*
X1634000Y1912000D03*
Y2166000D03*
Y2420000D03*
Y2674000D03*
X1624000Y3862000D03*
Y4116000D03*
Y4370000D03*
Y4624000D03*
X2340000Y3110000D03*
X2330000Y3590000D03*
X3020000Y4520000D03*
X6070000Y6740000D03*
G54D30*
G01X2770000Y6060000D02*
X2680000D01*
X2660000Y6040000D01*
G01X4060000Y3720000D02*
Y3600000D01*
G54D12*
X270000Y2350000D03*
Y4350000D03*
X180000Y6540000D03*
X320000Y7670000D03*
X410000Y8300000D03*
X610000Y900000D03*
X570000Y5690000D03*
X760000Y2540000D03*
X920000Y8010000D03*
X1150000Y410000D03*
X1000000Y8750000D03*
X1270000Y5290000D03*
X1280000Y6620000D03*
X1700000Y950000D03*
X1600000Y3130000D03*
X1750000Y8300000D03*
X1770000Y5580000D03*
X2270000Y6450000D03*
Y7790000D03*
X2400000Y390000D03*
X2420000Y5200000D03*
X2320000Y7150000D03*
X2490000Y8300000D03*
X2600000Y1920000D03*
X2640000Y2890000D03*
X2660000Y4200000D03*
X2770000Y5810000D03*
Y6060000D03*
X2780000Y6270000D03*
Y6640000D03*
X2610000Y7480000D03*
X3090000Y960000D03*
X2940000Y2660000D03*
X2930000Y3960000D03*
X2990000Y4800000D03*
X2950000Y5640000D03*
X3020000Y5860000D03*
X2970000Y7510000D03*
X2990000Y8830000D03*
X3170000Y3180000D03*
X3130000Y3580000D03*
X3210000Y4250000D03*
X3330000Y5090000D03*
X3310000Y6410000D03*
X3520000Y1690000D03*
X3510000Y2760000D03*
X3450000Y3030000D03*
X3555000Y3905000D03*
X3540000Y4340000D03*
X3410000Y5540000D03*
X3530000Y5940000D03*
X3500000Y7000000D03*
X3750000Y370000D03*
X3690000Y2800100D03*
X3650000Y3350000D03*
X3630000Y5170000D03*
Y5260000D03*
Y5350000D03*
Y5440000D03*
X3875000Y5555000D03*
X3880000Y7440000D03*
X4020000Y1180000D03*
X4090000Y2330000D03*
X3930000Y3340000D03*
X4060000Y3720000D03*
X3960000Y3870000D03*
X3910000Y4040000D03*
X3970000Y4510000D03*
X4110000Y5480000D03*
X4390000Y3180000D03*
X4280000Y4150000D03*
X4420000Y7000000D03*
X4430000Y5940000D03*
X4480000Y7480000D03*
X4590000Y8830000D03*
X4710000Y1250000D03*
X4760000Y2050000D03*
X4820000Y5330000D03*
X4760000Y7260000D03*
X5170000Y240000D03*
X5210000Y3850000D03*
X5040000Y4330000D03*
X4970000Y6570000D03*
X5000000Y7300000D03*
Y7670000D03*
X5110000Y8050000D03*
X5370000Y1250000D03*
X5260000Y1690000D03*
X5360000Y2270000D03*
X5260000Y2710000D03*
X5360000Y5910000D03*
Y6130000D03*
Y6350000D03*
Y6570000D03*
X5390000Y7110000D03*
X5730000Y780000D03*
X5650000Y4570000D03*
X5540000Y5410000D03*
X5650000Y6610000D03*
X5680000Y6870000D03*
X5660000Y7580000D03*
X5670000Y8020000D03*
X5820000Y4010000D03*
X5930000Y8820000D03*
X6040000Y7100000D03*
X6330000Y5390000D03*
X6530000Y7330000D03*
X6790000Y5720000D03*
X6660000Y5980000D03*
Y6231000D03*
Y6490000D03*
X6659000Y6739000D03*
X6820000Y7030000D03*
X6980000Y4990000D03*
X7320000Y7740000D03*
X7200000Y8810000D03*
X7620000Y5280000D03*
X7480000Y6380000D03*
G54D21*
X2020000Y3820000D03*
X2200000D03*
X2480000Y5810000D03*
Y6040000D03*
X2660000Y5810000D03*
Y6040000D03*
G54D31*
G01X2570000Y1400000D02*
X250000D01*
X90000Y1560000D01*
Y1690000D01*
G01Y3020000D02*
Y1690000D01*
G01Y3330000D02*
Y3020000D01*
G01Y3640000D02*
Y3330000D01*
G01X245000Y3643500D02*
X93500D01*
X90000Y3640000D01*
G01X245000Y4968500D02*
X90000Y4813500D01*
Y3640000D01*
G01X380000Y5540000D02*
Y5103500D01*
X245000Y4968500D01*
G01X2062000Y8000000D02*
X380000Y6318000D01*
Y5540000D01*
G01X1300000Y8000000D02*
Y8430000D01*
X1580000Y8710000D01*
X2490000D01*
X3024000Y8176000D01*
Y8000000D01*
G01X2970000Y7510000D02*
X2480000Y8000000D01*
X2062000D01*
G01D02*
Y8253000D01*
X2060000Y8255000D01*
Y8390000D01*
G01X2970000Y7510000D02*
X3170000Y7310000D01*
X4220000D01*
X4390000Y7480000D01*
X4480000D01*
G01D02*
X5000000D01*
G01D02*
X5330000D01*
X6070000Y6740000D01*
G54D22*
X2770000Y8000000D03*
X5920000Y7850000D03*
G54D13*
X380000Y5540000D03*
X570000D03*
X1980000Y2170000D03*
Y2400000D03*
Y2860000D03*
Y2630000D03*
X2010000Y3110000D03*
Y3590000D03*
X1980000Y4060000D03*
Y4290000D03*
Y4520000D03*
Y4750000D03*
X2170000Y2170000D03*
Y2400000D03*
Y2860000D03*
Y2630000D03*
X2200000Y3110000D03*
Y3590000D03*
X2170000Y4060000D03*
Y4290000D03*
Y4520000D03*
Y4750000D03*
X2250000Y8390000D03*
X2060000D03*
X2650000Y3960000D03*
X2840000D03*
X3260000Y2310000D03*
Y2580000D03*
X3450000Y2310000D03*
Y2580000D03*
X3610000Y5690000D03*
X3420000D03*
X3880000Y5680000D03*
X4060000Y3600000D03*
Y3870000D03*
X4070000Y5680000D03*
X4250000Y3600000D03*
Y3870000D03*
X4510000Y440000D03*
X4700000D03*
Y740000D03*
X4510000D03*
X4700000Y1010000D03*
X4510000D03*
X5000000Y920000D03*
X5190000D03*
Y1180000D03*
X5000000D03*
Y1920000D03*
X5190000D03*
Y2180000D03*
X5000000D03*
Y2930000D03*
X5190000D03*
Y3180000D03*
X5000000D03*
X5280000Y5910000D03*
X5470000D03*
X5280000Y6130000D03*
X5470000D03*
X5280000Y6350000D03*
X5470000D03*
X5280000Y6570000D03*
X5470000D03*
X6330000Y5980000D03*
X6520000D03*
X6330000Y6230000D03*
X6520000D03*
X6330000Y6490000D03*
X6520000D03*
X6330000Y6740000D03*
X6520000D03*
G54D14*
X400000Y6919000D03*
G54D23*
X5240000Y535000D03*
X5000000Y630000D03*
Y440000D03*
Y1430000D03*
X5240000Y1525000D03*
X5000000Y1620000D03*
X5240000Y2525000D03*
X5000000Y2430000D03*
Y2620000D03*
X5240000Y3535000D03*
X5000000Y3630000D03*
Y3440000D03*
X7360000Y5665000D03*
Y7185000D03*
X7600000Y5570000D03*
Y5760000D03*
Y7090000D03*
Y7280000D03*
G54D15*
X400000Y7300000D03*
G54D24*
X5500000Y530000D03*
Y1000000D03*
Y1530000D03*
Y2000000D03*
Y2530000D03*
Y3000000D03*
Y3530000D03*
Y4000000D03*
X6650000Y530000D03*
Y1530000D03*
Y2530000D03*
Y3530000D03*
X7350000Y530000D03*
Y1530000D03*
Y2530000D03*
Y3530000D03*
X8000000Y2011000D03*
Y2392000D03*
Y2773000D03*
Y3154000D03*
Y3535000D03*
Y3916000D03*
Y4297000D03*
Y5281000D03*
Y5662000D03*
Y6043000D03*
Y6424000D03*
Y6805000D03*
Y7186000D03*
Y7567000D03*
G54D25*
Y1630000D03*
Y4900000D03*
G54D16*
X745000Y1784500D03*
Y2927500D03*
X735000Y3734500D03*
Y4877500D03*
G54D26*
G01X8000000Y2392000D02*
X7805000D01*
X7350000Y1937000D01*
Y1530000D01*
G01X8000000Y3154000D02*
X7774000D01*
X7350000Y2730000D01*
Y2530000D01*
G01X8000000Y3916000D02*
X7736000D01*
X7350000Y3530000D01*
G54D17*
X1050000Y1581500D03*
Y3130500D03*
X1040000Y3531500D03*
Y5080500D03*
X3024000Y8000000D03*
X3278000D03*
X3532000D03*
X3786000D03*
X4040000D03*
X5920000Y7342000D03*
Y7596000D03*
X6174000Y7342000D03*
Y7596000D03*
Y7850000D03*
G54D27*
G01X570000Y5540000D02*
Y5690000D01*
G01X1080000Y2024800D02*
Y2100000D01*
G01D02*
Y2175200D01*
G01X974800Y2100000D02*
X1080000D01*
G01D02*
X1185200D01*
G01X1080000Y2290000D02*
X1298000D01*
X1300000Y2292000D01*
G01X1100000Y3974800D02*
Y4050000D01*
G01D02*
Y4125200D01*
G01X994800Y4050000D02*
X1100000D01*
G01D02*
X1205200D01*
G01X1100000Y4240000D02*
X1138000D01*
X1140000Y4242000D01*
G01X1380000Y2546000D02*
X1864000D01*
X1980000Y2430000D01*
Y2400000D01*
G01X1380000Y2800000D02*
X1440000Y2860000D01*
X1980000D01*
G01X1370000Y4496000D02*
X1614000D01*
X1820000Y4290000D01*
X1980000D01*
G01Y4750000D02*
X1370000D01*
G01X1634000Y2166000D02*
X1976000D01*
X1980000Y2170000D01*
G01X1634000Y2674000D02*
X1936000D01*
X1980000Y2630000D01*
G01Y4060000D02*
X1905000D01*
X1904400Y4059400D01*
X1680600D01*
X1624000Y4116000D01*
G01Y4624000D02*
X1728000Y4520000D01*
X1980000D01*
G01X1934800Y3110000D02*
X2010000D01*
G01X1934800Y3590000D02*
X2010000D01*
G01X2170000Y2400000D02*
Y2170000D01*
G01D02*
X2420000D01*
G01X2170000Y2630000D02*
Y2860000D01*
G01X2010000Y3004800D02*
Y3110000D01*
G01X2170000Y2860000D02*
X2420000D01*
G01X2010000Y3110000D02*
Y3215200D01*
G01Y3110000D02*
X2085200D01*
G01X2010000Y3484800D02*
Y3590000D01*
G01D02*
Y3695200D01*
G01Y3590000D02*
X2085200D01*
G01X2650000Y3960000D02*
X2630000Y3940000D01*
X2110000D01*
X2020000Y3850000D01*
Y3820000D01*
G01X2170000Y4290000D02*
Y4060000D01*
G01D02*
X2300000D01*
X2390000Y4150000D01*
X2420000D01*
G01X2170000Y4520000D02*
Y4750000D01*
G01D02*
X2420000D01*
G01X2250000Y8284800D02*
Y8390000D01*
G01D02*
Y8495200D01*
G01X2174800Y8390000D02*
X2250000D01*
G01D02*
X2325200D01*
G01X2420000Y2360000D02*
Y2670000D01*
G01Y2284800D02*
Y2360000D01*
G01X2314800D02*
X2420000D01*
G01D02*
X2525200D01*
G01X2420000Y2670000D02*
Y2745200D01*
G01X2314800Y2670000D02*
X2420000D01*
G01D02*
X2525200D01*
G01X2420000Y4340000D02*
Y4560000D01*
G01Y4264800D02*
Y4340000D01*
G01X2314800D02*
X2420000D01*
G01D02*
X2525200D01*
G01X2420000Y4560000D02*
Y4635200D01*
G01X2314800Y4560000D02*
X2420000D01*
G01D02*
X2525200D01*
G01X2840000Y3960000D02*
X2930000D01*
G01X3020000Y5860000D02*
X3150000D01*
G01X3044800Y6600000D02*
X3150000D01*
G01X3260000Y2204800D02*
Y2310000D01*
G01Y2474800D02*
Y2580000D01*
G01Y2310000D02*
Y2415200D01*
G01X3184800Y2310000D02*
X3260000D01*
G01D02*
X3335200D01*
G01X3260000Y2580000D02*
Y2685200D01*
G01X3184800Y2580000D02*
X3260000D01*
G01D02*
X3335200D01*
G01X3150000Y6524800D02*
Y6600000D01*
G01Y6410000D02*
X3310000D01*
G01X3150000Y6600000D02*
Y6675200D01*
G01Y6600000D02*
X3255200D01*
G01X3584800Y2490000D02*
X3690000D01*
G01X3560000Y4040000D02*
X3555000Y4035000D01*
Y3905000D01*
G01X3690000Y2414800D02*
Y2490000D01*
G01D02*
Y2565200D01*
G01Y2490000D02*
X3795200D01*
G01X3690000Y2680000D02*
Y2800100D01*
G01X4510000Y1010000D02*
Y4290000D01*
X3630000Y5170000D01*
G01Y5260000D02*
X4560000Y4330000D01*
Y1780000D01*
X4720000Y1620000D01*
X4750000D01*
G01X3630000Y5350000D02*
X4610000Y4370000D01*
Y2730000D01*
X4720000Y2620000D01*
X4750000D01*
G01Y3630000D02*
Y4320000D01*
X3630000Y5440000D01*
G01X3875000Y5555000D02*
Y5675000D01*
X3880000Y5680000D01*
G01X3960000Y3870000D02*
X4060000D01*
G01X4070000Y5574800D02*
Y5680000D01*
G01D02*
Y5785200D01*
G01X3994800Y5680000D02*
X4070000D01*
G01D02*
X4145200D01*
G01X5920000Y7850000D02*
X4290000D01*
X3880000Y7440000D01*
G01X4250000Y3494800D02*
Y3600000D01*
G01D02*
Y3705200D01*
G01X4174800Y3600000D02*
X4250000D01*
G01D02*
X4325200D01*
G01X4510000Y334800D02*
Y440000D01*
G01Y634800D02*
Y740000D01*
G01Y440000D02*
Y545200D01*
G01X4434800Y440000D02*
X4510000D01*
G01D02*
X4585200D01*
G01X4510000Y740000D02*
Y845200D01*
G01X4434800Y740000D02*
X4510000D01*
G01D02*
X4585200D01*
G01X4919800Y630000D02*
X5000000D01*
G01X4700000Y740000D02*
Y440000D01*
G01D02*
X5000000D01*
G01X4700000Y1010000D02*
Y740000D01*
G01X4750000Y1430000D02*
X5000000D01*
G01X4919800Y1620000D02*
X5000000D01*
G01X4750000Y2430000D02*
X5000000D01*
G01X4919800Y2620000D02*
X5000000D01*
G01Y3440000D02*
X4750000D01*
G01X4919800Y3630000D02*
X5000000D01*
G01Y569800D02*
Y630000D01*
G01D02*
Y690200D01*
G01Y630000D02*
X5080200D01*
G01X5190000Y814800D02*
Y920000D01*
G01D02*
Y1025200D01*
G01X5114800Y920000D02*
X5190000D01*
G01D02*
X5265200D01*
G01X5000000D02*
Y1180000D01*
G01X5190000Y1074800D02*
Y1180000D01*
G01D02*
Y1285200D01*
G01X5114800Y1180000D02*
X5190000D01*
G01D02*
X5265200D01*
G01X5000000D02*
Y1430000D01*
G01Y1559800D02*
Y1620000D01*
G01D02*
Y1680200D01*
G01Y1620000D02*
X5080200D01*
G01X5190000Y1814800D02*
Y1920000D01*
G01D02*
Y2025200D01*
G01X5114800Y1920000D02*
X5190000D01*
G01D02*
X5265200D01*
G01X5000000D02*
Y2180000D01*
G01X5190000Y2074800D02*
Y2180000D01*
G01D02*
Y2285200D01*
G01X5114800Y2180000D02*
X5190000D01*
G01D02*
X5265200D01*
G01X5000000D02*
Y2430000D01*
G01Y2559800D02*
Y2620000D01*
G01D02*
Y2680200D01*
G01Y2620000D02*
X5080200D01*
G01X5190000Y3074800D02*
Y3180000D01*
G01Y2824800D02*
Y2930000D01*
G01D02*
Y3035200D01*
G01X5114800Y2930000D02*
X5190000D01*
G01D02*
X5265200D01*
G01X5000000D02*
Y3180000D01*
G01X5190000D02*
Y3285200D01*
G01X5114800Y3180000D02*
X5190000D01*
G01D02*
X5265200D01*
G01X5000000D02*
Y3440000D01*
G01Y3569800D02*
Y3630000D01*
G01D02*
Y3690200D01*
G01Y3630000D02*
X5080200D01*
G01X5240000Y535000D02*
X5495000D01*
X5500000Y530000D01*
G01X5240000Y1525000D02*
X5495000D01*
X5500000Y1530000D01*
G01X5240000Y2525000D02*
X5495000D01*
X5500000Y2530000D01*
G01X5240000Y3535000D02*
X5495000D01*
X5500000Y3530000D01*
G01X5360000Y5910000D02*
X5280000D01*
G01Y6130000D02*
X5360000D01*
G01Y6350000D02*
X5280000D01*
G01Y6570000D02*
X5360000D01*
G01X6330000Y5980000D02*
Y5950000D01*
X6710000Y5570000D01*
X7600000D01*
G01X6330000Y6230000D02*
Y6200000D01*
X6430000Y6100000D01*
X6870000D01*
X7210000Y5760000D01*
X7600000D01*
G01X6330000Y6490000D02*
Y6520000D01*
X6420000Y6610000D01*
X6670000D01*
X7150000Y7090000D01*
X7600000D01*
G01X6330000Y6740000D02*
Y6770000D01*
X6840000Y7280000D01*
X7600000D01*
G54D18*
X1080000Y2100000D03*
Y2290000D03*
X1100000Y4050000D03*
Y4240000D03*
X2420000Y2170000D03*
Y2360000D03*
Y2670000D03*
Y2860000D03*
Y4150000D03*
Y4340000D03*
Y4560000D03*
Y4750000D03*
X3150000Y5860000D03*
Y6050000D03*
Y6410000D03*
Y6600000D03*
X3560000Y4040000D03*
Y4230000D03*
X3690000Y2490000D03*
Y2680000D03*
X4750000Y1430000D03*
Y1620000D03*
Y2430000D03*
Y2620000D03*
Y3440000D03*
Y3630000D03*
G54D28*
G01X1300000Y2292000D02*
X853500D01*
X255000Y1693500D01*
G01X1140000Y4242000D02*
X843500D01*
X245000Y3643500D01*
G01X1370000Y4242000D02*
X1140000D01*
G01X1634000Y2420000D02*
X1506000Y2292000D01*
X1380000D01*
G01D02*
X1300000D01*
G01X1624000Y4370000D02*
X1496000Y4242000D01*
X1370000D01*
G01X1634000Y1912000D02*
X1553800D01*
G01X1634000D02*
X1714200D01*
G01X1634000D02*
Y1831800D01*
G01Y1912000D02*
Y1992200D01*
G01X1624000Y3862000D02*
X1543800D01*
G01X1624000D02*
Y3781800D01*
G01Y3862000D02*
X1704200D01*
G01X1624000D02*
Y3942200D01*
G01X1712800Y8000000D02*
X1808000D01*
G01D02*
X1903200D01*
G01X1808000Y7904800D02*
Y8000000D01*
G01D02*
Y8095200D01*
G01X2660000Y5810000D02*
X2770000D01*
G01X2780000Y6270000D02*
X2900000D01*
X3120000Y6050000D01*
X3150000D01*
G01X3560000Y4230000D02*
X3920000D01*
X4250000Y3900000D01*
Y3870000D01*
G01X3540000Y4340000D02*
Y4250000D01*
X3560000Y4230000D01*
G01X3610000Y5690000D02*
X3685200D01*
G01X3534800D02*
X3610000D01*
G01D02*
Y5795200D01*
G01X3420000Y5690000D02*
Y5550000D01*
X3410000Y5540000D01*
G01X4820000Y5330000D02*
X3900000D01*
X3690000Y5540000D01*
X3410000D01*
G01X5000000Y7480000D02*
Y7300000D01*
G01X5470000Y6130000D02*
Y5910000D01*
G01Y5804800D02*
Y5910000D01*
G01D02*
X5545200D01*
G01X5470000Y6350000D02*
Y6130000D01*
G01D02*
X5545200D01*
G01X5470000Y6570000D02*
Y6350000D01*
G01D02*
X5545200D01*
G01X5470000Y6675200D02*
Y6570000D01*
G01D02*
X5545200D01*
G01X6174000Y7596000D02*
X6300000Y7470000D01*
Y6970000D01*
X6070000Y6740000D01*
G01X6174000Y7342000D02*
X6063800D01*
G01X6174000D02*
Y7452200D01*
G01Y7342000D02*
Y7231800D01*
G01X6520000Y5980000D02*
X6660000D01*
G01X6520000Y6230000D02*
X6521000Y6231000D01*
X6660000D01*
G01X6520000Y6490000D02*
X6660000D01*
G01X6659000Y6739000D02*
X6521000D01*
X6520000Y6740000D01*
G01X8000000Y5281000D02*
X7711000Y5570000D01*
X7600000D01*
G01X8000000Y6043000D02*
X7717000Y5760000D01*
X7600000D01*
G01X8000000Y6805000D02*
X7715000Y7090000D01*
X7600000D01*
G01X8000000Y7567000D02*
X7713000Y7280000D01*
X7600000D01*
G54D19*
X1554000Y8000000D03*
X1808000D03*
X2062000D03*
G54D29*
G01X3450000Y2310000D02*
Y2280000D01*
X2570000Y1400000D01*
G01X255000Y1693500D02*
X93500D01*
X90000Y1690000D01*
G01X255000Y3018500D02*
X91500D01*
X90000Y3020000D01*
G01X2020000Y3820000D02*
X1890000D01*
X1400000Y3330000D01*
X90000D01*
G01X2340000Y3110000D02*
X2200000D01*
G01X2330000Y3590000D02*
X2200000D01*
G01Y3820000D02*
Y3590000D01*
G01X2340000Y3110000D02*
X3020000Y3790000D01*
Y4520000D01*
G01X3065000Y5195000D02*
X2480000Y5780000D01*
Y5810000D01*
G01Y6040000D02*
Y5810000D01*
G01X2780000Y6270000D02*
X2680000D01*
X2480000Y6070000D01*
Y6040000D01*
G01X2780000Y6640000D02*
Y6270000D01*
G01X2970000Y7510000D02*
X2780000Y7320000D01*
Y6640000D01*
G01X3540000Y4340000D02*
Y4720000D01*
X3065000Y5195000D01*
G01X3410000Y5540000D02*
X3065000Y5195000D01*
G01X4060000Y3720000D02*
X3490000D01*
X3210000Y4000000D01*
Y4250000D01*
G01X3450000Y2310000D02*
Y2580000D01*
G01X3510000Y2760000D02*
X3450000Y2700000D01*
Y2580000D01*
G01X8000000Y5662000D02*
X7855000D01*
X7852000Y5665000D01*
X7360000D01*
G01X8000000Y7186000D02*
X7855000D01*
X7854000Y7185000D01*
X7360000D01*
M02*
