G04 ================== begin FILE IDENTIFICATION RECORD ==================*
G04 Layout Name:  G:/Work/sh-z-004/design/pcb/io_4di_4do.brd*
G04 Film Name:    DRILL*
G04 File Format:  Gerber RS274X*
G04 File Origin:  Cadence Allegro 17.2-S007*
G04 Origin Date:  Mon Oct 15 21:01:38 2018*
G04 *
G04 Layer:  MANUFACTURING/NCDRILL_LEGEND*
G04 Layer:  MANUFACTURING/NCDRILL_FIGURE*
G04 Layer:  MANUFACTURING/NCLEGEND-1-2*
G04 Layer:  BOARD GEOMETRY/OUTLINE*
G04 *
G04 Offset:    (0.000 0.000)*
G04 Mirror:    No*
G04 Mode:      Positive*
G04 Rotation:  0*
G04 FullContactRelief:  No*
G04 UndefLineWidth:     0.200*
G04 ================== end FILE IDENTIFICATION RECORD ====================*
%FSLAX25Y25*MOMM*%
%IR0*IPPOS*OFA0.00000B0.00000*MIA0B0*SFA1.00000B1.00000*%
%AMMACRO12*
1,1,.2,.5,0.0*
20,1,.2,.5,0.0,.492404,-.086824,0.0*
1,1,.2,.492404,-.086824*
20,1,.2,.492404,-.086824,.469846,-.17101,0.0*
1,1,.2,.469846,-.17101*
20,1,.2,.469846,-.17101,.433013,-.25,0.0*
1,1,.2,.433013,-.25*
20,1,.2,.433013,-.25,.383022,-.321394,0.0*
1,1,.2,.383022,-.321394*
20,1,.2,.383022,-.321394,.321394,-.383022,0.0*
1,1,.2,.321394,-.383022*
20,1,.2,.321394,-.383022,.25,-.433013,0.0*
1,1,.2,.25,-.433013*
20,1,.2,.25,-.433013,.17101,-.469846,0.0*
1,1,.2,.17101,-.469846*
20,1,.2,.17101,-.469846,.086824,-.492404,0.0*
1,1,.2,.086824,-.492404*
20,1,.2,.086824,-.492404,0.0,-.5,0.0*
1,1,.2,0.0,-.5*
20,1,.2,0.0,-.5,-.086824,-.492404,0.0*
1,1,.2,-.086824,-.492404*
20,1,.2,-.086824,-.492404,-.17101,-.469846,0.0*
1,1,.2,-.17101,-.469846*
20,1,.2,-.17101,-.469846,-.25,-.433013,0.0*
1,1,.2,-.25,-.433013*
20,1,.2,-.25,-.433013,-.321394,-.383022,0.0*
1,1,.2,-.321394,-.383022*
20,1,.2,-.321394,-.383022,-.383022,-.321394,0.0*
1,1,.2,-.383022,-.321394*
20,1,.2,-.383022,-.321394,-.433013,-.25,0.0*
1,1,.2,-.433013,-.25*
20,1,.2,-.433013,-.25,-.469846,-.17101,0.0*
1,1,.2,-.469846,-.17101*
20,1,.2,-.469846,-.17101,-.492404,-.086824,0.0*
1,1,.2,-.492404,-.086824*
20,1,.2,-.492404,-.086824,-.5,0.0,0.0*
1,1,.2,-.5,0.0*
20,1,.2,-.5,0.0,-.492404,.086824,0.0*
1,1,.2,-.492404,.086824*
20,1,.2,-.492404,.086824,-.469846,.17101,0.0*
1,1,.2,-.469846,.17101*
20,1,.2,-.469846,.17101,-.433013,.25,0.0*
1,1,.2,-.433013,.25*
20,1,.2,-.433013,.25,-.383022,.321394,0.0*
1,1,.2,-.383022,.321394*
20,1,.2,-.383022,.321394,-.321394,.383022,0.0*
1,1,.2,-.321394,.383022*
20,1,.2,-.321394,.383022,-.25,.433013,0.0*
1,1,.2,-.25,.433013*
20,1,.2,-.25,.433013,-.17101,.469846,0.0*
1,1,.2,-.17101,.469846*
20,1,.2,-.17101,.469846,-.086824,.492404,0.0*
1,1,.2,-.086824,.492404*
20,1,.2,-.086824,.492404,0.0,.5,0.0*
1,1,.2,0.0,.5*
20,1,.2,0.0,.5,.086824,.492404,0.0*
1,1,.2,.086824,.492404*
20,1,.2,.086824,.492404,.17101,.469846,0.0*
1,1,.2,.17101,.469846*
20,1,.2,.17101,.469846,.25,.433013,0.0*
1,1,.2,.25,.433013*
20,1,.2,.25,.433013,.321394,.383022,0.0*
1,1,.2,.321394,.383022*
20,1,.2,.321394,.383022,.383022,.321394,0.0*
1,1,.2,.383022,.321394*
20,1,.2,.383022,.321394,.433013,.25,0.0*
1,1,.2,.433013,.25*
20,1,.2,.433013,.25,.469846,.17101,0.0*
1,1,.2,.469846,.17101*
20,1,.2,.469846,.17101,.492404,.086824,0.0*
1,1,.2,.492404,.086824*
20,1,.2,.492404,.086824,.5,0.0,0.0*
1,1,.2,.5,0.0*
1,1,.2,.183,.208*
20,1,.2,.183,.208,.133,.233,0.0*
1,1,.2,.133,.233*
20,1,.2,.133,.233,.075,.25,0.0*
1,1,.2,.075,.25*
20,1,.2,.075,.25,.008,.25,0.0*
1,1,.2,.008,.25*
20,1,.2,.008,.25,-.067,.225,0.0*
1,1,.2,-.067,.225*
20,1,.2,-.067,.225,-.125,.183,0.0*
1,1,.2,-.125,.183*
20,1,.2,-.125,.183,-.167,.133,0.0*
1,1,.2,-.167,.133*
20,1,.2,-.167,.133,-.2,.05,0.0*
1,1,.2,-.2,.05*
20,1,.2,-.2,.05,-.208,-.025,0.0*
1,1,.2,-.208,-.025*
20,1,.2,-.208,-.025,-.192,-.1,0.0*
1,1,.2,-.192,-.1*
20,1,.2,-.192,-.1,-.167,-.15,0.0*
1,1,.2,-.167,-.15*
20,1,.2,-.167,-.15,-.117,-.2,0.0*
1,1,.2,-.117,-.2*
20,1,.2,-.117,-.2,-.058,-.233,0.0*
1,1,.2,-.058,-.233*
20,1,.2,-.058,-.233,0.0,-.25,0.0*
1,1,.2,0.0,-.25*
20,1,.2,0.0,-.25,.058,-.25,0.0*
1,1,.2,.058,-.25*
20,1,.2,.058,-.25,.117,-.233,0.0*
1,1,.2,.117,-.233*
20,1,.2,.117,-.233,.167,-.208,0.0*
1,1,.2,.167,-.208*
20,1,.2,.167,-.208,.208,-.175,0.0*
1,1,.2,.208,-.175*
%
%ADD12MACRO12*%
%AMMACRO13*
1,1,.2,.5,.5*
20,1,.2,.5,.5,.5,-.5,0.0*
1,1,.2,.5,-.5*
20,1,.2,.5,-.5,-.5,-.5,0.0*
1,1,.2,-.5,-.5*
20,1,.2,-.5,-.5,-.5,.5,0.0*
1,1,.2,-.5,.5*
20,1,.2,-.5,.5,.5,.5,0.0*
1,1,.2,.5,.5*
1,1,.2,.183,.208*
20,1,.2,.183,.208,.133,.233,0.0*
1,1,.2,.133,.233*
20,1,.2,.133,.233,.075,.25,0.0*
1,1,.2,.075,.25*
20,1,.2,.075,.25,.008,.25,0.0*
1,1,.2,.008,.25*
20,1,.2,.008,.25,-.067,.225,0.0*
1,1,.2,-.067,.225*
20,1,.2,-.067,.225,-.125,.183,0.0*
1,1,.2,-.125,.183*
20,1,.2,-.125,.183,-.167,.133,0.0*
1,1,.2,-.167,.133*
20,1,.2,-.167,.133,-.2,.05,0.0*
1,1,.2,-.2,.05*
20,1,.2,-.2,.05,-.208,-.025,0.0*
1,1,.2,-.208,-.025*
20,1,.2,-.208,-.025,-.192,-.1,0.0*
1,1,.2,-.192,-.1*
20,1,.2,-.192,-.1,-.167,-.15,0.0*
1,1,.2,-.167,-.15*
20,1,.2,-.167,-.15,-.117,-.2,0.0*
1,1,.2,-.117,-.2*
20,1,.2,-.117,-.2,-.058,-.233,0.0*
1,1,.2,-.058,-.233*
20,1,.2,-.058,-.233,0.0,-.25,0.0*
1,1,.2,0.0,-.25*
20,1,.2,0.0,-.25,.058,-.25,0.0*
1,1,.2,.058,-.25*
20,1,.2,.058,-.25,.117,-.233,0.0*
1,1,.2,.117,-.233*
20,1,.2,.117,-.233,.167,-.208,0.0*
1,1,.2,.167,-.208*
20,1,.2,.167,-.208,.208,-.175,0.0*
1,1,.2,.208,-.175*
%
%ADD13MACRO13*%
%AMMACRO14*
1,1,.2,.25,0.0*
20,1,.2,.25,0.0,.246202,-.043412,0.0*
1,1,.2,.246202,-.043412*
20,1,.2,.246202,-.043412,.234923,-.085505,0.0*
1,1,.2,.234923,-.085505*
20,1,.2,.234923,-.085505,.216506,-.125,0.0*
1,1,.2,.216506,-.125*
20,1,.2,.216506,-.125,.191511,-.160697,0.0*
1,1,.2,.191511,-.160697*
20,1,.2,.191511,-.160697,.160697,-.191511,0.0*
1,1,.2,.160697,-.191511*
20,1,.2,.160697,-.191511,.125,-.216506,0.0*
1,1,.2,.125,-.216506*
20,1,.2,.125,-.216506,.085505,-.234923,0.0*
1,1,.2,.085505,-.234923*
20,1,.2,.085505,-.234923,.043412,-.246202,0.0*
1,1,.2,.043412,-.246202*
20,1,.2,.043412,-.246202,0.0,-.25,0.0*
1,1,.2,0.0,-.25*
20,1,.2,0.0,-.25,-.043412,-.246202,0.0*
1,1,.2,-.043412,-.246202*
20,1,.2,-.043412,-.246202,-.085505,-.234923,0.0*
1,1,.2,-.085505,-.234923*
20,1,.2,-.085505,-.234923,-.125,-.216506,0.0*
1,1,.2,-.125,-.216506*
20,1,.2,-.125,-.216506,-.160697,-.191511,0.0*
1,1,.2,-.160697,-.191511*
20,1,.2,-.160697,-.191511,-.191511,-.160697,0.0*
1,1,.2,-.191511,-.160697*
20,1,.2,-.191511,-.160697,-.216506,-.125,0.0*
1,1,.2,-.216506,-.125*
20,1,.2,-.216506,-.125,-.234923,-.085505,0.0*
1,1,.2,-.234923,-.085505*
20,1,.2,-.234923,-.085505,-.246202,-.043412,0.0*
1,1,.2,-.246202,-.043412*
20,1,.2,-.246202,-.043412,-.25,0.0,0.0*
1,1,.2,-.25,0.0*
20,1,.2,-.25,0.0,-.246202,.043412,0.0*
1,1,.2,-.246202,.043412*
20,1,.2,-.246202,.043412,-.234923,.085505,0.0*
1,1,.2,-.234923,.085505*
20,1,.2,-.234923,.085505,-.216506,.125,0.0*
1,1,.2,-.216506,.125*
20,1,.2,-.216506,.125,-.191511,.160697,0.0*
1,1,.2,-.191511,.160697*
20,1,.2,-.191511,.160697,-.160697,.191511,0.0*
1,1,.2,-.160697,.191511*
20,1,.2,-.160697,.191511,-.125,.216506,0.0*
1,1,.2,-.125,.216506*
20,1,.2,-.125,.216506,-.085505,.234923,0.0*
1,1,.2,-.085505,.234923*
20,1,.2,-.085505,.234923,-.043412,.246202,0.0*
1,1,.2,-.043412,.246202*
20,1,.2,-.043412,.246202,0.0,.25,0.0*
1,1,.2,0.0,.25*
20,1,.2,0.0,.25,.043412,.246202,0.0*
1,1,.2,.043412,.246202*
20,1,.2,.043412,.246202,.085505,.234923,0.0*
1,1,.2,.085505,.234923*
20,1,.2,.085505,.234923,.125,.216506,0.0*
1,1,.2,.125,.216506*
20,1,.2,.125,.216506,.160697,.191511,0.0*
1,1,.2,.160697,.191511*
20,1,.2,.160697,.191511,.191511,.160697,0.0*
1,1,.2,.191511,.160697*
20,1,.2,.191511,.160697,.216506,.125,0.0*
1,1,.2,.216506,.125*
20,1,.2,.216506,.125,.234923,.085505,0.0*
1,1,.2,.234923,.085505*
20,1,.2,.234923,.085505,.246202,.043412,0.0*
1,1,.2,.246202,.043412*
20,1,.2,.246202,.043412,.25,0.0,0.0*
1,1,.2,.25,0.0*
1,1,.2,-.088,-.125*
20,1,.2,-.088,-.125,-.088,.125,0.0*
1,1,.2,-.088,.125*
1,1,.2,.088,.125*
20,1,.2,.088,.125,.088,-.125,0.0*
1,1,.2,.088,-.125*
1,1,.2,.088,0.0*
20,1,.2,.088,0.0,-.088,0.0,0.0*
1,1,.2,-.088,0.0*
%
%ADD14MACRO14*%
%AMMACRO10*
1,1,.2,.5,0.0*
20,1,.2,.5,0.0,-.5,0.0,0.0*
1,1,.2,-.5,0.0*
1,1,.2,0.0,.5*
20,1,.2,0.0,.5,0.0,-.5,0.0*
1,1,.2,0.0,-.5*
1,1,.2,.042,.5*
20,1,.2,.042,.5,.25,0.0,0.0*
1,1,.2,.25,0.0*
20,1,.2,.25,0.0,.458,.5,0.0*
1,1,.2,.458,.5*
%
%ADD10MACRO10*%
%AMMACRO11*
1,1,.2,.5,0.0*
20,1,.2,.5,0.0,.25,.433013,0.0*
1,1,.2,.25,.433013*
20,1,.2,.25,.433013,-.25,.433013,0.0*
1,1,.2,-.25,.433013*
20,1,.2,-.25,.433013,-.5,0.0,0.0*
1,1,.2,-.5,0.0*
20,1,.2,-.5,0.0,-.25,-.433013,0.0*
1,1,.2,-.25,-.433013*
20,1,.2,-.25,-.433013,.25,-.433013,0.0*
1,1,.2,.25,-.433013*
20,1,.2,.25,-.433013,.5,0.0,0.0*
1,1,.2,.5,0.0*
1,1,.2,-.183,-.25*
20,1,.2,-.183,-.25,-.183,.25,0.0*
1,1,.2,-.183,.25*
20,1,.2,-.183,.25,-.017,.25,0.0*
1,1,.2,-.017,.25*
20,1,.2,-.017,.25,.05,.225,0.0*
1,1,.2,.05,.225*
20,1,.2,.05,.225,.1,.192,0.0*
1,1,.2,.1,.192*
20,1,.2,.1,.192,.142,.142,0.0*
1,1,.2,.142,.142*
20,1,.2,.142,.142,.175,.083,0.0*
1,1,.2,.175,.083*
20,1,.2,.175,.083,.183,0.0,0.0*
1,1,.2,.183,0.0*
20,1,.2,.183,0.0,.175,-.083,0.0*
1,1,.2,.175,-.083*
20,1,.2,.175,-.083,.142,-.142,0.0*
1,1,.2,.142,-.142*
20,1,.2,.142,-.142,.1,-.192,0.0*
1,1,.2,.1,-.192*
20,1,.2,.1,-.192,.05,-.225,0.0*
1,1,.2,.05,-.225*
20,1,.2,.05,-.225,-.017,-.25,0.0*
1,1,.2,-.017,-.25*
20,1,.2,-.017,-.25,-.183,-.25,0.0*
1,1,.2,-.183,-.25*
%
%ADD11MACRO11*%
%ADD15C,.2*%
G75*
%LPD*%
G75*
G54D10*
X350000Y350000D03*
X270000Y2350000D03*
Y4350000D03*
X180000Y6540000D03*
X320000Y7670000D03*
X410000Y8300000D03*
X350000Y8850000D03*
X610000Y900000D03*
X570000Y5690000D03*
X760000Y2540000D03*
X920000Y8010000D03*
X911500Y12382500D03*
Y16827500D03*
Y17462500D03*
X1150000Y410000D03*
X1000000Y8750000D03*
X1270000Y5290000D03*
X1280000Y6620000D03*
X1700000Y950000D03*
X1600000Y3130000D03*
X1750000Y8300000D03*
X1770000Y5580000D03*
X2270000Y6450000D03*
Y7790000D03*
X2400000Y390000D03*
X2340000Y3110000D03*
X2330000Y3590000D03*
X2420000Y5200000D03*
X2320000Y7150000D03*
X2490000Y8300000D03*
X2600000Y1920000D03*
X2640000Y2890000D03*
X2660000Y4200000D03*
X2770000Y5810000D03*
Y6060000D03*
X2780000Y6270000D03*
Y6640000D03*
X2610000Y7480000D03*
X3090000Y960000D03*
X2940000Y2660000D03*
X2930000Y3960000D03*
X3020000Y4520000D03*
X2990000Y4800000D03*
X2950000Y5640000D03*
X3020000Y5860000D03*
X2970000Y7510000D03*
X2990000Y8830000D03*
X3170000Y3180000D03*
X3130000Y3580000D03*
X3210000Y4250000D03*
X3330000Y5090000D03*
X3310000Y6410000D03*
X3520000Y1690000D03*
X3510000Y2760000D03*
X3450000Y3030000D03*
X3555000Y3905000D03*
X3540000Y4340000D03*
X3410000Y5540000D03*
X3530000Y5940000D03*
X3500000Y7000000D03*
X3750000Y370000D03*
X3690000Y2800100D03*
X3650000Y3350000D03*
X3630000Y5170000D03*
Y5260000D03*
Y5350000D03*
Y5440000D03*
X3875000Y5555000D03*
X3880000Y7440000D03*
X4020000Y1180000D03*
X4090000Y2330000D03*
X3930000Y3340000D03*
X4060000Y3720000D03*
X3960000Y3870000D03*
X3910000Y4040000D03*
X3970000Y4510000D03*
X4110000Y5480000D03*
X4390000Y3180000D03*
X4280000Y4150000D03*
X4420000Y7000000D03*
X4430000Y5940000D03*
X4480000Y7480000D03*
X4590000Y8830000D03*
X4710000Y1250000D03*
X4760000Y2050000D03*
X4820000Y5330000D03*
X4760000Y7260000D03*
X5170000Y240000D03*
X5210000Y3850000D03*
X5040000Y4330000D03*
X4970000Y6570000D03*
X5000000Y7300000D03*
Y7670000D03*
X5110000Y8050000D03*
X5370000Y1250000D03*
X5260000Y1690000D03*
X5360000Y2270000D03*
X5260000Y2710000D03*
X5360000Y5910000D03*
Y6130000D03*
Y6350000D03*
Y6570000D03*
X5390000Y7110000D03*
X5730000Y780000D03*
X5650000Y4570000D03*
X5540000Y5410000D03*
X5650000Y6610000D03*
X5680000Y6870000D03*
X5660000Y7580000D03*
X5670000Y8020000D03*
X5820000Y4010000D03*
X5930000Y8820000D03*
X6070000Y6740000D03*
X6040000Y7100000D03*
X6330000Y5390000D03*
X6530000Y7330000D03*
X6790000Y5720000D03*
X6660000Y5980000D03*
Y6231000D03*
Y6490000D03*
X6659000Y6739000D03*
X6820000Y7030000D03*
X6980000Y4990000D03*
X7320000Y7740000D03*
X7200000Y8810000D03*
X7620000Y5280000D03*
X7480000Y6380000D03*
X8350000Y350000D03*
Y8850000D03*
G54D11*
X255000Y1693500D03*
Y1947500D03*
Y2764500D03*
Y3018500D03*
X245000Y3643500D03*
Y3897500D03*
Y4714500D03*
Y4968500D03*
X911500Y15557500D03*
Y16192500D03*
X1380000Y2038000D03*
Y2292000D03*
Y2546000D03*
Y2800000D03*
X1370000Y3988000D03*
Y4242000D03*
Y4496000D03*
Y4750000D03*
X1554000Y8000000D03*
X1300000D03*
X1634000Y1912000D03*
Y2166000D03*
Y2420000D03*
Y2674000D03*
X1624000Y3862000D03*
Y4116000D03*
Y4370000D03*
Y4624000D03*
X1808000Y8000000D03*
X2062000D03*
X2770000D03*
X3024000D03*
X3278000D03*
X3532000D03*
X3786000D03*
X4040000D03*
X5920000Y7342000D03*
Y7596000D03*
Y7850000D03*
X6174000Y7342000D03*
Y7596000D03*
Y7850000D03*
G54D12*
X400000Y6919000D03*
X911500Y13652500D03*
Y14922500D03*
X5500000Y530000D03*
Y1000000D03*
Y1530000D03*
Y2000000D03*
Y2530000D03*
Y3000000D03*
Y3530000D03*
Y4000000D03*
X6650000Y530000D03*
Y1530000D03*
Y2530000D03*
Y3530000D03*
X7350000Y530000D03*
Y1530000D03*
Y2530000D03*
Y3530000D03*
X8000000Y2011000D03*
Y2392000D03*
Y2773000D03*
Y3154000D03*
Y3535000D03*
Y3916000D03*
Y4297000D03*
Y5281000D03*
Y5662000D03*
Y6043000D03*
Y6424000D03*
Y6805000D03*
Y7186000D03*
Y7567000D03*
G54D13*
X400000Y7300000D03*
X911500Y13017500D03*
Y14287500D03*
X8000000Y1630000D03*
Y4900000D03*
G54D14*
X745000Y1784500D03*
Y2927500D03*
X735000Y3734500D03*
Y4877500D03*
X911500Y11112500D03*
Y11747500D03*
X1050000Y1581500D03*
Y3130500D03*
X1040000Y3531500D03*
Y5080500D03*
G54D15*
G01X-230000Y10795000D02*
Y19700000D01*
X12365900D01*
Y10795000D01*
X-230000D01*
G01Y11430000D02*
X12365900D01*
G01X-230000Y12065000D02*
X12365900D01*
G01X-230000Y12700000D02*
X12365900D01*
G01X-230000Y13335000D02*
X12365900D01*
G01X-230000Y13970000D02*
X12365900D01*
G01X-230000Y14605000D02*
X12365900D01*
G01X-230000Y15240000D02*
X12365900D01*
G01X-230000Y15875000D02*
X12365900D01*
G01X-230000Y16510000D02*
X12365900D01*
G01X-230000Y17145000D02*
X12365900D01*
G01X-230000Y17780000D02*
X12365900D01*
G01X-230000Y18415000D02*
X12365900D01*
G01X-230000Y19050000D02*
X12365900D01*
G01X80000Y0D02*
X8620000D01*
G03X8700000Y80000I0J80000D01*
G01Y9120000D01*
G03X8620000Y9200000I-80000J0D01*
G01X80000D01*
G03X0Y9120000I0J-80000D01*
G01Y80000D01*
G03X80000Y0I80000J0D01*
G01X49400Y17938800D02*
Y18256300D01*
X199000D01*
G01X143900Y18102800D02*
X49400D01*
G01X391900Y18256300D02*
X486300D01*
G01X439100D02*
Y17938800D01*
G01X391900D02*
X486300D01*
G01X777600Y18097500D02*
X856400D01*
Y18002300D01*
X832700Y17970500D01*
X805200Y17949400D01*
X765800Y17938800D01*
X726400Y17949400D01*
X698900Y17970500D01*
X675300Y18002300D01*
X659500Y18039300D01*
X651600Y18081700D01*
Y18118700D01*
X659500Y18150500D01*
X675300Y18187500D01*
X698900Y18219300D01*
X722500Y18240400D01*
X754000Y18256300D01*
X781600D01*
X813000Y18245700D01*
X836700Y18224500D01*
G01X982300Y18256300D02*
Y18028800D01*
X998000Y17981100D01*
X1029500Y17949400D01*
X1068900Y17938800D01*
X1108300Y17949400D01*
X1139800Y17981100D01*
X1155500Y18028800D01*
Y18256300D01*
G01X1305100Y17938800D02*
Y18256300D01*
X1403500D01*
X1435000Y18240400D01*
X1454700Y18219300D01*
X1462500Y18176900D01*
X1454700Y18134600D01*
X1431000Y18108100D01*
X1403500Y18092300D01*
X1305100D01*
G01X1403500D02*
X1462500Y17938800D01*
G01X1777400D02*
X1620000D01*
Y18256300D01*
X1777400D01*
G01X1714400Y18102800D02*
X1620000D01*
G01X1718400Y18573800D02*
X1816800Y18891300D01*
X1915200Y18573800D01*
G01X1879800Y18684900D02*
X1753800D01*
G01X2053000Y18891300D02*
Y18573800D01*
X2210400D01*
G01X2367900Y18891300D02*
Y18573800D01*
X2525300D01*
G01X2989800Y18891300D02*
Y18663800D01*
X3005500Y18616100D01*
X3037000Y18584400D01*
X3076400Y18573800D01*
X3115800Y18584400D01*
X3147300Y18616100D01*
X3163000Y18663800D01*
Y18891300D01*
G01X3300800Y18573800D02*
Y18891300D01*
X3481800Y18573800D01*
Y18891300D01*
G01X3659000D02*
X3753400D01*
G01X3706200D02*
Y18573800D01*
G01X3659000D02*
X3753400D01*
G01X4021100Y18891300D02*
Y18573800D01*
G01X3930600Y18891300D02*
X4111600D01*
G01X4253300Y18616100D02*
X4284800Y18589700D01*
X4320300Y18573800D01*
X4351700D01*
X4383200Y18589700D01*
X4406900Y18616100D01*
X4418700Y18653200D01*
X4410800Y18690200D01*
X4391100Y18722000D01*
X4355700Y18743100D01*
X4308400Y18753700D01*
X4280900Y18774900D01*
X4269100Y18811900D01*
X4277000Y18849000D01*
X4296600Y18875400D01*
X4324200Y18891300D01*
X4351700D01*
X4379300Y18880700D01*
X4402900Y18854300D01*
G01X4867400Y18573800D02*
X4965800Y18891300D01*
X5064200Y18573800D01*
G01X5028800Y18684900D02*
X4902800D01*
G01X5202000Y18573800D02*
Y18891300D01*
X5300400D01*
X5331900Y18875400D01*
X5351600Y18854300D01*
X5359400Y18811900D01*
X5351600Y18769600D01*
X5327900Y18743100D01*
X5300400Y18727300D01*
X5202000D01*
G01X5300400D02*
X5359400Y18573800D01*
G01X5674300D02*
X5516900D01*
Y18891300D01*
X5674300D01*
G01X5611300Y18737800D02*
X5516900D01*
G01X6178200Y18891300D02*
X6272600D01*
G01X6225400D02*
Y18573800D01*
G01X6178200D02*
X6272600D01*
G01X6449800D02*
Y18891300D01*
X6630800Y18573800D01*
Y18891300D01*
G01X7067700Y18573800D02*
Y18891300D01*
X7170100Y18626700D01*
X7272500Y18891300D01*
Y18573800D01*
G01X7437800Y18891300D02*
X7532200D01*
G01X7485000D02*
Y18573800D01*
G01X7437800D02*
X7532200D01*
G01X7721200Y18891300D02*
Y18573800D01*
X7878600D01*
G01X8036100Y18891300D02*
Y18573800D01*
X8193500D01*
G01X8382500Y18891300D02*
X8476900D01*
G01X8429700D02*
Y18573800D01*
G01X8382500D02*
X8476900D01*
G01X8642200D02*
Y18891300D01*
X8744600Y18626700D01*
X8847000Y18891300D01*
Y18573800D01*
G01X9138200D02*
X8980800D01*
Y18891300D01*
X9138200D01*
G01X9075200Y18737800D02*
X8980800D01*
G01X9374400Y18891300D02*
Y18573800D01*
G01X9283900Y18891300D02*
X9464900D01*
G01X9768000Y18573800D02*
X9610600D01*
Y18891300D01*
X9768000D01*
G01X9705000Y18737800D02*
X9610600D01*
G01X9925500Y18573800D02*
Y18891300D01*
X10023900D01*
X10055400Y18875400D01*
X10075100Y18854300D01*
X10082900Y18811900D01*
X10075100Y18769600D01*
X10051400Y18743100D01*
X10023900Y18727300D01*
X9925500D01*
G01X10023900D02*
X10082900Y18573800D01*
G01X10236400Y18616100D02*
X10267900Y18589700D01*
X10303400Y18573800D01*
X10334800D01*
X10366300Y18589700D01*
X10390000Y18616100D01*
X10401800Y18653200D01*
X10393900Y18690200D01*
X10374200Y18722000D01*
X10338800Y18743100D01*
X10291500Y18753700D01*
X10264000Y18774900D01*
X10252200Y18811900D01*
X10260100Y18849000D01*
X10279700Y18875400D01*
X10307300Y18891300D01*
X10334800D01*
X10362400Y18880700D01*
X10386000Y18854300D01*
G01X2053000Y18415000D02*
Y10795000D01*
G01X2045100Y19223800D02*
Y19541300D01*
X2123800D01*
X2155300Y19525400D01*
X2178900Y19504300D01*
X2198600Y19472500D01*
X2214400Y19435500D01*
X2218300Y19382500D01*
X2214400Y19329600D01*
X2198600Y19292600D01*
X2178900Y19260800D01*
X2155300Y19239700D01*
X2123800Y19223800D01*
X2045100D01*
G01X2367900D02*
Y19541300D01*
X2466300D01*
X2497800Y19525400D01*
X2517500Y19504300D01*
X2525300Y19461900D01*
X2517500Y19419600D01*
X2493800Y19393100D01*
X2466300Y19377300D01*
X2367900D01*
G01X2466300D02*
X2525300Y19223800D01*
G01X2714300Y19541300D02*
X2808700D01*
G01X2761500D02*
Y19223800D01*
G01X2714300D02*
X2808700D01*
G01X2997700Y19541300D02*
Y19223800D01*
X3155100D01*
G01X3312600Y19541300D02*
Y19223800D01*
X3470000D01*
G01X4107700Y19514800D02*
X4084100Y19530700D01*
X4056500Y19541300D01*
X4025000D01*
X3989600Y19525400D01*
X3962100Y19499000D01*
X3942400Y19467200D01*
X3926600Y19414300D01*
X3922700Y19366700D01*
X3930600Y19319000D01*
X3942400Y19287300D01*
X3966000Y19255500D01*
X3993500Y19234400D01*
X4021100Y19223800D01*
X4048700D01*
X4076200Y19234400D01*
X4099800Y19250300D01*
X4119500Y19271400D01*
G01X4253300Y19223800D02*
Y19541300D01*
G01X4418700D02*
Y19223800D01*
G01Y19382500D02*
X4253300D01*
G01X4552500Y19223800D02*
X4650900Y19541300D01*
X4749300Y19223800D01*
G01X4713900Y19334900D02*
X4587900D01*
G01X4887100Y19223800D02*
Y19541300D01*
X4985500D01*
X5017000Y19525400D01*
X5036700Y19504300D01*
X5044500Y19461900D01*
X5036700Y19419600D01*
X5013000Y19393100D01*
X4985500Y19377300D01*
X4887100D01*
G01X4985500D02*
X5044500Y19223800D01*
G01X5280700Y19541300D02*
Y19223800D01*
G01X5190200Y19541300D02*
X5371200D01*
G01X5595600Y19213200D02*
X5587700Y19218500D01*
Y19229100D01*
X5595600Y19234400D01*
X5603500Y19229100D01*
Y19218500D01*
X5595600Y19213200D01*
G01Y19356100D02*
X5587700Y19361400D01*
Y19372000D01*
X5595600Y19377300D01*
X5603500Y19372000D01*
Y19361400D01*
X5595600Y19356100D01*
G01X6225400Y19541300D02*
Y19223800D01*
G01X6134900Y19541300D02*
X6315900D01*
G01X6540300Y19223800D02*
X6508800Y19229100D01*
X6481300Y19250300D01*
X6457600Y19282000D01*
X6441900Y19319000D01*
X6434000Y19361400D01*
Y19403700D01*
X6441900Y19446100D01*
X6457600Y19483100D01*
X6481300Y19514800D01*
X6508800Y19536000D01*
X6540300Y19541300D01*
X6571800Y19536000D01*
X6599300Y19514800D01*
X6623000Y19483100D01*
X6638700Y19446100D01*
X6646600Y19403700D01*
Y19361400D01*
X6638700Y19319000D01*
X6623000Y19282000D01*
X6599300Y19250300D01*
X6571800Y19229100D01*
X6540300Y19223800D01*
G01X6776500D02*
Y19541300D01*
X6870900D01*
X6902400Y19525400D01*
X6926100Y19488400D01*
X6933900Y19446100D01*
X6926100Y19403700D01*
X6906400Y19372000D01*
X6870900Y19356100D01*
X6776500D01*
G01X7485000Y19541300D02*
Y19223800D01*
G01X7429900Y19435500D02*
X7540100D01*
G01X7799900Y19223800D02*
X7776300Y19229100D01*
X7752700Y19250300D01*
X7736900Y19287300D01*
X7729000Y19329600D01*
X7736900Y19372000D01*
X7752700Y19409000D01*
X7776300Y19430200D01*
X7799900Y19435500D01*
X7823500Y19430200D01*
X7847100Y19409000D01*
X7862900Y19372000D01*
X7866800Y19329600D01*
X7862900Y19287300D01*
X7847100Y19250300D01*
X7823500Y19229100D01*
X7799900Y19223800D01*
G01X8461200Y19393100D02*
X8476900Y19409000D01*
X8488700Y19435500D01*
X8496600Y19472500D01*
X8488700Y19504300D01*
X8473000Y19525400D01*
X8445400Y19541300D01*
X8339200D01*
Y19223800D01*
X8469100D01*
X8496600Y19245000D01*
X8512400Y19276700D01*
X8520200Y19313800D01*
X8512400Y19350800D01*
X8488700Y19382500D01*
X8461200Y19393100D01*
X8339200D01*
G01X8744600Y19223800D02*
X8713100Y19229100D01*
X8685600Y19250300D01*
X8661900Y19282000D01*
X8646200Y19319000D01*
X8638300Y19361400D01*
Y19403700D01*
X8646200Y19446100D01*
X8661900Y19483100D01*
X8685600Y19514800D01*
X8713100Y19536000D01*
X8744600Y19541300D01*
X8776100Y19536000D01*
X8803600Y19514800D01*
X8827300Y19483100D01*
X8843000Y19446100D01*
X8850900Y19403700D01*
Y19361400D01*
X8843000Y19319000D01*
X8827300Y19282000D01*
X8803600Y19250300D01*
X8776100Y19229100D01*
X8744600Y19223800D01*
G01X9059500Y19541300D02*
Y19223800D01*
G01X8969000Y19541300D02*
X9150000D01*
G01X9374400D02*
Y19223800D01*
G01X9283900Y19541300D02*
X9464900D01*
G01X9689300Y19223800D02*
X9657800Y19229100D01*
X9630300Y19250300D01*
X9606600Y19282000D01*
X9590900Y19319000D01*
X9583000Y19361400D01*
Y19403700D01*
X9590900Y19446100D01*
X9606600Y19483100D01*
X9630300Y19514800D01*
X9657800Y19536000D01*
X9689300Y19541300D01*
X9720800Y19536000D01*
X9748300Y19514800D01*
X9772000Y19483100D01*
X9787700Y19446100D01*
X9795600Y19403700D01*
Y19361400D01*
X9787700Y19319000D01*
X9772000Y19282000D01*
X9748300Y19250300D01*
X9720800Y19229100D01*
X9689300Y19223800D01*
G01X9901800D02*
Y19541300D01*
X10004200Y19276700D01*
X10106600Y19541300D01*
Y19223800D01*
G01X2647400Y17938800D02*
Y18256300D01*
X2797000D01*
G01X2741900Y18102800D02*
X2647400D01*
G01X2989900Y18256300D02*
X3084300D01*
G01X3037100D02*
Y17938800D01*
G01X2989900D02*
X3084300D01*
G01X3261500D02*
Y18256300D01*
X3442500Y17938800D01*
Y18256300D01*
G01X3619700D02*
X3714100D01*
G01X3666900D02*
Y17938800D01*
G01X3619700D02*
X3714100D01*
G01X3899100Y17981100D02*
X3930600Y17954700D01*
X3966100Y17938800D01*
X3997500D01*
X4029000Y17954700D01*
X4052700Y17981100D01*
X4064500Y18018200D01*
X4056600Y18055200D01*
X4036900Y18087000D01*
X4001500Y18108100D01*
X3954200Y18118700D01*
X3926700Y18139900D01*
X3914900Y18176900D01*
X3922800Y18214000D01*
X3942400Y18240400D01*
X3970000Y18256300D01*
X3997500D01*
X4025100Y18245700D01*
X4048700Y18219300D01*
G01X4214000Y17938800D02*
Y18256300D01*
G01X4379400D02*
Y17938800D01*
G01Y18097500D02*
X4214000D01*
G01X4690300Y17938800D02*
X4532900D01*
Y18256300D01*
X4690300D01*
G01X4627300Y18102800D02*
X4532900D01*
G01X4839900Y17938800D02*
Y18256300D01*
X4918600D01*
X4950100Y18240400D01*
X4973700Y18219300D01*
X4993400Y18187500D01*
X5009200Y18150500D01*
X5013100Y18097500D01*
X5009200Y18044600D01*
X4993400Y18007600D01*
X4973700Y17975800D01*
X4950100Y17954700D01*
X4918600Y17938800D01*
X4839900D01*
G01X5123300Y17833000D02*
X5359500D01*
G01X5473600Y17981100D02*
X5505100Y17954700D01*
X5540600Y17938800D01*
X5572000D01*
X5603500Y17954700D01*
X5627200Y17981100D01*
X5639000Y18018200D01*
X5631100Y18055200D01*
X5611400Y18087000D01*
X5576000Y18108100D01*
X5528700Y18118700D01*
X5501200Y18139900D01*
X5489400Y18176900D01*
X5497300Y18214000D01*
X5516900Y18240400D01*
X5544500Y18256300D01*
X5572000D01*
X5599600Y18245700D01*
X5623200Y18219300D01*
G01X5824000Y18256300D02*
X5918400D01*
G01X5871200D02*
Y17938800D01*
G01X5824000D02*
X5918400D01*
G01X6111300Y18256300D02*
X6260900D01*
X6111300Y17938800D01*
X6260900D01*
G01X6579700D02*
X6422300D01*
Y18256300D01*
X6579700D01*
G01X6516700Y18102800D02*
X6422300D01*
G01X4210100Y11017300D02*
X4233700Y10980300D01*
X4265200Y10959100D01*
X4300600Y10953800D01*
X4332100Y10959100D01*
X4363600Y10985500D01*
X4383300Y11017300D01*
X4387200Y11049000D01*
X4379400Y11086100D01*
X4351800Y11112500D01*
X4324300Y11123100D01*
X4288800D01*
G01X4324300D02*
X4347900Y11139000D01*
X4367600Y11165500D01*
X4375400Y11197200D01*
X4367600Y11229000D01*
X4347900Y11255400D01*
X4312400Y11271300D01*
X4277000Y11266000D01*
X4241600Y11244800D01*
G01X4611600Y10943200D02*
X4603700Y10948500D01*
Y10959100D01*
X4611600Y10964400D01*
X4619500Y10959100D01*
Y10948500D01*
X4611600Y10943200D01*
G01X4851700Y11218400D02*
X4875300Y11250100D01*
X4902900Y11266000D01*
X4934400Y11271300D01*
X4973700Y11260700D01*
X5001300Y11234300D01*
X5009200Y11202500D01*
X5005200Y11170800D01*
X4989500Y11144300D01*
X4910800Y11091400D01*
X4875300Y11054300D01*
X4851700Y11001400D01*
X4843800Y10953800D01*
X5009200D01*
G01X4296700Y11588800D02*
Y11906300D01*
X4249500Y11842800D01*
G01Y11588800D02*
X4343900D01*
G01X4611600Y11578200D02*
X4603700Y11583500D01*
Y11594100D01*
X4611600Y11599400D01*
X4619500Y11594100D01*
Y11583500D01*
X4611600Y11578200D01*
G01X4851700Y11721100D02*
X4879300Y11758100D01*
X4902900Y11779300D01*
X4934400Y11789900D01*
X4961900Y11779300D01*
X4981600Y11758100D01*
X4997400Y11726400D01*
X5001300Y11689300D01*
X4997400Y11657600D01*
X4981600Y11625800D01*
X4958000Y11599400D01*
X4930400Y11588800D01*
X4898900Y11599400D01*
X4871400Y11631100D01*
X4855600Y11678800D01*
X4851700Y11731700D01*
X4859600Y11800500D01*
X4871400Y11837500D01*
X4891100Y11874500D01*
X4918600Y11901000D01*
X4946200Y11906300D01*
X4973700Y11895700D01*
X4993400Y11869300D01*
G01X4210100Y12287300D02*
X4233700Y12250300D01*
X4265200Y12229100D01*
X4300600Y12223800D01*
X4332100Y12229100D01*
X4363600Y12255500D01*
X4383300Y12287300D01*
X4387200Y12319000D01*
X4379400Y12356100D01*
X4351800Y12382500D01*
X4324300Y12393100D01*
X4288800D01*
G01X4324300D02*
X4347900Y12409000D01*
X4367600Y12435500D01*
X4375400Y12467200D01*
X4367600Y12499000D01*
X4347900Y12525400D01*
X4312400Y12541300D01*
X4277000Y12536000D01*
X4241600Y12514800D01*
G01X4611600Y12213200D02*
X4603700Y12218500D01*
Y12229100D01*
X4611600Y12234400D01*
X4619500Y12229100D01*
Y12218500D01*
X4611600Y12213200D01*
G01X4926500Y12541300D02*
X4895000Y12530700D01*
X4871400Y12504300D01*
X4855600Y12472500D01*
X4843800Y12430200D01*
X4839900Y12382500D01*
X4843800Y12334900D01*
X4855600Y12292600D01*
X4871400Y12260800D01*
X4895000Y12234400D01*
X4926500Y12223800D01*
X4958000Y12234400D01*
X4981600Y12260800D01*
X4997400Y12292600D01*
X5009200Y12334900D01*
X5013100Y12382500D01*
X5009200Y12430200D01*
X4997400Y12472500D01*
X4981600Y12504300D01*
X4958000Y12530700D01*
X4926500Y12541300D01*
G01X4296700Y12858800D02*
Y13176300D01*
X4249500Y13112800D01*
G01Y12858800D02*
X4343900D01*
G01X4611600Y12848200D02*
X4603700Y12853500D01*
Y12864100D01*
X4611600Y12869400D01*
X4619500Y12864100D01*
Y12853500D01*
X4611600Y12848200D01*
G01X4851700Y12991100D02*
X4879300Y13028100D01*
X4902900Y13049300D01*
X4934400Y13059900D01*
X4961900Y13049300D01*
X4981600Y13028100D01*
X4997400Y12996400D01*
X5001300Y12959300D01*
X4997400Y12927600D01*
X4981600Y12895800D01*
X4958000Y12869400D01*
X4930400Y12858800D01*
X4898900Y12869400D01*
X4871400Y12901100D01*
X4855600Y12948800D01*
X4851700Y13001700D01*
X4859600Y13070500D01*
X4871400Y13107500D01*
X4891100Y13144500D01*
X4918600Y13171000D01*
X4946200Y13176300D01*
X4973700Y13165700D01*
X4993400Y13139300D01*
G01X4296700Y13493800D02*
Y13811300D01*
X4249500Y13747800D01*
G01Y13493800D02*
X4343900D01*
G01X4611600Y13483200D02*
X4603700Y13488500D01*
Y13499100D01*
X4611600Y13504400D01*
X4619500Y13499100D01*
Y13488500D01*
X4611600Y13483200D01*
G01X4851700Y13626100D02*
X4879300Y13663100D01*
X4902900Y13684300D01*
X4934400Y13694900D01*
X4961900Y13684300D01*
X4981600Y13663100D01*
X4997400Y13631400D01*
X5001300Y13594300D01*
X4997400Y13562600D01*
X4981600Y13530800D01*
X4958000Y13504400D01*
X4930400Y13493800D01*
X4898900Y13504400D01*
X4871400Y13536100D01*
X4855600Y13583800D01*
X4851700Y13636700D01*
X4859600Y13705500D01*
X4871400Y13742500D01*
X4891100Y13779500D01*
X4918600Y13806000D01*
X4946200Y13811300D01*
X4973700Y13800700D01*
X4993400Y13774300D01*
G01X4296700Y14128800D02*
Y14446300D01*
X4249500Y14382800D01*
G01Y14128800D02*
X4343900D01*
G01X4611600Y14118200D02*
X4603700Y14123500D01*
Y14134100D01*
X4611600Y14139400D01*
X4619500Y14134100D01*
Y14123500D01*
X4611600Y14118200D01*
G01X4851700Y14393400D02*
X4875300Y14425100D01*
X4902900Y14441000D01*
X4934400Y14446300D01*
X4973700Y14435700D01*
X5001300Y14409300D01*
X5009200Y14377500D01*
X5005200Y14345800D01*
X4989500Y14319300D01*
X4910800Y14266400D01*
X4875300Y14229300D01*
X4851700Y14176400D01*
X4843800Y14128800D01*
X5009200D01*
G01X4296700Y14763800D02*
Y15081300D01*
X4249500Y15017800D01*
G01Y14763800D02*
X4343900D01*
G01X4611600Y14753200D02*
X4603700Y14758500D01*
Y14769100D01*
X4611600Y14774400D01*
X4619500Y14769100D01*
Y14758500D01*
X4611600Y14753200D01*
G01X4851700Y15028400D02*
X4875300Y15060100D01*
X4902900Y15076000D01*
X4934400Y15081300D01*
X4973700Y15070700D01*
X5001300Y15044300D01*
X5009200Y15012500D01*
X5005200Y14980800D01*
X4989500Y14954300D01*
X4910800Y14901400D01*
X4875300Y14864300D01*
X4851700Y14811400D01*
X4843800Y14763800D01*
X5009200D01*
G01X4296700Y15398800D02*
Y15716300D01*
X4249500Y15652800D01*
G01Y15398800D02*
X4343900D01*
G01X4611600Y15388200D02*
X4603700Y15393500D01*
Y15404100D01*
X4611600Y15409400D01*
X4619500Y15404100D01*
Y15393500D01*
X4611600Y15388200D01*
G01X4926500Y15716300D02*
X4895000Y15705700D01*
X4871400Y15679300D01*
X4855600Y15647500D01*
X4843800Y15605200D01*
X4839900Y15557500D01*
X4843800Y15509900D01*
X4855600Y15467600D01*
X4871400Y15435800D01*
X4895000Y15409400D01*
X4926500Y15398800D01*
X4958000Y15409400D01*
X4981600Y15435800D01*
X4997400Y15467600D01*
X5009200Y15509900D01*
X5013100Y15557500D01*
X5009200Y15605200D01*
X4997400Y15647500D01*
X4981600Y15679300D01*
X4958000Y15705700D01*
X4926500Y15716300D01*
G01X4296700Y16351300D02*
X4265200Y16340700D01*
X4241600Y16314300D01*
X4225800Y16282500D01*
X4214000Y16240200D01*
X4210100Y16192500D01*
X4214000Y16144900D01*
X4225800Y16102600D01*
X4241600Y16070800D01*
X4265200Y16044400D01*
X4296700Y16033800D01*
X4328200Y16044400D01*
X4351800Y16070800D01*
X4367600Y16102600D01*
X4379400Y16144900D01*
X4383300Y16192500D01*
X4379400Y16240200D01*
X4367600Y16282500D01*
X4351800Y16314300D01*
X4328200Y16340700D01*
X4296700Y16351300D01*
G01X4611600Y16023200D02*
X4603700Y16028500D01*
Y16039100D01*
X4611600Y16044400D01*
X4619500Y16039100D01*
Y16028500D01*
X4611600Y16023200D01*
G01X4926500Y16033800D02*
X4954100Y16039100D01*
X4985500Y16055000D01*
X5005200Y16081400D01*
X5013100Y16118500D01*
X5005200Y16155500D01*
X4981600Y16187300D01*
X4946200Y16203100D01*
X4906800D01*
X4883200Y16213700D01*
X4863500Y16240200D01*
X4855600Y16277200D01*
X4867500Y16314300D01*
X4895000Y16340700D01*
X4926500Y16351300D01*
X4958000Y16340700D01*
X4985500Y16314300D01*
X4997400Y16277200D01*
X4989500Y16240200D01*
X4969800Y16213700D01*
X4946200Y16203100D01*
X4906800D01*
X4871400Y16187300D01*
X4847800Y16155500D01*
X4839900Y16118500D01*
X4847800Y16081400D01*
X4867500Y16055000D01*
X4898900Y16039100D01*
X4926500Y16033800D01*
G01X4296700Y16986300D02*
X4265200Y16975700D01*
X4241600Y16949300D01*
X4225800Y16917500D01*
X4214000Y16875200D01*
X4210100Y16827500D01*
X4214000Y16779900D01*
X4225800Y16737600D01*
X4241600Y16705800D01*
X4265200Y16679400D01*
X4296700Y16668800D01*
X4328200Y16679400D01*
X4351800Y16705800D01*
X4367600Y16737600D01*
X4379400Y16779900D01*
X4383300Y16827500D01*
X4379400Y16875200D01*
X4367600Y16917500D01*
X4351800Y16949300D01*
X4328200Y16975700D01*
X4296700Y16986300D01*
G01X4611600Y16658200D02*
X4603700Y16663500D01*
Y16674100D01*
X4611600Y16679400D01*
X4619500Y16674100D01*
Y16663500D01*
X4611600Y16658200D01*
G01X4839900Y16716400D02*
X4863500Y16690000D01*
X4891100Y16674100D01*
X4926500Y16668800D01*
X4961900Y16679400D01*
X4989500Y16700500D01*
X5009200Y16737600D01*
X5013100Y16779900D01*
X5005200Y16822300D01*
X4985500Y16848700D01*
X4958000Y16869900D01*
X4930400Y16875200D01*
X4902900Y16869900D01*
X4867500Y16848700D01*
X4879300Y16986300D01*
X4985500D01*
G01X4296700Y17621300D02*
X4265200Y17610700D01*
X4241600Y17584300D01*
X4225800Y17552500D01*
X4214000Y17510200D01*
X4210100Y17462500D01*
X4214000Y17414900D01*
X4225800Y17372600D01*
X4241600Y17340800D01*
X4265200Y17314400D01*
X4296700Y17303800D01*
X4328200Y17314400D01*
X4351800Y17340800D01*
X4367600Y17372600D01*
X4379400Y17414900D01*
X4383300Y17462500D01*
X4379400Y17510200D01*
X4367600Y17552500D01*
X4351800Y17584300D01*
X4328200Y17610700D01*
X4296700Y17621300D01*
G01X4611600Y17293200D02*
X4603700Y17298500D01*
Y17309100D01*
X4611600Y17314400D01*
X4619500Y17309100D01*
Y17298500D01*
X4611600Y17293200D01*
G01X4839900Y17367300D02*
X4863500Y17330300D01*
X4895000Y17309100D01*
X4930400Y17303800D01*
X4961900Y17309100D01*
X4993400Y17335500D01*
X5013100Y17367300D01*
X5017000Y17399000D01*
X5009200Y17436100D01*
X4981600Y17462500D01*
X4954100Y17473100D01*
X4918600D01*
G01X4954100D02*
X4977700Y17489000D01*
X4997400Y17515500D01*
X5005200Y17547200D01*
X4997400Y17579000D01*
X4977700Y17605400D01*
X4942200Y17621300D01*
X4906800Y17616000D01*
X4871400Y17594800D01*
G01X6498300Y10636300D02*
Y10318800D01*
G01X6407800Y10636300D02*
X6588800D01*
G01X6813200Y10318800D02*
X6781700Y10324100D01*
X6754200Y10345300D01*
X6730500Y10377000D01*
X6714800Y10414000D01*
X6706900Y10456400D01*
Y10498700D01*
X6714800Y10541100D01*
X6730500Y10578100D01*
X6754200Y10609800D01*
X6781700Y10631000D01*
X6813200Y10636300D01*
X6844700Y10631000D01*
X6872200Y10609800D01*
X6895900Y10578100D01*
X6911600Y10541100D01*
X6919500Y10498700D01*
Y10456400D01*
X6911600Y10414000D01*
X6895900Y10377000D01*
X6872200Y10345300D01*
X6844700Y10324100D01*
X6813200Y10318800D01*
G01X7128100Y10636300D02*
Y10318800D01*
G01X7037600Y10636300D02*
X7218600D01*
G01X7344600Y10318800D02*
X7443000Y10636300D01*
X7541400Y10318800D01*
G01X7506000Y10429900D02*
X7380000D01*
G01X7679200Y10636300D02*
Y10318800D01*
X7836600D01*
G01X8305000D02*
Y10636300D01*
G01X8470400D02*
Y10318800D01*
G01Y10477500D02*
X8305000D01*
G01X8702600Y10318800D02*
X8671100Y10324100D01*
X8643600Y10345300D01*
X8619900Y10377000D01*
X8604200Y10414000D01*
X8596300Y10456400D01*
Y10498700D01*
X8604200Y10541100D01*
X8619900Y10578100D01*
X8643600Y10609800D01*
X8671100Y10631000D01*
X8702600Y10636300D01*
X8734100Y10631000D01*
X8761600Y10609800D01*
X8785300Y10578100D01*
X8801000Y10541100D01*
X8808900Y10498700D01*
Y10456400D01*
X8801000Y10414000D01*
X8785300Y10377000D01*
X8761600Y10345300D01*
X8734100Y10324100D01*
X8702600Y10318800D01*
G01X8938800Y10636300D02*
Y10318800D01*
X9096200D01*
G01X9411100D02*
X9253700D01*
Y10636300D01*
X9411100D01*
G01X9348100Y10482800D02*
X9253700D01*
G01X9564600Y10361100D02*
X9596100Y10334700D01*
X9631600Y10318800D01*
X9663000D01*
X9694500Y10334700D01*
X9718200Y10361100D01*
X9730000Y10398200D01*
X9722100Y10435200D01*
X9702400Y10467000D01*
X9667000Y10488100D01*
X9619700Y10498700D01*
X9592200Y10519900D01*
X9580400Y10556900D01*
X9588300Y10594000D01*
X9607900Y10620400D01*
X9635500Y10636300D01*
X9663000D01*
X9690600Y10625700D01*
X9714200Y10599300D01*
G01X9962200Y10308200D02*
X9954300Y10313500D01*
Y10324100D01*
X9962200Y10329400D01*
X9970100Y10324100D01*
Y10313500D01*
X9962200Y10308200D01*
G01Y10451100D02*
X9954300Y10456400D01*
Y10467000D01*
X9962200Y10472300D01*
X9970100Y10467000D01*
Y10456400D01*
X9962200Y10451100D01*
G01X7170100Y18415000D02*
Y10795000D01*
G01X7276300Y10953800D02*
Y11271300D01*
X7457300Y10953800D01*
Y11271300D01*
G01X7681700Y10953800D02*
X7650200Y10959100D01*
X7622700Y10980300D01*
X7599000Y11012000D01*
X7583300Y11049000D01*
X7575400Y11091400D01*
Y11133700D01*
X7583300Y11176100D01*
X7599000Y11213100D01*
X7622700Y11244800D01*
X7650200Y11266000D01*
X7681700Y11271300D01*
X7713200Y11266000D01*
X7740700Y11244800D01*
X7764400Y11213100D01*
X7780100Y11176100D01*
X7788000Y11133700D01*
Y11091400D01*
X7780100Y11049000D01*
X7764400Y11012000D01*
X7740700Y10980300D01*
X7713200Y10959100D01*
X7681700Y10953800D01*
G01X7906100D02*
Y11271300D01*
X8087100Y10953800D01*
Y11271300D01*
G01X8260300Y11059600D02*
X8362700D01*
G01X8547700Y10953800D02*
Y11271300D01*
X8642100D01*
X8673600Y11255400D01*
X8697300Y11218400D01*
X8705100Y11176100D01*
X8697300Y11133700D01*
X8677600Y11102000D01*
X8642100Y11086100D01*
X8547700D01*
G01X8862600Y11271300D02*
Y10953800D01*
X9020000D01*
G01X9157800D02*
X9256200Y11271300D01*
X9354600Y10953800D01*
G01X9319200Y11064900D02*
X9193200D01*
G01X9571100Y11271300D02*
Y10953800D01*
G01X9480600Y11271300D02*
X9661600D01*
G01X9964700Y10953800D02*
X9807300D01*
Y11271300D01*
X9964700D01*
G01X9901700Y11117800D02*
X9807300D01*
G01X10114300Y10953800D02*
Y11271300D01*
X10193000D01*
X10224500Y11255400D01*
X10248100Y11234300D01*
X10267800Y11202500D01*
X10283600Y11165500D01*
X10287500Y11112500D01*
X10283600Y11059600D01*
X10267800Y11022600D01*
X10248100Y10990800D01*
X10224500Y10969700D01*
X10193000Y10953800D01*
X10114300D01*
G01X7276300Y11588800D02*
Y11906300D01*
X7457300Y11588800D01*
Y11906300D01*
G01X7681700Y11588800D02*
X7650200Y11594100D01*
X7622700Y11615300D01*
X7599000Y11647000D01*
X7583300Y11684000D01*
X7575400Y11726400D01*
Y11768700D01*
X7583300Y11811100D01*
X7599000Y11848100D01*
X7622700Y11879800D01*
X7650200Y11901000D01*
X7681700Y11906300D01*
X7713200Y11901000D01*
X7740700Y11879800D01*
X7764400Y11848100D01*
X7780100Y11811100D01*
X7788000Y11768700D01*
Y11726400D01*
X7780100Y11684000D01*
X7764400Y11647000D01*
X7740700Y11615300D01*
X7713200Y11594100D01*
X7681700Y11588800D01*
G01X7906100D02*
Y11906300D01*
X8087100Y11588800D01*
Y11906300D01*
G01X8260300Y11694600D02*
X8362700D01*
G01X8547700Y11588800D02*
Y11906300D01*
X8642100D01*
X8673600Y11890400D01*
X8697300Y11853400D01*
X8705100Y11811100D01*
X8697300Y11768700D01*
X8677600Y11737000D01*
X8642100Y11721100D01*
X8547700D01*
G01X8862600Y11906300D02*
Y11588800D01*
X9020000D01*
G01X9157800D02*
X9256200Y11906300D01*
X9354600Y11588800D01*
G01X9319200Y11699900D02*
X9193200D01*
G01X9571100Y11906300D02*
Y11588800D01*
G01X9480600Y11906300D02*
X9661600D01*
G01X9964700Y11588800D02*
X9807300D01*
Y11906300D01*
X9964700D01*
G01X9901700Y11752800D02*
X9807300D01*
G01X10114300Y11588800D02*
Y11906300D01*
X10193000D01*
X10224500Y11890400D01*
X10248100Y11869300D01*
X10267800Y11837500D01*
X10283600Y11800500D01*
X10287500Y11747500D01*
X10283600Y11694600D01*
X10267800Y11657600D01*
X10248100Y11625800D01*
X10224500Y11604700D01*
X10193000Y11588800D01*
X10114300D01*
G01X7917900Y12223800D02*
Y12541300D01*
X8012300D01*
X8043800Y12525400D01*
X8067500Y12488400D01*
X8075300Y12446100D01*
X8067500Y12403700D01*
X8047800Y12372000D01*
X8012300Y12356100D01*
X7917900D01*
G01X8232800Y12541300D02*
Y12223800D01*
X8390200D01*
G01X8528000D02*
X8626400Y12541300D01*
X8724800Y12223800D01*
G01X8689400Y12334900D02*
X8563400D01*
G01X8941300Y12541300D02*
Y12223800D01*
G01X8850800Y12541300D02*
X9031800D01*
G01X9334900Y12223800D02*
X9177500D01*
Y12541300D01*
X9334900D01*
G01X9271900Y12387800D02*
X9177500D01*
G01X9484500Y12223800D02*
Y12541300D01*
X9563200D01*
X9594700Y12525400D01*
X9618300Y12504300D01*
X9638000Y12472500D01*
X9653800Y12435500D01*
X9657700Y12382500D01*
X9653800Y12329600D01*
X9638000Y12292600D01*
X9618300Y12260800D01*
X9594700Y12239700D01*
X9563200Y12223800D01*
X9484500D01*
G01X7917900Y12858800D02*
Y13176300D01*
X8012300D01*
X8043800Y13160400D01*
X8067500Y13123400D01*
X8075300Y13081100D01*
X8067500Y13038700D01*
X8047800Y13007000D01*
X8012300Y12991100D01*
X7917900D01*
G01X8232800Y13176300D02*
Y12858800D01*
X8390200D01*
G01X8528000D02*
X8626400Y13176300D01*
X8724800Y12858800D01*
G01X8689400Y12969900D02*
X8563400D01*
G01X8941300Y13176300D02*
Y12858800D01*
G01X8850800Y13176300D02*
X9031800D01*
G01X9334900Y12858800D02*
X9177500D01*
Y13176300D01*
X9334900D01*
G01X9271900Y13022800D02*
X9177500D01*
G01X9484500Y12858800D02*
Y13176300D01*
X9563200D01*
X9594700Y13160400D01*
X9618300Y13139300D01*
X9638000Y13107500D01*
X9653800Y13070500D01*
X9657700Y13017500D01*
X9653800Y12964600D01*
X9638000Y12927600D01*
X9618300Y12895800D01*
X9594700Y12874700D01*
X9563200Y12858800D01*
X9484500D01*
G01X7917900Y13493800D02*
Y13811300D01*
X8012300D01*
X8043800Y13795400D01*
X8067500Y13758400D01*
X8075300Y13716100D01*
X8067500Y13673700D01*
X8047800Y13642000D01*
X8012300Y13626100D01*
X7917900D01*
G01X8232800Y13811300D02*
Y13493800D01*
X8390200D01*
G01X8528000D02*
X8626400Y13811300D01*
X8724800Y13493800D01*
G01X8689400Y13604900D02*
X8563400D01*
G01X8941300Y13811300D02*
Y13493800D01*
G01X8850800Y13811300D02*
X9031800D01*
G01X9334900Y13493800D02*
X9177500D01*
Y13811300D01*
X9334900D01*
G01X9271900Y13657800D02*
X9177500D01*
G01X9484500Y13493800D02*
Y13811300D01*
X9563200D01*
X9594700Y13795400D01*
X9618300Y13774300D01*
X9638000Y13742500D01*
X9653800Y13705500D01*
X9657700Y13652500D01*
X9653800Y13599600D01*
X9638000Y13562600D01*
X9618300Y13530800D01*
X9594700Y13509700D01*
X9563200Y13493800D01*
X9484500D01*
G01X7917900Y14128800D02*
Y14446300D01*
X8012300D01*
X8043800Y14430400D01*
X8067500Y14393400D01*
X8075300Y14351100D01*
X8067500Y14308700D01*
X8047800Y14277000D01*
X8012300Y14261100D01*
X7917900D01*
G01X8232800Y14446300D02*
Y14128800D01*
X8390200D01*
G01X8528000D02*
X8626400Y14446300D01*
X8724800Y14128800D01*
G01X8689400Y14239900D02*
X8563400D01*
G01X8941300Y14446300D02*
Y14128800D01*
G01X8850800Y14446300D02*
X9031800D01*
G01X9334900Y14128800D02*
X9177500D01*
Y14446300D01*
X9334900D01*
G01X9271900Y14292800D02*
X9177500D01*
G01X9484500Y14128800D02*
Y14446300D01*
X9563200D01*
X9594700Y14430400D01*
X9618300Y14409300D01*
X9638000Y14377500D01*
X9653800Y14340500D01*
X9657700Y14287500D01*
X9653800Y14234600D01*
X9638000Y14197600D01*
X9618300Y14165800D01*
X9594700Y14144700D01*
X9563200Y14128800D01*
X9484500D01*
G01X7917900Y14763800D02*
Y15081300D01*
X8012300D01*
X8043800Y15065400D01*
X8067500Y15028400D01*
X8075300Y14986100D01*
X8067500Y14943700D01*
X8047800Y14912000D01*
X8012300Y14896100D01*
X7917900D01*
G01X8232800Y15081300D02*
Y14763800D01*
X8390200D01*
G01X8528000D02*
X8626400Y15081300D01*
X8724800Y14763800D01*
G01X8689400Y14874900D02*
X8563400D01*
G01X8941300Y15081300D02*
Y14763800D01*
G01X8850800Y15081300D02*
X9031800D01*
G01X9334900Y14763800D02*
X9177500D01*
Y15081300D01*
X9334900D01*
G01X9271900Y14927800D02*
X9177500D01*
G01X9484500Y14763800D02*
Y15081300D01*
X9563200D01*
X9594700Y15065400D01*
X9618300Y15044300D01*
X9638000Y15012500D01*
X9653800Y14975500D01*
X9657700Y14922500D01*
X9653800Y14869600D01*
X9638000Y14832600D01*
X9618300Y14800800D01*
X9594700Y14779700D01*
X9563200Y14763800D01*
X9484500D01*
G01X7917900Y15398800D02*
Y15716300D01*
X8012300D01*
X8043800Y15700400D01*
X8067500Y15663400D01*
X8075300Y15621100D01*
X8067500Y15578700D01*
X8047800Y15547000D01*
X8012300Y15531100D01*
X7917900D01*
G01X8232800Y15716300D02*
Y15398800D01*
X8390200D01*
G01X8528000D02*
X8626400Y15716300D01*
X8724800Y15398800D01*
G01X8689400Y15509900D02*
X8563400D01*
G01X8941300Y15716300D02*
Y15398800D01*
G01X8850800Y15716300D02*
X9031800D01*
G01X9334900Y15398800D02*
X9177500D01*
Y15716300D01*
X9334900D01*
G01X9271900Y15562800D02*
X9177500D01*
G01X9484500Y15398800D02*
Y15716300D01*
X9563200D01*
X9594700Y15700400D01*
X9618300Y15679300D01*
X9638000Y15647500D01*
X9653800Y15610500D01*
X9657700Y15557500D01*
X9653800Y15504600D01*
X9638000Y15467600D01*
X9618300Y15435800D01*
X9594700Y15414700D01*
X9563200Y15398800D01*
X9484500D01*
G01X7917900Y16033800D02*
Y16351300D01*
X8012300D01*
X8043800Y16335400D01*
X8067500Y16298400D01*
X8075300Y16256100D01*
X8067500Y16213700D01*
X8047800Y16182000D01*
X8012300Y16166100D01*
X7917900D01*
G01X8232800Y16351300D02*
Y16033800D01*
X8390200D01*
G01X8528000D02*
X8626400Y16351300D01*
X8724800Y16033800D01*
G01X8689400Y16144900D02*
X8563400D01*
G01X8941300Y16351300D02*
Y16033800D01*
G01X8850800Y16351300D02*
X9031800D01*
G01X9334900Y16033800D02*
X9177500D01*
Y16351300D01*
X9334900D01*
G01X9271900Y16197800D02*
X9177500D01*
G01X9484500Y16033800D02*
Y16351300D01*
X9563200D01*
X9594700Y16335400D01*
X9618300Y16314300D01*
X9638000Y16282500D01*
X9653800Y16245500D01*
X9657700Y16192500D01*
X9653800Y16139600D01*
X9638000Y16102600D01*
X9618300Y16070800D01*
X9594700Y16049700D01*
X9563200Y16033800D01*
X9484500D01*
G01X7917900Y16668800D02*
Y16986300D01*
X8012300D01*
X8043800Y16970400D01*
X8067500Y16933400D01*
X8075300Y16891100D01*
X8067500Y16848700D01*
X8047800Y16817000D01*
X8012300Y16801100D01*
X7917900D01*
G01X8232800Y16986300D02*
Y16668800D01*
X8390200D01*
G01X8528000D02*
X8626400Y16986300D01*
X8724800Y16668800D01*
G01X8689400Y16779900D02*
X8563400D01*
G01X8941300Y16986300D02*
Y16668800D01*
G01X8850800Y16986300D02*
X9031800D01*
G01X9334900Y16668800D02*
X9177500D01*
Y16986300D01*
X9334900D01*
G01X9271900Y16832800D02*
X9177500D01*
G01X9484500Y16668800D02*
Y16986300D01*
X9563200D01*
X9594700Y16970400D01*
X9618300Y16949300D01*
X9638000Y16917500D01*
X9653800Y16880500D01*
X9657700Y16827500D01*
X9653800Y16774600D01*
X9638000Y16737600D01*
X9618300Y16705800D01*
X9594700Y16684700D01*
X9563200Y16668800D01*
X9484500D01*
G01X7917900Y17303800D02*
Y17621300D01*
X8012300D01*
X8043800Y17605400D01*
X8067500Y17568400D01*
X8075300Y17526100D01*
X8067500Y17483700D01*
X8047800Y17452000D01*
X8012300Y17436100D01*
X7917900D01*
G01X8232800Y17621300D02*
Y17303800D01*
X8390200D01*
G01X8528000D02*
X8626400Y17621300D01*
X8724800Y17303800D01*
G01X8689400Y17414900D02*
X8563400D01*
G01X8941300Y17621300D02*
Y17303800D01*
G01X8850800Y17621300D02*
X9031800D01*
G01X9334900Y17303800D02*
X9177500D01*
Y17621300D01*
X9334900D01*
G01X9271900Y17467800D02*
X9177500D01*
G01X9484500Y17303800D02*
Y17621300D01*
X9563200D01*
X9594700Y17605400D01*
X9618300Y17584300D01*
X9638000Y17552500D01*
X9653800Y17515500D01*
X9657700Y17462500D01*
X9653800Y17409600D01*
X9638000Y17372600D01*
X9618300Y17340800D01*
X9594700Y17319700D01*
X9563200Y17303800D01*
X9484500D01*
G01X7917900Y17938800D02*
Y18256300D01*
X8012300D01*
X8043800Y18240400D01*
X8067500Y18203400D01*
X8075300Y18161100D01*
X8067500Y18118700D01*
X8047800Y18087000D01*
X8012300Y18071100D01*
X7917900D01*
G01X8232800Y18256300D02*
Y17938800D01*
X8390200D01*
G01X8528000D02*
X8626400Y18256300D01*
X8724800Y17938800D01*
G01X8689400Y18049900D02*
X8563400D01*
G01X8941300Y18256300D02*
Y17938800D01*
G01X8850800Y18256300D02*
X9031800D01*
G01X9334900Y17938800D02*
X9177500D01*
Y18256300D01*
X9334900D01*
G01X9271900Y18102800D02*
X9177500D01*
G01X9484500Y17938800D02*
Y18256300D01*
X9563200D01*
X9594700Y18240400D01*
X9618300Y18219300D01*
X9638000Y18187500D01*
X9653800Y18150500D01*
X9657700Y18097500D01*
X9653800Y18044600D01*
X9638000Y18007600D01*
X9618300Y17975800D01*
X9594700Y17954700D01*
X9563200Y17938800D01*
X9484500D01*
G01X10397800Y18415000D02*
Y10795000D01*
G01X10992100Y10583400D02*
X11015700Y10615100D01*
X11043300Y10631000D01*
X11074800Y10636300D01*
X11114100Y10625700D01*
X11141700Y10599300D01*
X11149600Y10567500D01*
X11145600Y10535800D01*
X11129900Y10509300D01*
X11051200Y10456400D01*
X11015700Y10419300D01*
X10992100Y10366400D01*
X10984200Y10318800D01*
X11149600D01*
G01X11381800Y10636300D02*
X11350300Y10625700D01*
X11326700Y10599300D01*
X11310900Y10567500D01*
X11299100Y10525200D01*
X11295200Y10477500D01*
X11299100Y10429900D01*
X11310900Y10387600D01*
X11326700Y10355800D01*
X11350300Y10329400D01*
X11381800Y10318800D01*
X11413300Y10329400D01*
X11436900Y10355800D01*
X11452700Y10387600D01*
X11464500Y10429900D01*
X11468400Y10477500D01*
X11464500Y10525200D01*
X11452700Y10567500D01*
X11436900Y10599300D01*
X11413300Y10625700D01*
X11381800Y10636300D01*
G01X11696700Y10318800D02*
X11724300Y10324100D01*
X11755700Y10340000D01*
X11775400Y10366400D01*
X11783300Y10403500D01*
X11775400Y10440500D01*
X11751800Y10472300D01*
X11716400Y10488100D01*
X11677000D01*
X11653400Y10498700D01*
X11633700Y10525200D01*
X11625800Y10562200D01*
X11637700Y10599300D01*
X11665200Y10625700D01*
X11696700Y10636300D01*
X11728200Y10625700D01*
X11755700Y10599300D01*
X11767600Y10562200D01*
X11759700Y10525200D01*
X11740000Y10498700D01*
X11716400Y10488100D01*
X11677000D01*
X11641600Y10472300D01*
X11618000Y10440500D01*
X11610100Y10403500D01*
X11618000Y10366400D01*
X11637700Y10340000D01*
X11669100Y10324100D01*
X11696700Y10318800D01*
G01X11066900Y17303800D02*
Y17621300D01*
X11019700Y17557800D01*
G01Y17303800D02*
X11114100D01*
G01X11381800D02*
Y17621300D01*
X11334600Y17557800D01*
G01Y17303800D02*
X11429000D01*
G01X11696700D02*
X11724300Y17309100D01*
X11755700Y17325000D01*
X11775400Y17351400D01*
X11783300Y17388500D01*
X11775400Y17425500D01*
X11751800Y17457300D01*
X11716400Y17473100D01*
X11677000D01*
X11653400Y17483700D01*
X11633700Y17510200D01*
X11625800Y17547200D01*
X11637700Y17584300D01*
X11665200Y17610700D01*
X11696700Y17621300D01*
X11728200Y17610700D01*
X11755700Y17584300D01*
X11767600Y17547200D01*
X11759700Y17510200D01*
X11740000Y17483700D01*
X11716400Y17473100D01*
X11677000D01*
X11641600Y17457300D01*
X11618000Y17425500D01*
X11610100Y17388500D01*
X11618000Y17351400D01*
X11637700Y17325000D01*
X11669100Y17309100D01*
X11696700Y17303800D01*
G01X11066900Y17938800D02*
X11035400Y17944100D01*
X11007900Y17965300D01*
X10984200Y17997000D01*
X10968500Y18034000D01*
X10960600Y18076400D01*
Y18118700D01*
X10968500Y18161100D01*
X10984200Y18198100D01*
X11007900Y18229800D01*
X11035400Y18251000D01*
X11066900Y18256300D01*
X11098400Y18251000D01*
X11125900Y18229800D01*
X11149600Y18198100D01*
X11165300Y18161100D01*
X11173200Y18118700D01*
Y18076400D01*
X11165300Y18034000D01*
X11149600Y17997000D01*
X11125900Y17965300D01*
X11098400Y17944100D01*
X11066900Y17938800D01*
G01X11098400Y18023500D02*
X11145600Y17938800D01*
G01X11381800Y18256300D02*
Y17938800D01*
G01X11291300Y18256300D02*
X11472300D01*
G01X11696700Y17938800D02*
Y18081700D01*
X11618000Y18256300D01*
G01X11775400D02*
X11696700Y18081700D01*
G01X11429000Y10953800D02*
Y11271300D01*
X11283400Y11043800D01*
X11480200D01*
G01X11429000Y11588800D02*
Y11906300D01*
X11283400Y11678800D01*
X11480200D01*
G01X11429000Y12223800D02*
Y12541300D01*
X11283400Y12313800D01*
X11480200D01*
G01X11381800Y12858800D02*
Y13176300D01*
X11334600Y13112800D01*
G01Y12858800D02*
X11429000D01*
G01X11381800Y13493800D02*
Y13811300D01*
X11334600Y13747800D01*
G01Y13493800D02*
X11429000D01*
G01X11307000Y14393400D02*
X11330600Y14425100D01*
X11358200Y14441000D01*
X11389700Y14446300D01*
X11429000Y14435700D01*
X11456600Y14409300D01*
X11464500Y14377500D01*
X11460500Y14345800D01*
X11444800Y14319300D01*
X11366100Y14266400D01*
X11330600Y14229300D01*
X11307000Y14176400D01*
X11299100Y14128800D01*
X11464500D01*
G01X11137700Y14827300D02*
X11161300Y14790300D01*
X11192800Y14769100D01*
X11228200Y14763800D01*
X11259700Y14769100D01*
X11291200Y14795500D01*
X11310900Y14827300D01*
X11314800Y14859000D01*
X11307000Y14896100D01*
X11279400Y14922500D01*
X11251900Y14933100D01*
X11216400D01*
G01X11251900D02*
X11275500Y14949000D01*
X11295200Y14975500D01*
X11303000Y15007200D01*
X11295200Y15039000D01*
X11275500Y15065400D01*
X11240000Y15081300D01*
X11204600Y15076000D01*
X11169200Y15054800D01*
G01X11539200Y15081300D02*
X11507700Y15070700D01*
X11484100Y15044300D01*
X11468300Y15012500D01*
X11456500Y14970200D01*
X11452600Y14922500D01*
X11456500Y14874900D01*
X11468300Y14832600D01*
X11484100Y14800800D01*
X11507700Y14774400D01*
X11539200Y14763800D01*
X11570700Y14774400D01*
X11594300Y14800800D01*
X11610100Y14832600D01*
X11621900Y14874900D01*
X11625800Y14922500D01*
X11621900Y14970200D01*
X11610100Y15012500D01*
X11594300Y15044300D01*
X11570700Y15070700D01*
X11539200Y15081300D01*
G01X11224300Y15398800D02*
Y15716300D01*
X11177100Y15652800D01*
G01Y15398800D02*
X11271500D01*
G01X11464400Y15663400D02*
X11488000Y15695100D01*
X11515600Y15711000D01*
X11547100Y15716300D01*
X11586400Y15705700D01*
X11614000Y15679300D01*
X11621900Y15647500D01*
X11617900Y15615800D01*
X11602200Y15589300D01*
X11523500Y15536400D01*
X11488000Y15499300D01*
X11464400Y15446400D01*
X11456500Y15398800D01*
X11621900D01*
G01X11149500Y16298400D02*
X11173100Y16330100D01*
X11200700Y16346000D01*
X11232200Y16351300D01*
X11271500Y16340700D01*
X11299100Y16314300D01*
X11307000Y16282500D01*
X11303000Y16250800D01*
X11287300Y16224300D01*
X11208600Y16171400D01*
X11173100Y16134300D01*
X11149500Y16081400D01*
X11141600Y16033800D01*
X11307000D01*
G01X11539200D02*
X11566800Y16039100D01*
X11598200Y16055000D01*
X11617900Y16081400D01*
X11625800Y16118500D01*
X11617900Y16155500D01*
X11594300Y16187300D01*
X11558900Y16203100D01*
X11519500D01*
X11495900Y16213700D01*
X11476200Y16240200D01*
X11468300Y16277200D01*
X11480200Y16314300D01*
X11507700Y16340700D01*
X11539200Y16351300D01*
X11570700Y16340700D01*
X11598200Y16314300D01*
X11610100Y16277200D01*
X11602200Y16240200D01*
X11582500Y16213700D01*
X11558900Y16203100D01*
X11519500D01*
X11484100Y16187300D01*
X11460500Y16155500D01*
X11452600Y16118500D01*
X11460500Y16081400D01*
X11480200Y16055000D01*
X11511600Y16039100D01*
X11539200Y16033800D01*
G01X11429000Y16668800D02*
Y16986300D01*
X11283400Y16758800D01*
X11480200D01*
M02*
