G04 ================== begin FILE IDENTIFICATION RECORD ==================*
G04 Layout Name:  G:/Work/sh-z-004/design/pcb/io_4di_4do.brd*
G04 Film Name:    SILKSCREEN_TOP*
G04 File Format:  Gerber RS274X*
G04 File Origin:  Cadence Allegro 17.2-S007*
G04 Origin Date:  Sun Nov 18 12:20:19 2018*
G04 *
G04 Layer:  MANUFACTURING/AUTOSILK_TOP*
G04 Layer:  BOARD GEOMETRY/SILKSCREEN_TOP*
G04 Layer:  BOARD GEOMETRY/OUTLINE*
G04 *
G04 Offset:    (0.000 0.000)*
G04 Mirror:    No*
G04 Mode:      Positive*
G04 Rotation:  0*
G04 FullContactRelief:  No*
G04 UndefLineWidth:     0.200*
G04 ================== end FILE IDENTIFICATION RECORD ====================*
%FSLAX25Y25*MOMM*%
%IR0*IPPOS*OFA0.00000B0.00000*MIA0B0*SFA1.00000B1.00000*%
%ADD10C,.2*%
%ADD11C,.3*%
G75*
%LPD*%
G75*
G54D10*
G01X230000Y1470000D02*
X1670000D01*
X1720000Y1520000D01*
Y3190000D01*
X1670000Y3240000D01*
X230000D01*
G01X220000Y3420000D02*
X1660000D01*
X1710000Y3470000D01*
Y5140000D01*
X1660000Y5190000D01*
X220000D01*
G01X280000Y5460000D02*
Y5620000D01*
G01X310000Y5440000D02*
Y5640000D01*
X640000D01*
Y5440000D01*
X310000D01*
G01X260000Y7440000D02*
X540000D01*
Y6780000D01*
X260000D01*
Y7440000D01*
G01X490000Y6050000D02*
Y6320000D01*
X570000D01*
Y6380000D01*
X1040000D01*
Y6320000D01*
X1120000D01*
Y6040000D01*
X1040000D01*
Y5980000D01*
X570000D01*
Y6040000D01*
X500000D01*
X490000Y6050000D01*
G01X450000Y6060000D02*
Y6300000D01*
G01X660000Y7030000D02*
Y6740000D01*
G01X570000Y7510000D02*
X790000D01*
G01X670000Y7640000D02*
Y7380000D01*
G01X880000Y5350000D02*
X720000D01*
G01X900000Y5380000D02*
X700000D01*
Y5710000D01*
X900000D01*
Y5380000D01*
G01X850000Y6270000D02*
Y6090000D01*
X760000Y6180000D01*
X850000Y6270000D01*
G01X750000Y6090000D02*
Y6270000D01*
G01X1110000Y6760000D02*
X870000D01*
G01X1120000Y6800000D02*
X850000D01*
Y6880000D01*
X790000D01*
Y7350000D01*
X850000D01*
Y7430000D01*
X1130000D01*
Y7350000D01*
X1190000D01*
Y6880000D01*
X1130000D01*
Y6810000D01*
X1120000Y6800000D01*
G01X1080000Y7060000D02*
X900000D01*
G01Y7160000D02*
X1080000D01*
X990000Y7070000D01*
X900000Y7160000D01*
G01X1100000Y7850000D02*
X2250000D01*
Y8550000D01*
X1100000D01*
Y7850000D01*
G01X1440000Y6520000D02*
X1660000D01*
Y6110000D01*
X1440000D01*
Y6520000D01*
G01X1450000Y6560000D02*
X1650000D01*
G01Y6690000D02*
X1450000D01*
G01X1700000Y6720000D02*
X1400000D01*
Y7200000D01*
X1700000D01*
Y6720000D01*
G01X1620000Y7630000D02*
Y7430000D01*
X1290000D01*
Y7630000D01*
X1620000D01*
G01X1650000Y7610000D02*
Y7450000D01*
G01X2270000Y3210000D02*
Y3010000D01*
X1940000D01*
Y3210000D01*
X2270000D01*
G01X1910000Y3270000D02*
Y3430000D01*
G01X1940000Y3250000D02*
Y3450000D01*
X2270000D01*
Y3250000D01*
X1940000D01*
G01X2270000Y3690000D02*
Y3490000D01*
X1940000D01*
Y3690000D01*
X2270000D01*
G01X1850000Y6520000D02*
X2070000D01*
Y6110000D01*
X1850000D01*
Y6520000D01*
G01X1860000Y6560000D02*
X2060000D01*
G01X2130000Y7630000D02*
Y7430000D01*
X1800000D01*
Y7630000D01*
X2130000D01*
G01X2080000Y4440000D02*
Y4600000D01*
G01X2110000Y4420000D02*
Y4620000D01*
X2440000D01*
Y4420000D01*
X2110000D01*
G01X2080000Y4640000D02*
Y4800000D01*
G01X2110000Y4620000D02*
Y4820000D01*
X2440000D01*
Y4620000D01*
X2110000D01*
G01X2160000Y7610000D02*
Y7450000D01*
G01X2300000Y3190000D02*
Y3030000D01*
G01Y3670000D02*
Y3510000D01*
G01X2370000Y5730000D02*
Y5890000D01*
G01X2400000Y5710000D02*
Y5910000D01*
X2730000D01*
Y5710000D01*
X2400000D01*
G01X2370000Y5960000D02*
Y6120000D01*
G01X2400000Y5940000D02*
Y6140000D01*
X2730000D01*
Y5940000D01*
X2400000D01*
G01X2730000Y6370000D02*
Y6170000D01*
X2400000D01*
Y6370000D01*
X2730000D01*
G01X2720000Y6740000D02*
Y6540000D01*
X2390000D01*
Y6740000D01*
X2720000D01*
G01Y6940000D02*
Y6740000D01*
X2390000D01*
Y6940000D01*
X2720000D01*
G01X2810000Y2150000D02*
X2650000D01*
G01X2830000Y2180000D02*
X2630000D01*
Y2510000D01*
X2830000D01*
Y2180000D01*
G01X2815000Y3350000D02*
X2735000D01*
G01X2580000Y3860000D02*
Y4060000D01*
X2910000D01*
Y3860000D01*
X2580000D01*
G01X2550000Y3880000D02*
Y4040000D01*
G01X2760000Y6350000D02*
Y6190000D01*
G01X2750000Y6720000D02*
Y6560000D01*
G01Y6920000D02*
Y6760000D01*
G01X2650000Y7870000D02*
X4180000D01*
Y8130000D01*
X2640000D01*
Y7870000D01*
X2650000D01*
G01X3360000Y2490000D02*
X3320000Y2530000D01*
X2900000D01*
Y2140000D01*
X3360000D01*
Y2490000D01*
G01X3210000Y7410000D02*
X3050000D01*
G01X3230000Y7440000D02*
X3030000D01*
Y7770000D01*
X3230000D01*
Y7440000D01*
G01X3410000Y2500000D02*
X3340000Y2570000D01*
G01X3325000Y2785000D02*
Y2690000D01*
G01X3130000Y3605000D02*
X3080000Y3555000D01*
Y3095000D01*
X3130000Y3045000D01*
X3570000D01*
X3620000Y3095000D01*
Y3545000D01*
X3560000Y3605000D01*
X3130000D01*
G01X3260000Y4280000D02*
X3080000D01*
Y4580000D01*
X3260000D01*
Y4280000D01*
G01X3250000Y4240000D02*
X3090000D01*
G01X3490000D02*
X3330000D01*
G01X3510000Y4270000D02*
X3310000D01*
Y4600000D01*
X3510000D01*
Y4270000D01*
G01X3345000Y7140000D02*
X3245000Y7040000D01*
Y5780000D01*
X4605000D01*
Y7140000D01*
X3345000D01*
G01X3330000Y7490000D02*
Y7650000D01*
G01X3430000Y2490000D02*
X3630000D01*
Y2160000D01*
X3430000D01*
Y2490000D01*
G01X3450000Y2520000D02*
X3610000D01*
G01X3375000Y3870000D02*
Y3950000D01*
G01X3360000Y7470000D02*
Y7670000D01*
X3690000D01*
Y7470000D01*
X3360000D01*
G01X4320000Y3080000D02*
Y2880000D01*
X3990000D01*
Y3080000D01*
X4320000D01*
G01X3960000Y3320000D02*
Y3480000D01*
G01X3990000Y3300000D02*
Y3500000D01*
X4320000D01*
Y3300000D01*
X3990000D01*
G01X3960000Y3120000D02*
Y3280000D01*
G01X3990000Y3100000D02*
Y3300000D01*
X4320000D01*
Y3100000D01*
X3990000D01*
G01X3885000Y3300000D02*
X4000000D01*
G01X3960000Y3520000D02*
Y3680000D01*
G01X3990000Y3500000D02*
Y3700000D01*
X4320000D01*
Y3500000D01*
X3990000D01*
G01X4350000Y3060000D02*
Y2900000D01*
G01X4310000D02*
Y3060000D01*
G01X4340000Y2880000D02*
Y3080000D01*
X4670000D01*
Y2880000D01*
X4340000D01*
G01X4260000Y5480000D02*
X4460000D01*
Y5150000D01*
X4260000D01*
Y5480000D01*
G01X4280000Y5510000D02*
X4440000D01*
G01X4560000Y7480000D02*
X4400000D01*
G01X4580000Y7510000D02*
X4380000D01*
Y7840000D01*
X4580000D01*
Y7510000D01*
G01X4590000Y4760000D02*
Y4360000D01*
X4670000Y4280000D01*
X5050000D01*
X5130000Y4360000D01*
Y4460000D01*
X5160000Y4490000D01*
X5540000D01*
X5590000Y4540000D01*
Y4830000D01*
X5650000Y4890000D01*
X5970000D01*
X6020000Y4940000D01*
Y5650000D01*
X5950000Y5720000D01*
X5610000D01*
X5540000Y5650000D01*
Y5210000D01*
X5490000Y5160000D01*
X5160000D01*
X5110000Y5110000D01*
Y4820000D01*
X5050000Y4760000D01*
X4590000D01*
G01X4690000Y5120000D02*
X4530000D01*
G01X4710000Y5150000D02*
X4510000D01*
Y5480000D01*
X4710000D01*
Y5150000D01*
G01X4720000Y5390000D02*
Y5550000D01*
G01X4750000Y5370000D02*
Y5570000D01*
X5080000D01*
Y5370000D01*
X4750000D01*
G01X4820000Y5610000D02*
Y5770000D01*
G01X4850000Y5590000D02*
Y5790000D01*
X5180000D01*
Y5590000D01*
X4850000D01*
G01X4820000Y5830000D02*
Y5990000D01*
G01X4850000Y5810000D02*
Y6010000D01*
X5180000D01*
Y5810000D01*
X4850000D01*
G01X5260000Y7060000D02*
Y6860000D01*
X4930000D01*
Y7060000D01*
X5260000D01*
G01X4900000Y7100000D02*
Y7260000D01*
G01X4930000Y7080000D02*
Y7280000D01*
X5260000D01*
Y7080000D01*
X4930000D01*
G01X5310000Y7570000D02*
X5240000Y7500000D01*
X4850000D01*
Y8080000D01*
X5310000D01*
Y7570000D01*
G01X5340000Y370000D02*
X7510000D01*
Y1160000D01*
X5340000D01*
Y370000D01*
G01Y1370000D02*
X7510000D01*
Y2160000D01*
X5340000D01*
Y1370000D01*
G01Y2370000D02*
X7510000D01*
Y3160000D01*
X5340000D01*
Y2370000D01*
G01Y3370000D02*
X7510000D01*
Y4160000D01*
X5340000D01*
Y3370000D01*
G01X5540000Y6010000D02*
Y5810000D01*
X5210000D01*
Y6010000D01*
X5540000D01*
G01Y6230000D02*
Y6030000D01*
X5210000D01*
Y6230000D01*
X5540000D01*
G01Y6450000D02*
Y6250000D01*
X5210000D01*
Y6450000D01*
X5540000D01*
G01Y6670000D02*
Y6470000D01*
X5210000D01*
Y6670000D01*
X5540000D01*
G01X5290000Y7040000D02*
Y6880000D01*
G01X5570000Y5990000D02*
Y5830000D01*
G01Y6210000D02*
Y6050000D01*
G01Y6430000D02*
Y6270000D01*
G01Y6650000D02*
Y6490000D01*
G01X6410000Y5840000D02*
X6330000Y5760000D01*
X5980000D01*
Y6840000D01*
X6410000D01*
Y5840000D01*
G01X5850000Y7970000D02*
X5800000Y7920000D01*
Y7230000D01*
X6290000D01*
Y7970000D01*
X5850000D01*
G01X6600000Y7530000D02*
X6440000D01*
G01X6620000Y7560000D02*
X6420000D01*
Y7890000D01*
X6620000D01*
Y7560000D01*
G01X6970000Y8520000D02*
X7190000D01*
Y8110000D01*
X6970000D01*
Y8520000D01*
G01X6980000Y8560000D02*
X7180000D01*
G01X8140000Y1490000D02*
Y4440000D01*
X7860000D01*
Y1490000D01*
X8140000D01*
G01Y4760000D02*
Y7710000D01*
X7860000D01*
Y4760000D01*
X8140000D01*
G01X80000Y0D02*
X8620000D01*
G03X8700000Y80000I0J80000D01*
G01Y9120000D01*
G03X8620000Y9200000I-80000J0D01*
G01X80000D01*
G03X0Y9120000I0J-80000D01*
G01Y80000D01*
G03X80000Y0I80000J0D01*
G01X206100Y5730000D02*
Y5857000D01*
X246300D01*
X259200Y5850600D01*
X267200Y5842200D01*
X270400Y5825200D01*
X267200Y5808300D01*
X257600Y5797700D01*
X246300Y5791400D01*
X206100D01*
G01X246300D02*
X270400Y5730000D01*
G01X367700D02*
Y5857000D01*
X348400Y5831600D01*
G01Y5730000D02*
X387000D01*
G01X494000D02*
X497200Y5757500D01*
X502100Y5780800D01*
X508500Y5802000D01*
X516600Y5825200D01*
X529400Y5857000D01*
X465100D01*
G01X286100Y7515400D02*
X294100Y7502700D01*
X303800Y7494200D01*
X315000Y7490000D01*
X327900Y7494200D01*
X337600Y7502700D01*
X347200Y7515400D01*
X350400Y7532300D01*
Y7617000D01*
G01X412400Y7515400D02*
X422000Y7500600D01*
X434900Y7492100D01*
X449400Y7490000D01*
X462200Y7492100D01*
X475100Y7502700D01*
X483100Y7515400D01*
X484700Y7528100D01*
X481500Y7542900D01*
X470300Y7553500D01*
X459000Y7557700D01*
X444500D01*
G01X459000D02*
X468700Y7564100D01*
X476700Y7574700D01*
X479900Y7587400D01*
X476700Y7600100D01*
X468700Y7610600D01*
X454200Y7617000D01*
X439700Y7614900D01*
X425200Y7606400D01*
G01X492900Y6440000D02*
Y6567000D01*
X525000D01*
X537900Y6560600D01*
X547600Y6552200D01*
X555600Y6539500D01*
X562000Y6524700D01*
X563600Y6503500D01*
X562000Y6482300D01*
X555600Y6467500D01*
X547600Y6454800D01*
X537900Y6446300D01*
X525000Y6440000D01*
X492900D01*
G01X627200Y6545800D02*
X636800Y6558500D01*
X648100Y6564900D01*
X661000Y6567000D01*
X677100Y6562800D01*
X688300Y6552200D01*
X691500Y6539500D01*
X689900Y6526800D01*
X683500Y6516200D01*
X651300Y6495000D01*
X636800Y6480200D01*
X627200Y6459000D01*
X624000Y6440000D01*
X691500D01*
G01X852900Y7530000D02*
Y7657000D01*
X885000D01*
X897900Y7650600D01*
X907600Y7642200D01*
X915600Y7629500D01*
X922000Y7614700D01*
X923600Y7593500D01*
X922000Y7572300D01*
X915600Y7557500D01*
X907600Y7544800D01*
X897900Y7536300D01*
X885000Y7530000D01*
X852900D01*
G01X1017700D02*
Y7657000D01*
X998400Y7631600D01*
G01Y7530000D02*
X1037000D01*
G01X752900Y8277000D02*
Y8186000D01*
X759300Y8166900D01*
X772200Y8154200D01*
X788200Y8150000D01*
X804300Y8154200D01*
X817200Y8166900D01*
X823600Y8186000D01*
Y8277000D01*
G01X882400Y8175400D02*
X892000Y8160600D01*
X904900Y8152100D01*
X919400Y8150000D01*
X932200Y8152100D01*
X945100Y8162700D01*
X953100Y8175400D01*
X954700Y8188100D01*
X951500Y8202900D01*
X940300Y8213500D01*
X929000Y8217700D01*
X914500D01*
G01X929000D02*
X938700Y8224100D01*
X946700Y8234700D01*
X949900Y8247400D01*
X946700Y8260100D01*
X938700Y8270600D01*
X924200Y8277000D01*
X909700Y8274900D01*
X895200Y8266400D01*
G01X1026100Y5490000D02*
Y5617000D01*
X1066300D01*
X1079200Y5610600D01*
X1087200Y5602200D01*
X1090400Y5585200D01*
X1087200Y5568300D01*
X1077600Y5557700D01*
X1066300Y5551400D01*
X1026100D01*
G01X1066300D02*
X1090400Y5490000D01*
G01X1187700D02*
Y5617000D01*
X1168400Y5591600D01*
G01Y5490000D02*
X1207000D01*
G01X1286700Y5542900D02*
X1297900Y5557700D01*
X1307600Y5566200D01*
X1320500Y5570400D01*
X1331700Y5566200D01*
X1339800Y5557700D01*
X1346200Y5545000D01*
X1347800Y5530200D01*
X1346200Y5517500D01*
X1339800Y5504800D01*
X1330100Y5494200D01*
X1318900Y5490000D01*
X1306000Y5494200D01*
X1294700Y5506900D01*
X1288300Y5526000D01*
X1286700Y5547100D01*
X1289900Y5574700D01*
X1294700Y5589500D01*
X1302800Y5604300D01*
X1314000Y5614900D01*
X1325300Y5617000D01*
X1336600Y5612800D01*
X1344600Y5602200D01*
G01X1367700Y5880000D02*
Y6007000D01*
X1428800D01*
G01X1406300Y5945600D02*
X1367700D01*
G01X1527700Y5880000D02*
Y6007000D01*
X1508400Y5981600D01*
G01Y5880000D02*
X1547000D01*
G01X1323600Y7786400D02*
X1314000Y7792800D01*
X1302700Y7797000D01*
X1289900D01*
X1275400Y7790600D01*
X1264100Y7780100D01*
X1256100Y7767400D01*
X1249600Y7746200D01*
X1248000Y7727100D01*
X1251300Y7708100D01*
X1256100Y7695400D01*
X1265700Y7682700D01*
X1277000Y7674200D01*
X1288200Y7670000D01*
X1299500D01*
X1310800Y7674200D01*
X1320400Y7680600D01*
X1328500Y7689000D01*
G01X1387200Y7775800D02*
X1396800Y7788500D01*
X1408100Y7794900D01*
X1421000Y7797000D01*
X1437100Y7792800D01*
X1448300Y7782200D01*
X1451500Y7769500D01*
X1449900Y7756800D01*
X1443500Y7746200D01*
X1411300Y7725000D01*
X1396800Y7710200D01*
X1387200Y7689000D01*
X1384000Y7670000D01*
X1451500D01*
G01X1547200Y7797000D02*
X1534400Y7792800D01*
X1524700Y7782200D01*
X1518300Y7769500D01*
X1513500Y7752500D01*
X1511900Y7733500D01*
X1513500Y7714400D01*
X1518300Y7697500D01*
X1524700Y7684800D01*
X1534400Y7674200D01*
X1547200Y7670000D01*
X1560100Y7674200D01*
X1569800Y7684800D01*
X1576200Y7697500D01*
X1581000Y7714400D01*
X1582600Y7733500D01*
X1581000Y7752500D01*
X1576200Y7769500D01*
X1569800Y7782200D01*
X1560100Y7792800D01*
X1547200Y7797000D01*
G01X1803600Y6016400D02*
X1794000Y6022800D01*
X1782700Y6027000D01*
X1769900D01*
X1755400Y6020600D01*
X1744100Y6010100D01*
X1736100Y5997400D01*
X1729600Y5976200D01*
X1728000Y5957100D01*
X1731300Y5938100D01*
X1736100Y5925400D01*
X1745700Y5912700D01*
X1757000Y5904200D01*
X1768200Y5900000D01*
X1779500D01*
X1790800Y5904200D01*
X1800400Y5910600D01*
X1808500Y5919000D01*
G01X1897700Y5900000D02*
Y6027000D01*
X1878400Y6001600D01*
G01Y5900000D02*
X1917000D01*
G01X1999900Y5914800D02*
X2011200Y5904200D01*
X2024000Y5900000D01*
X2036900Y5904200D01*
X2048200Y5916900D01*
X2056200Y5936000D01*
X2059400Y5955000D01*
Y5978300D01*
X2056200Y5997400D01*
X2048200Y6014300D01*
X2038500Y6022800D01*
X2027200Y6027000D01*
X2014400Y6022800D01*
X2004700Y6014300D01*
X1998300Y6001600D01*
X1995100Y5984700D01*
X1998300Y5969900D01*
X2006300Y5955000D01*
X2016000Y5946600D01*
X2027200Y5944400D01*
X2040100Y5948700D01*
X2049800Y5959300D01*
X2059400Y5978300D01*
G01X1866100Y2525400D02*
X1874100Y2512700D01*
X1883800Y2504200D01*
X1895000Y2500000D01*
X1907900Y2504200D01*
X1917600Y2512700D01*
X1927200Y2525400D01*
X1930400Y2542300D01*
Y2627000D01*
G01X1997200Y2605800D02*
X2006800Y2618500D01*
X2018100Y2624900D01*
X2031000Y2627000D01*
X2047100Y2622800D01*
X2058300Y2612200D01*
X2061500Y2599500D01*
X2059900Y2586800D01*
X2053500Y2576200D01*
X2021300Y2555000D01*
X2006800Y2540200D01*
X1997200Y2519000D01*
X1994000Y2500000D01*
X2061500D01*
G01X1796100Y4075400D02*
X1804100Y4062700D01*
X1813800Y4054200D01*
X1825000Y4050000D01*
X1837900Y4054200D01*
X1847600Y4062700D01*
X1857200Y4075400D01*
X1860400Y4092300D01*
Y4177000D01*
G01X1957700Y4050000D02*
Y4177000D01*
X1938400Y4151600D01*
G01Y4050000D02*
X1977000D01*
G01X1806100Y7207000D02*
Y7080000D01*
X1870400D01*
G01X1932400Y7105400D02*
X1942000Y7090600D01*
X1954900Y7082100D01*
X1969400Y7080000D01*
X1982200Y7082100D01*
X1995100Y7092700D01*
X2003100Y7105400D01*
X2004700Y7118100D01*
X2001500Y7132900D01*
X1990300Y7143500D01*
X1979000Y7147700D01*
X1964500D01*
G01X1979000D02*
X1988700Y7154100D01*
X1996700Y7164700D01*
X1999900Y7177400D01*
X1996700Y7190100D01*
X1988700Y7200600D01*
X1974200Y7207000D01*
X1959700Y7204900D01*
X1945200Y7196400D01*
G01X1913600Y7786400D02*
X1904000Y7792800D01*
X1892700Y7797000D01*
X1879900D01*
X1865400Y7790600D01*
X1854100Y7780100D01*
X1846100Y7767400D01*
X1839600Y7746200D01*
X1838000Y7727100D01*
X1841300Y7708100D01*
X1846100Y7695400D01*
X1855700Y7682700D01*
X1867000Y7674200D01*
X1878200Y7670000D01*
X1889500D01*
X1900800Y7674200D01*
X1910400Y7680600D01*
X1918500Y7689000D01*
G01X1977200Y7775800D02*
X1986800Y7788500D01*
X1998100Y7794900D01*
X2011000Y7797000D01*
X2027100Y7792800D01*
X2038300Y7782200D01*
X2041500Y7769500D01*
X2039900Y7756800D01*
X2033500Y7746200D01*
X2001300Y7725000D01*
X1986800Y7710200D01*
X1977200Y7689000D01*
X1974000Y7670000D01*
X2041500D01*
G01X2137200D02*
Y7797000D01*
X2117900Y7771600D01*
G01Y7670000D02*
X2156500D01*
G01X2134500Y1316900D02*
X2147300Y1306300D01*
X2161800Y1300000D01*
X2174700D01*
X2187600Y1306300D01*
X2197200Y1316900D01*
X2202000Y1331800D01*
X2198800Y1346600D01*
X2190800Y1359300D01*
X2176300Y1367700D01*
X2157000Y1372000D01*
X2145700Y1380400D01*
X2140900Y1395200D01*
X2144100Y1410100D01*
X2152200Y1420600D01*
X2163400Y1427000D01*
X2174700D01*
X2185900Y1422800D01*
X2195600Y1412200D01*
G01X2264000Y1300000D02*
Y1427000D01*
G01X2331500D02*
Y1300000D01*
G01Y1363500D02*
X2264000D01*
G01X2406300Y1342300D02*
X2448200D01*
G01X2526200Y1427000D02*
X2587300D01*
X2526200Y1300000D01*
X2587300D01*
G01X2665300Y1342300D02*
X2707200D01*
G01X2815700Y1427000D02*
X2802900Y1422800D01*
X2793200Y1412200D01*
X2786800Y1399500D01*
X2782000Y1382500D01*
X2780400Y1363500D01*
X2782000Y1344400D01*
X2786800Y1327500D01*
X2793200Y1314800D01*
X2802900Y1304200D01*
X2815700Y1300000D01*
X2828600Y1304200D01*
X2838300Y1314800D01*
X2844700Y1327500D01*
X2849500Y1344400D01*
X2851100Y1363500D01*
X2849500Y1382500D01*
X2844700Y1399500D01*
X2838300Y1412200D01*
X2828600Y1422800D01*
X2815700Y1427000D01*
G01X2945200D02*
X2932400Y1422800D01*
X2922700Y1412200D01*
X2916300Y1399500D01*
X2911500Y1382500D01*
X2909900Y1363500D01*
X2911500Y1344400D01*
X2916300Y1327500D01*
X2922700Y1314800D01*
X2932400Y1304200D01*
X2945200Y1300000D01*
X2958100Y1304200D01*
X2967800Y1314800D01*
X2974200Y1327500D01*
X2979000Y1344400D01*
X2980600Y1363500D01*
X2979000Y1382500D01*
X2974200Y1399500D01*
X2967800Y1412200D01*
X2958100Y1422800D01*
X2945200Y1427000D01*
G01X3094100Y1300000D02*
Y1427000D01*
X3034500Y1336000D01*
X3115000D01*
G01X2273600Y2246400D02*
X2264000Y2252800D01*
X2252700Y2257000D01*
X2239900D01*
X2225400Y2250600D01*
X2214100Y2240100D01*
X2206100Y2227400D01*
X2199600Y2206200D01*
X2198000Y2187100D01*
X2201300Y2168100D01*
X2206100Y2155400D01*
X2215700Y2142700D01*
X2227000Y2134200D01*
X2238200Y2130000D01*
X2249500D01*
X2260800Y2134200D01*
X2270400Y2140600D01*
X2278500Y2149000D01*
G01X2367700Y2130000D02*
Y2257000D01*
X2348400Y2231600D01*
G01Y2130000D02*
X2387000D01*
G01X2466700Y2182900D02*
X2477900Y2197700D01*
X2487600Y2206200D01*
X2500500Y2210400D01*
X2511700Y2206200D01*
X2519800Y2197700D01*
X2526200Y2185000D01*
X2527800Y2170200D01*
X2526200Y2157500D01*
X2519800Y2144800D01*
X2510100Y2134200D01*
X2498900Y2130000D01*
X2486000Y2134200D01*
X2474700Y2146900D01*
X2468300Y2166000D01*
X2466700Y2187100D01*
X2469900Y2214700D01*
X2474700Y2229500D01*
X2482800Y2244300D01*
X2494000Y2254900D01*
X2505300Y2257000D01*
X2516600Y2252800D01*
X2524600Y2242200D01*
G01X2193600Y4016400D02*
X2184000Y4022800D01*
X2172700Y4027000D01*
X2159900D01*
X2145400Y4020600D01*
X2134100Y4010100D01*
X2126100Y3997400D01*
X2119600Y3976200D01*
X2118000Y3957100D01*
X2121300Y3938100D01*
X2126100Y3925400D01*
X2135700Y3912700D01*
X2147000Y3904200D01*
X2158200Y3900000D01*
X2169500D01*
X2180800Y3904200D01*
X2190400Y3910600D01*
X2198500Y3919000D01*
G01X2287700Y3900000D02*
Y4027000D01*
X2268400Y4001600D01*
G01Y3900000D02*
X2307000D01*
G01X2417200Y4027000D02*
X2404400Y4022800D01*
X2394700Y4012200D01*
X2388300Y3999500D01*
X2383500Y3982500D01*
X2381900Y3963500D01*
X2383500Y3944400D01*
X2388300Y3927500D01*
X2394700Y3914800D01*
X2404400Y3904200D01*
X2417200Y3900000D01*
X2430100Y3904200D01*
X2439800Y3914800D01*
X2446200Y3927500D01*
X2451000Y3944400D01*
X2452600Y3963500D01*
X2451000Y3982500D01*
X2446200Y3999500D01*
X2439800Y4012200D01*
X2430100Y4022800D01*
X2417200Y4027000D01*
G01X2126100Y4900000D02*
Y5027000D01*
X2166300D01*
X2179200Y5020600D01*
X2187200Y5012200D01*
X2190400Y4995200D01*
X2187200Y4978300D01*
X2177600Y4967700D01*
X2166300Y4961400D01*
X2126100D01*
G01X2166300D02*
X2190400Y4900000D01*
G01X2257200Y5005800D02*
X2266800Y5018500D01*
X2278100Y5024900D01*
X2291000Y5027000D01*
X2307100Y5022800D01*
X2318300Y5012200D01*
X2321500Y4999500D01*
X2319900Y4986800D01*
X2313500Y4976200D01*
X2281300Y4955000D01*
X2266800Y4940200D01*
X2257200Y4919000D01*
X2254000Y4900000D01*
X2321500D01*
G01X2417200D02*
Y5027000D01*
X2397900Y5001600D01*
G01Y4900000D02*
X2436500D01*
G01X2173600Y5953600D02*
X2167200Y5944000D01*
X2163000Y5932700D01*
Y5919900D01*
X2169400Y5905400D01*
X2179900Y5894100D01*
X2192600Y5886100D01*
X2213800Y5879600D01*
X2232900Y5878000D01*
X2251900Y5881300D01*
X2264600Y5886100D01*
X2277300Y5895700D01*
X2285800Y5907000D01*
X2290000Y5918200D01*
Y5929500D01*
X2285800Y5940800D01*
X2279400Y5950400D01*
X2271000Y5958500D01*
G01X2264600Y6012400D02*
X2279400Y6022000D01*
X2287900Y6034900D01*
X2290000Y6049400D01*
X2287900Y6062200D01*
X2277300Y6075100D01*
X2264600Y6083100D01*
X2251900Y6084700D01*
X2237100Y6081500D01*
X2226500Y6070300D01*
X2222300Y6059000D01*
Y6044500D01*
G01Y6059000D02*
X2215900Y6068700D01*
X2205300Y6076700D01*
X2192600Y6079900D01*
X2179900Y6076700D01*
X2169400Y6068700D01*
X2163000Y6054200D01*
X2165100Y6039700D01*
X2173600Y6025200D01*
G01X2290000Y6177200D02*
X2287900Y6188500D01*
X2281500Y6201400D01*
X2271000Y6209400D01*
X2256100Y6212600D01*
X2241300Y6209400D01*
X2228600Y6199800D01*
X2222300Y6185300D01*
Y6169200D01*
X2218000Y6159600D01*
X2207500Y6151500D01*
X2192600Y6148300D01*
X2177800Y6153100D01*
X2167200Y6164400D01*
X2163000Y6177200D01*
X2167200Y6190100D01*
X2177800Y6201400D01*
X2192600Y6206200D01*
X2207500Y6203000D01*
X2218000Y6194900D01*
X2222300Y6185300D01*
Y6169200D01*
X2228600Y6154700D01*
X2241300Y6145100D01*
X2256100Y6141900D01*
X2271000Y6145100D01*
X2281500Y6153100D01*
X2287900Y6166000D01*
X2290000Y6177200D01*
G01X2163600Y6573600D02*
X2157200Y6564000D01*
X2153000Y6552700D01*
Y6539900D01*
X2159400Y6525400D01*
X2169900Y6514100D01*
X2182600Y6506100D01*
X2203800Y6499600D01*
X2222900Y6498000D01*
X2241900Y6501300D01*
X2254600Y6506100D01*
X2267300Y6515700D01*
X2275800Y6527000D01*
X2280000Y6538200D01*
Y6549500D01*
X2275800Y6560800D01*
X2269400Y6570400D01*
X2261000Y6578500D01*
G01X2254600Y6632400D02*
X2269400Y6642000D01*
X2277900Y6654900D01*
X2280000Y6669400D01*
X2277900Y6682200D01*
X2267300Y6695100D01*
X2254600Y6703100D01*
X2241900Y6704700D01*
X2227100Y6701500D01*
X2216500Y6690300D01*
X2212300Y6679000D01*
Y6664500D01*
G01Y6679000D02*
X2205900Y6688700D01*
X2195300Y6696700D01*
X2182600Y6699900D01*
X2169900Y6696700D01*
X2159400Y6688700D01*
X2153000Y6674200D01*
X2155100Y6659700D01*
X2163600Y6645200D01*
G01X2153000Y6797200D02*
X2157200Y6784400D01*
X2167800Y6774700D01*
X2180500Y6768300D01*
X2197500Y6763500D01*
X2216500Y6761900D01*
X2235600Y6763500D01*
X2252500Y6768300D01*
X2265200Y6774700D01*
X2275800Y6784400D01*
X2280000Y6797200D01*
X2275800Y6810100D01*
X2265200Y6819800D01*
X2252500Y6826200D01*
X2235600Y6831000D01*
X2216500Y6832600D01*
X2197500Y6831000D01*
X2180500Y6826200D01*
X2167800Y6819800D01*
X2157200Y6810100D01*
X2153000Y6797200D01*
G01X2513600Y3166400D02*
X2504000Y3172800D01*
X2492700Y3177000D01*
X2479900D01*
X2465400Y3170600D01*
X2454100Y3160100D01*
X2446100Y3147400D01*
X2439600Y3126200D01*
X2438000Y3107100D01*
X2441300Y3088100D01*
X2446100Y3075400D01*
X2455700Y3062700D01*
X2467000Y3054200D01*
X2478200Y3050000D01*
X2489500D01*
X2500800Y3054200D01*
X2510400Y3060600D01*
X2518500Y3069000D01*
G01X2627100Y3050000D02*
Y3177000D01*
X2567500Y3086000D01*
X2648000D01*
G01X2356100Y3280000D02*
Y3407000D01*
X2396300D01*
X2409200Y3400600D01*
X2417200Y3392200D01*
X2420400Y3375200D01*
X2417200Y3358300D01*
X2407600Y3347700D01*
X2396300Y3341400D01*
X2356100D01*
G01X2396300D02*
X2420400Y3280000D01*
G01X2517700D02*
X2529000Y3282100D01*
X2541900Y3288500D01*
X2549900Y3299000D01*
X2553100Y3313900D01*
X2549900Y3328700D01*
X2540300Y3341400D01*
X2525800Y3347700D01*
X2509700D01*
X2500100Y3352000D01*
X2492000Y3362500D01*
X2488800Y3377400D01*
X2493600Y3392200D01*
X2504900Y3402800D01*
X2517700Y3407000D01*
X2530600Y3402800D01*
X2541900Y3392200D01*
X2546700Y3377400D01*
X2543500Y3362500D01*
X2535400Y3352000D01*
X2525800Y3347700D01*
X2509700D01*
X2495200Y3341400D01*
X2485600Y3328700D01*
X2482400Y3313900D01*
X2485600Y3299000D01*
X2493600Y3288500D01*
X2506500Y3282100D01*
X2517700Y3280000D01*
G01X2523600Y3666400D02*
X2514000Y3672800D01*
X2502700Y3677000D01*
X2489900D01*
X2475400Y3670600D01*
X2464100Y3660100D01*
X2456100Y3647400D01*
X2449600Y3626200D01*
X2448000Y3607100D01*
X2451300Y3588100D01*
X2456100Y3575400D01*
X2465700Y3562700D01*
X2477000Y3554200D01*
X2488200Y3550000D01*
X2499500D01*
X2510800Y3554200D01*
X2520400Y3560600D01*
X2528500Y3569000D01*
G01X2587200Y3602900D02*
X2598400Y3617700D01*
X2608100Y3626200D01*
X2621000Y3630400D01*
X2632200Y3626200D01*
X2640300Y3617700D01*
X2646700Y3605000D01*
X2648300Y3590200D01*
X2646700Y3577500D01*
X2640300Y3564800D01*
X2630600Y3554200D01*
X2619400Y3550000D01*
X2606500Y3554200D01*
X2595200Y3566900D01*
X2588800Y3586000D01*
X2587200Y3607100D01*
X2590400Y3634700D01*
X2595200Y3649500D01*
X2603300Y3664300D01*
X2614500Y3674900D01*
X2625800Y3677000D01*
X2637100Y3672800D01*
X2645100Y3662200D01*
G01X2496100Y4450000D02*
Y4577000D01*
X2536300D01*
X2549200Y4570600D01*
X2557200Y4562200D01*
X2560400Y4545200D01*
X2557200Y4528300D01*
X2547600Y4517700D01*
X2536300Y4511400D01*
X2496100D01*
G01X2536300D02*
X2560400Y4450000D01*
G01X2627200Y4555800D02*
X2636800Y4568500D01*
X2648100Y4574900D01*
X2661000Y4577000D01*
X2677100Y4572800D01*
X2688300Y4562200D01*
X2691500Y4549500D01*
X2689900Y4536800D01*
X2683500Y4526200D01*
X2651300Y4505000D01*
X2636800Y4490200D01*
X2627200Y4469000D01*
X2624000Y4450000D01*
X2691500D01*
G01X2756700Y4555800D02*
X2766300Y4568500D01*
X2777600Y4574900D01*
X2790500Y4577000D01*
X2806600Y4572800D01*
X2817800Y4562200D01*
X2821000Y4549500D01*
X2819400Y4536800D01*
X2813000Y4526200D01*
X2780800Y4505000D01*
X2766300Y4490200D01*
X2756700Y4469000D01*
X2753500Y4450000D01*
X2821000D01*
G01X2453600Y5626400D02*
X2444000Y5632800D01*
X2432700Y5637000D01*
X2419900D01*
X2405400Y5630600D01*
X2394100Y5620100D01*
X2386100Y5607400D01*
X2379600Y5586200D01*
X2378000Y5567100D01*
X2381300Y5548100D01*
X2386100Y5535400D01*
X2395700Y5522700D01*
X2407000Y5514200D01*
X2418200Y5510000D01*
X2429500D01*
X2440800Y5514200D01*
X2450400Y5520600D01*
X2458500Y5529000D01*
G01X2567100Y5510000D02*
Y5637000D01*
X2507500Y5546000D01*
X2588000D01*
G01X2677200Y5637000D02*
X2664400Y5632800D01*
X2654700Y5622200D01*
X2648300Y5609500D01*
X2643500Y5592500D01*
X2641900Y5573500D01*
X2643500Y5554400D01*
X2648300Y5537500D01*
X2654700Y5524800D01*
X2664400Y5514200D01*
X2677200Y5510000D01*
X2690100Y5514200D01*
X2699800Y5524800D01*
X2706200Y5537500D01*
X2711000Y5554400D01*
X2712600Y5573500D01*
X2711000Y5592500D01*
X2706200Y5609500D01*
X2699800Y5622200D01*
X2690100Y5632800D01*
X2677200Y5637000D01*
G01X2493600Y7126400D02*
X2484000Y7132800D01*
X2472700Y7137000D01*
X2459900D01*
X2445400Y7130600D01*
X2434100Y7120100D01*
X2426100Y7107400D01*
X2419600Y7086200D01*
X2418000Y7067100D01*
X2421300Y7048100D01*
X2426100Y7035400D01*
X2435700Y7022700D01*
X2447000Y7014200D01*
X2458200Y7010000D01*
X2469500D01*
X2480800Y7014200D01*
X2490400Y7020600D01*
X2498500Y7029000D01*
G01X2557200Y7115800D02*
X2566800Y7128500D01*
X2578100Y7134900D01*
X2591000Y7137000D01*
X2607100Y7132800D01*
X2618300Y7122200D01*
X2621500Y7109500D01*
X2619900Y7096800D01*
X2613500Y7086200D01*
X2581300Y7065000D01*
X2566800Y7050200D01*
X2557200Y7029000D01*
X2554000Y7010000D01*
X2621500D01*
G01X2689900Y7024800D02*
X2701200Y7014200D01*
X2714000Y7010000D01*
X2726900Y7014200D01*
X2738200Y7026900D01*
X2746200Y7046000D01*
X2749400Y7065000D01*
Y7088300D01*
X2746200Y7107400D01*
X2738200Y7124300D01*
X2728500Y7132800D01*
X2717200Y7137000D01*
X2704400Y7132800D01*
X2694700Y7124300D01*
X2688300Y7111600D01*
X2685100Y7094700D01*
X2688300Y7079900D01*
X2696300Y7065000D01*
X2706000Y7056600D01*
X2717200Y7054400D01*
X2730100Y7058700D01*
X2739800Y7069300D01*
X2749400Y7088300D01*
G01X2436400Y7200000D02*
Y7327000D01*
X2478200Y7221200D01*
X2520100Y7327000D01*
Y7200000D01*
G01X2643100Y7316400D02*
X2633500Y7322800D01*
X2622200Y7327000D01*
X2609400D01*
X2594900Y7320600D01*
X2583600Y7310100D01*
X2575600Y7297400D01*
X2569100Y7276200D01*
X2567500Y7257100D01*
X2570800Y7238100D01*
X2575600Y7225400D01*
X2585200Y7212700D01*
X2596500Y7204200D01*
X2607700Y7200000D01*
X2619000D01*
X2630300Y7204200D01*
X2639900Y7210600D01*
X2648000Y7219000D01*
G01X2701900Y7327000D02*
Y7236000D01*
X2708300Y7216900D01*
X2721200Y7204200D01*
X2737200Y7200000D01*
X2753300Y7204200D01*
X2766200Y7216900D01*
X2772600Y7236000D01*
Y7327000D01*
G01X2866700Y7200000D02*
Y7327000D01*
X2847400Y7301600D01*
G01Y7200000D02*
X2886000D01*
G01X2336100Y7995400D02*
X2344100Y7982700D01*
X2353800Y7974200D01*
X2365000Y7970000D01*
X2377900Y7974200D01*
X2387600Y7982700D01*
X2397200Y7995400D01*
X2400400Y8012300D01*
Y8097000D01*
G01X2467200Y8022900D02*
X2478400Y8037700D01*
X2488100Y8046200D01*
X2501000Y8050400D01*
X2512200Y8046200D01*
X2520300Y8037700D01*
X2526700Y8025000D01*
X2528300Y8010200D01*
X2526700Y7997500D01*
X2520300Y7984800D01*
X2510600Y7974200D01*
X2499400Y7970000D01*
X2486500Y7974200D01*
X2475200Y7986900D01*
X2468800Y8006000D01*
X2467200Y8027100D01*
X2470400Y8054700D01*
X2475200Y8069500D01*
X2483300Y8084300D01*
X2494500Y8094900D01*
X2505800Y8097000D01*
X2517100Y8092800D01*
X2525100Y8082200D01*
G01X2737700Y3452900D02*
X2748900Y3467700D01*
X2758600Y3476200D01*
X2771500Y3480400D01*
X2782700Y3476200D01*
X2790800Y3467700D01*
X2797200Y3455000D01*
X2798800Y3440200D01*
X2797200Y3427500D01*
X2790800Y3414800D01*
X2781100Y3404200D01*
X2769900Y3400000D01*
X2757000Y3404200D01*
X2745700Y3416900D01*
X2739300Y3436000D01*
X2737700Y3457100D01*
X2740900Y3484700D01*
X2745700Y3499500D01*
X2753800Y3514300D01*
X2765000Y3524900D01*
X2776300Y3527000D01*
X2787600Y3522800D01*
X2795600Y3512200D01*
G01X2643600Y7736400D02*
X2634000Y7742800D01*
X2622700Y7747000D01*
X2609900D01*
X2595400Y7740600D01*
X2584100Y7730100D01*
X2576100Y7717400D01*
X2569600Y7696200D01*
X2568000Y7677100D01*
X2571300Y7658100D01*
X2576100Y7645400D01*
X2585700Y7632700D01*
X2597000Y7624200D01*
X2608200Y7620000D01*
X2619500D01*
X2630800Y7624200D01*
X2640400Y7630600D01*
X2648500Y7639000D01*
G01X2702400Y7645400D02*
X2712000Y7630600D01*
X2724900Y7622100D01*
X2739400Y7620000D01*
X2752200Y7622100D01*
X2765100Y7632700D01*
X2773100Y7645400D01*
X2774700Y7658100D01*
X2771500Y7672900D01*
X2760300Y7683500D01*
X2749000Y7687700D01*
X2734500D01*
G01X2749000D02*
X2758700Y7694100D01*
X2766700Y7704700D01*
X2769900Y7717400D01*
X2766700Y7730100D01*
X2758700Y7740600D01*
X2744200Y7747000D01*
X2729700Y7744900D01*
X2715200Y7736400D01*
G01X2886600Y7620000D02*
Y7747000D01*
X2827000Y7656000D01*
X2907500D01*
G01X2714200Y8237700D02*
X2701500Y8247300D01*
X2695100Y8258600D01*
X2693000Y8271500D01*
X2697200Y8287600D01*
X2707800Y8298800D01*
X2720500Y8302000D01*
X2733200Y8300400D01*
X2743800Y8294000D01*
X2765000Y8261800D01*
X2779800Y8247300D01*
X2801000Y8237700D01*
X2820000Y8234500D01*
Y8302000D01*
G01Y8417100D02*
X2693000D01*
X2784000Y8357500D01*
Y8438000D01*
G01X2693000Y8487000D02*
X2820000Y8527200D01*
X2693000Y8567500D01*
G01X2847700Y1185800D02*
X2857300Y1198500D01*
X2868600Y1204900D01*
X2881500Y1207000D01*
X2897600Y1202800D01*
X2908800Y1192200D01*
X2912000Y1179500D01*
X2910400Y1166800D01*
X2904000Y1156200D01*
X2871800Y1135000D01*
X2857300Y1120200D01*
X2847700Y1099000D01*
X2844500Y1080000D01*
X2912000D01*
G01X3007700Y1207000D02*
X2994900Y1202800D01*
X2985200Y1192200D01*
X2978800Y1179500D01*
X2974000Y1162500D01*
X2972400Y1143500D01*
X2974000Y1124400D01*
X2978800Y1107500D01*
X2985200Y1094800D01*
X2994900Y1084200D01*
X3007700Y1080000D01*
X3020600Y1084200D01*
X3030300Y1094800D01*
X3036700Y1107500D01*
X3041500Y1124400D01*
X3043100Y1143500D01*
X3041500Y1162500D01*
X3036700Y1179500D01*
X3030300Y1192200D01*
X3020600Y1202800D01*
X3007700Y1207000D01*
G01X3137200Y1080000D02*
Y1207000D01*
X3117900Y1181600D01*
G01Y1080000D02*
X3156500D01*
G01X3266700D02*
X3278000Y1082100D01*
X3290900Y1088500D01*
X3298900Y1099000D01*
X3302100Y1113900D01*
X3298900Y1128700D01*
X3289300Y1141400D01*
X3274800Y1147700D01*
X3258700D01*
X3249100Y1152000D01*
X3241000Y1162500D01*
X3237800Y1177400D01*
X3242600Y1192200D01*
X3253900Y1202800D01*
X3266700Y1207000D01*
X3279600Y1202800D01*
X3290900Y1192200D01*
X3295700Y1177400D01*
X3292500Y1162500D01*
X3284400Y1152000D01*
X3274800Y1147700D01*
X3258700D01*
X3244200Y1141400D01*
X3234600Y1128700D01*
X3231400Y1113900D01*
X3234600Y1099000D01*
X3242600Y1088500D01*
X3255500Y1082100D01*
X3266700Y1080000D01*
G01X3396200D02*
Y1207000D01*
X3376900Y1181600D01*
G01Y1080000D02*
X3415500D01*
G01X3525700D02*
Y1207000D01*
X3506400Y1181600D01*
G01Y1080000D02*
X3545000D01*
G01X3655200D02*
Y1207000D01*
X3635900Y1181600D01*
G01Y1080000D02*
X3674500D01*
G01X3784700D02*
X3796000Y1082100D01*
X3808900Y1088500D01*
X3816900Y1099000D01*
X3820100Y1113900D01*
X3816900Y1128700D01*
X3807300Y1141400D01*
X3792800Y1147700D01*
X3776700D01*
X3767100Y1152000D01*
X3759000Y1162500D01*
X3755800Y1177400D01*
X3760600Y1192200D01*
X3771900Y1202800D01*
X3784700Y1207000D01*
X3797600Y1202800D01*
X3808900Y1192200D01*
X3813700Y1177400D01*
X3810500Y1162500D01*
X3802400Y1152000D01*
X3792800Y1147700D01*
X3776700D01*
X3762200Y1141400D01*
X3752600Y1128700D01*
X3749400Y1113900D01*
X3752600Y1099000D01*
X3760600Y1088500D01*
X3773500Y1082100D01*
X3784700Y1080000D01*
G01X3078200Y1940000D02*
Y1997100D01*
X3046100Y2067000D01*
G01X3110400D02*
X3078200Y1997100D01*
G01X3207700Y1940000D02*
Y2067000D01*
X3188400Y2041600D01*
G01Y1940000D02*
X3227000D01*
G01X3078200Y2630000D02*
Y2757000D01*
X3058900Y2731600D01*
G01Y2630000D02*
X3097500D01*
G01X3207700D02*
X3219000Y2632100D01*
X3231900Y2638500D01*
X3239900Y2649000D01*
X3243100Y2663900D01*
X3239900Y2678700D01*
X3230300Y2691400D01*
X3215800Y2697700D01*
X3199700D01*
X3190100Y2702000D01*
X3182000Y2712500D01*
X3178800Y2727400D01*
X3183600Y2742200D01*
X3194900Y2752800D01*
X3207700Y2757000D01*
X3220600Y2752800D01*
X3231900Y2742200D01*
X3236700Y2727400D01*
X3233500Y2712500D01*
X3225400Y2702000D01*
X3215800Y2697700D01*
X3199700D01*
X3185200Y2691400D01*
X3175600Y2678700D01*
X3172400Y2663900D01*
X3175600Y2649000D01*
X3183600Y2638500D01*
X3196500Y2632100D01*
X3207700Y2630000D01*
G01X3056100Y4767000D02*
Y4640000D01*
X3120400D01*
G01X3217700D02*
Y4767000D01*
X3198400Y4741600D01*
G01Y4640000D02*
X3237000D01*
G01X2966400Y6366400D02*
X2972800Y6376000D01*
X2977000Y6387300D01*
Y6400100D01*
X2970600Y6414600D01*
X2960100Y6425900D01*
X2947400Y6433900D01*
X2926200Y6440400D01*
X2907100Y6442000D01*
X2888100Y6438700D01*
X2875400Y6433900D01*
X2862700Y6424300D01*
X2854200Y6413000D01*
X2850000Y6401800D01*
Y6390500D01*
X2854200Y6379200D01*
X2860600Y6369600D01*
X2869000Y6361500D01*
G01X2875400Y6307600D02*
X2860600Y6298000D01*
X2852100Y6285100D01*
X2850000Y6270600D01*
X2852100Y6257800D01*
X2862700Y6244900D01*
X2875400Y6236900D01*
X2888100Y6235300D01*
X2902900Y6238500D01*
X2913500Y6249700D01*
X2917700Y6261000D01*
Y6275500D01*
G01Y6261000D02*
X2924100Y6251300D01*
X2934700Y6243300D01*
X2947400Y6240100D01*
X2960100Y6243300D01*
X2970600Y6251300D01*
X2977000Y6265800D01*
X2974900Y6280300D01*
X2966400Y6294800D01*
G01X2850000Y6142800D02*
X2977000D01*
X2951600Y6162100D01*
G01X2850000D02*
Y6123500D01*
G01X3182100Y7240000D02*
G03I-72100J0D01*
G01X3026500Y8287900D02*
Y8320100D01*
X3064600D01*
X3077300Y8310400D01*
X3085800Y8299200D01*
X3090000Y8283100D01*
X3085800Y8267000D01*
X3077300Y8255700D01*
X3064600Y8246100D01*
X3049800Y8239600D01*
X3032900Y8236400D01*
X3018000D01*
X3005300Y8239600D01*
X2990500Y8246100D01*
X2977800Y8255700D01*
X2969400Y8265400D01*
X2963000Y8278200D01*
Y8289500D01*
X2967200Y8302400D01*
X2975700Y8312000D01*
G01X3090000Y8370800D02*
X2963000D01*
X3090000Y8444700D01*
X2963000D01*
G01X3090000Y8501900D02*
X2963000D01*
Y8534000D01*
X2969400Y8546900D01*
X2977800Y8556600D01*
X2990500Y8564600D01*
X3005300Y8571000D01*
X3026500Y8572600D01*
X3047700Y8571000D01*
X3062500Y8564600D01*
X3075200Y8556600D01*
X3083700Y8546900D01*
X3090000Y8534000D01*
Y8501900D01*
G01X3372600Y3990000D02*
Y4117000D01*
X3313000Y4026000D01*
X3393500D01*
G01X3452200Y4095800D02*
X3461800Y4108500D01*
X3473100Y4114900D01*
X3486000Y4117000D01*
X3502100Y4112800D01*
X3513300Y4102200D01*
X3516500Y4089500D01*
X3514900Y4076800D01*
X3508500Y4066200D01*
X3476300Y4045000D01*
X3461800Y4030200D01*
X3452200Y4009000D01*
X3449000Y3990000D01*
X3516500D01*
G01X3340000Y8242900D02*
X3213000D01*
Y8275000D01*
X3219400Y8287900D01*
X3227800Y8297600D01*
X3240500Y8305600D01*
X3255300Y8312000D01*
X3276500Y8313600D01*
X3297700Y8312000D01*
X3312500Y8305600D01*
X3325200Y8297600D01*
X3333700Y8287900D01*
X3340000Y8275000D01*
Y8242900D01*
G01Y8407700D02*
X3337900Y8394900D01*
X3329400Y8383600D01*
X3316700Y8374000D01*
X3301900Y8367500D01*
X3285000Y8364300D01*
X3268000D01*
X3251100Y8367500D01*
X3236300Y8374000D01*
X3223600Y8383600D01*
X3215100Y8394900D01*
X3213000Y8407700D01*
X3215100Y8420600D01*
X3223600Y8431900D01*
X3236300Y8441500D01*
X3251100Y8448000D01*
X3268000Y8451200D01*
X3285000D01*
X3301900Y8448000D01*
X3316700Y8441500D01*
X3329400Y8431900D01*
X3337900Y8420600D01*
X3340000Y8407700D01*
G01Y8537200D02*
X3213000D01*
X3238400Y8517900D01*
G01X3340000D02*
Y8556500D01*
G01X3369300Y1394700D02*
X3398200Y1310000D01*
X3427200Y1394700D01*
G01X3527700Y1310000D02*
Y1437000D01*
X3508400Y1411600D01*
G01Y1310000D02*
X3547000D01*
G01X3657200Y1305800D02*
X3654000Y1307900D01*
Y1312100D01*
X3657200Y1314200D01*
X3660500Y1312100D01*
Y1307900D01*
X3657200Y1305800D01*
G01X3786700Y1310000D02*
Y1437000D01*
X3767400Y1411600D01*
G01Y1310000D02*
X3806000D01*
G01X3453600Y4786400D02*
X3444000Y4792800D01*
X3432700Y4797000D01*
X3419900D01*
X3405400Y4790600D01*
X3394100Y4780100D01*
X3386100Y4767400D01*
X3379600Y4746200D01*
X3378000Y4727100D01*
X3381300Y4708100D01*
X3386100Y4695400D01*
X3395700Y4682700D01*
X3407000Y4674200D01*
X3418200Y4670000D01*
X3429500D01*
X3440800Y4674200D01*
X3450400Y4680600D01*
X3458500Y4689000D01*
G01X3520400Y4684800D02*
X3531700Y4674200D01*
X3544500Y4670000D01*
X3557400Y4674200D01*
X3568700Y4686900D01*
X3576700Y4706000D01*
X3579900Y4725000D01*
Y4748300D01*
X3576700Y4767400D01*
X3568700Y4784300D01*
X3559000Y4792800D01*
X3547700Y4797000D01*
X3534900Y4792800D01*
X3525200Y4784300D01*
X3518800Y4771600D01*
X3515600Y4754700D01*
X3518800Y4739900D01*
X3526800Y4725000D01*
X3536500Y4716600D01*
X3547700Y4714400D01*
X3560600Y4718700D01*
X3570300Y4729300D01*
X3579900Y4748300D01*
G01X3600000Y8242900D02*
X3473000D01*
Y8275000D01*
X3479400Y8287900D01*
X3487800Y8297600D01*
X3500500Y8305600D01*
X3515300Y8312000D01*
X3536500Y8313600D01*
X3557700Y8312000D01*
X3572500Y8305600D01*
X3585200Y8297600D01*
X3593700Y8287900D01*
X3600000Y8275000D01*
Y8242900D01*
G01Y8407700D02*
X3597900Y8394900D01*
X3589400Y8383600D01*
X3576700Y8374000D01*
X3561900Y8367500D01*
X3545000Y8364300D01*
X3528000D01*
X3511100Y8367500D01*
X3496300Y8374000D01*
X3483600Y8383600D01*
X3475100Y8394900D01*
X3473000Y8407700D01*
X3475100Y8420600D01*
X3483600Y8431900D01*
X3496300Y8441500D01*
X3511100Y8448000D01*
X3528000Y8451200D01*
X3545000D01*
X3561900Y8448000D01*
X3576700Y8441500D01*
X3589400Y8431900D01*
X3597900Y8420600D01*
X3600000Y8407700D01*
G01X3494200Y8506700D02*
X3481500Y8516300D01*
X3475100Y8527600D01*
X3473000Y8540500D01*
X3477200Y8556600D01*
X3487800Y8567800D01*
X3500500Y8571000D01*
X3513200Y8569400D01*
X3523800Y8563000D01*
X3545000Y8530800D01*
X3559800Y8516300D01*
X3581000Y8506700D01*
X3600000Y8503500D01*
Y8571000D01*
G01X3773600Y2456400D02*
X3764000Y2462800D01*
X3752700Y2467000D01*
X3739900D01*
X3725400Y2460600D01*
X3714100Y2450100D01*
X3706100Y2437400D01*
X3699600Y2416200D01*
X3698000Y2397100D01*
X3701300Y2378100D01*
X3706100Y2365400D01*
X3715700Y2352700D01*
X3727000Y2344200D01*
X3738200Y2340000D01*
X3749500D01*
X3760800Y2344200D01*
X3770400Y2350600D01*
X3778500Y2359000D01*
G01X3867700Y2340000D02*
Y2467000D01*
X3848400Y2441600D01*
G01Y2340000D02*
X3887000D01*
G01X3994000D02*
X3997200Y2367500D01*
X4002100Y2390800D01*
X4008500Y2412000D01*
X4016600Y2435200D01*
X4029400Y2467000D01*
X3965100D01*
G01X3702900Y3997000D02*
Y3906000D01*
X3709300Y3886900D01*
X3722200Y3874200D01*
X3738200Y3870000D01*
X3754300Y3874200D01*
X3767200Y3886900D01*
X3773600Y3906000D01*
Y3997000D01*
G01X3867700Y3870000D02*
Y3997000D01*
X3848400Y3971600D01*
G01Y3870000D02*
X3887000D01*
G01X3786100Y7580000D02*
Y7707000D01*
X3826300D01*
X3839200Y7700600D01*
X3847200Y7692200D01*
X3850400Y7675200D01*
X3847200Y7658300D01*
X3837600Y7647700D01*
X3826300Y7641400D01*
X3786100D01*
G01X3826300D02*
X3850400Y7580000D01*
G01X3912400Y7605400D02*
X3922000Y7590600D01*
X3934900Y7582100D01*
X3949400Y7580000D01*
X3962200Y7582100D01*
X3975100Y7592700D01*
X3983100Y7605400D01*
X3984700Y7618100D01*
X3981500Y7632900D01*
X3970300Y7643500D01*
X3959000Y7647700D01*
X3944500D01*
G01X3959000D02*
X3968700Y7654100D01*
X3976700Y7664700D01*
X3979900Y7677400D01*
X3976700Y7690100D01*
X3968700Y7700600D01*
X3954200Y7707000D01*
X3939700Y7704900D01*
X3925200Y7696400D01*
G01X4049900Y7594800D02*
X4061200Y7584200D01*
X4074000Y7580000D01*
X4086900Y7584200D01*
X4098200Y7596900D01*
X4106200Y7616000D01*
X4109400Y7635000D01*
Y7658300D01*
X4106200Y7677400D01*
X4098200Y7694300D01*
X4088500Y7702800D01*
X4077200Y7707000D01*
X4064400Y7702800D01*
X4054700Y7694300D01*
X4048300Y7681600D01*
X4045100Y7664700D01*
X4048300Y7649900D01*
X4056300Y7635000D01*
X4066000Y7626600D01*
X4077200Y7624400D01*
X4090100Y7628700D01*
X4099800Y7639300D01*
X4109400Y7658300D01*
G01X3850000Y8242900D02*
X3723000D01*
Y8275000D01*
X3729400Y8287900D01*
X3737800Y8297600D01*
X3750500Y8305600D01*
X3765300Y8312000D01*
X3786500Y8313600D01*
X3807700Y8312000D01*
X3822500Y8305600D01*
X3835200Y8297600D01*
X3843700Y8287900D01*
X3850000Y8275000D01*
Y8242900D01*
G01Y8407700D02*
X3847900Y8394900D01*
X3839400Y8383600D01*
X3826700Y8374000D01*
X3811900Y8367500D01*
X3795000Y8364300D01*
X3778000D01*
X3761100Y8367500D01*
X3746300Y8374000D01*
X3733600Y8383600D01*
X3725100Y8394900D01*
X3723000Y8407700D01*
X3725100Y8420600D01*
X3733600Y8431900D01*
X3746300Y8441500D01*
X3761100Y8448000D01*
X3778000Y8451200D01*
X3795000D01*
X3811900Y8448000D01*
X3826700Y8441500D01*
X3839400Y8431900D01*
X3847900Y8420600D01*
X3850000Y8407700D01*
G01X3824600Y8501900D02*
X3839400Y8511500D01*
X3847900Y8524400D01*
X3850000Y8538900D01*
X3847900Y8551700D01*
X3837300Y8564600D01*
X3824600Y8572600D01*
X3811900Y8574200D01*
X3797100Y8571000D01*
X3786500Y8559800D01*
X3782300Y8548500D01*
Y8534000D01*
G01Y8548500D02*
X3775900Y8558200D01*
X3765300Y8566200D01*
X3752600Y8569400D01*
X3739900Y8566200D01*
X3729400Y8558200D01*
X3723000Y8543700D01*
X3725100Y8529200D01*
X3733600Y8514700D01*
G01X3986100Y2670000D02*
Y2797000D01*
X4026300D01*
X4039200Y2790600D01*
X4047200Y2782200D01*
X4050400Y2765200D01*
X4047200Y2748300D01*
X4037600Y2737700D01*
X4026300Y2731400D01*
X3986100D01*
G01X4026300D02*
X4050400Y2670000D01*
G01X4147700D02*
Y2797000D01*
X4128400Y2771600D01*
G01Y2670000D02*
X4167000D01*
G01X4241900Y2689000D02*
X4251500Y2678500D01*
X4262800Y2672100D01*
X4277200Y2670000D01*
X4291700Y2674200D01*
X4303000Y2682700D01*
X4311000Y2697500D01*
X4312600Y2714400D01*
X4309400Y2731400D01*
X4301400Y2742000D01*
X4290100Y2750400D01*
X4278900Y2752500D01*
X4267600Y2750400D01*
X4253100Y2742000D01*
X4257900Y2797000D01*
X4301400D01*
G01X4110000Y8242900D02*
X3983000D01*
Y8275000D01*
X3989400Y8287900D01*
X3997800Y8297600D01*
X4010500Y8305600D01*
X4025300Y8312000D01*
X4046500Y8313600D01*
X4067700Y8312000D01*
X4082500Y8305600D01*
X4095200Y8297600D01*
X4103700Y8287900D01*
X4110000Y8275000D01*
Y8242900D01*
G01Y8407700D02*
X4107900Y8394900D01*
X4099400Y8383600D01*
X4086700Y8374000D01*
X4071900Y8367500D01*
X4055000Y8364300D01*
X4038000D01*
X4021100Y8367500D01*
X4006300Y8374000D01*
X3993600Y8383600D01*
X3985100Y8394900D01*
X3983000Y8407700D01*
X3985100Y8420600D01*
X3993600Y8431900D01*
X4006300Y8441500D01*
X4021100Y8448000D01*
X4038000Y8451200D01*
X4055000D01*
X4071900Y8448000D01*
X4086700Y8441500D01*
X4099400Y8431900D01*
X4107900Y8420600D01*
X4110000Y8407700D01*
G01Y8556600D02*
X3983000D01*
X4074000Y8497000D01*
Y8577500D01*
G01X4393600Y8013600D02*
X4387200Y8004000D01*
X4383000Y7992700D01*
Y7979900D01*
X4389400Y7965400D01*
X4399900Y7954100D01*
X4412600Y7946100D01*
X4433800Y7939600D01*
X4452900Y7938000D01*
X4471900Y7941300D01*
X4484600Y7946100D01*
X4497300Y7955700D01*
X4505800Y7967000D01*
X4510000Y7978200D01*
Y7989500D01*
X4505800Y8000800D01*
X4499400Y8010400D01*
X4491000Y8018500D01*
G01X4404200Y8077200D02*
X4391500Y8086800D01*
X4385100Y8098100D01*
X4383000Y8111000D01*
X4387200Y8127100D01*
X4397800Y8138300D01*
X4410500Y8141500D01*
X4423200Y8139900D01*
X4433800Y8133500D01*
X4455000Y8101300D01*
X4469800Y8086800D01*
X4491000Y8077200D01*
X4510000Y8074000D01*
Y8141500D01*
G01Y8237200D02*
X4507900Y8248500D01*
X4501500Y8261400D01*
X4491000Y8269400D01*
X4476100Y8272600D01*
X4461300Y8269400D01*
X4448600Y8259800D01*
X4442300Y8245300D01*
Y8229200D01*
X4438000Y8219600D01*
X4427500Y8211500D01*
X4412600Y8208300D01*
X4397800Y8213100D01*
X4387200Y8224400D01*
X4383000Y8237200D01*
X4387200Y8250100D01*
X4397800Y8261400D01*
X4412600Y8266200D01*
X4427500Y8263000D01*
X4438000Y8254900D01*
X4442300Y8245300D01*
Y8229200D01*
X4448600Y8214700D01*
X4461300Y8205100D01*
X4476100Y8201900D01*
X4491000Y8205100D01*
X4501500Y8213100D01*
X4507900Y8226000D01*
X4510000Y8237200D01*
G01X4446100Y3200000D02*
Y3327000D01*
X4486300D01*
X4499200Y3320600D01*
X4507200Y3312200D01*
X4510400Y3295200D01*
X4507200Y3278300D01*
X4497600Y3267700D01*
X4486300Y3261400D01*
X4446100D01*
G01X4486300D02*
X4510400Y3200000D01*
G01X4607700D02*
Y3327000D01*
X4588400Y3301600D01*
G01Y3200000D02*
X4627000D01*
G01X4737200D02*
Y3327000D01*
X4717900Y3301600D01*
G01Y3200000D02*
X4756500D01*
G01X4513600Y3686400D02*
X4504000Y3692800D01*
X4492700Y3697000D01*
X4479900D01*
X4465400Y3690600D01*
X4454100Y3680100D01*
X4446100Y3667400D01*
X4439600Y3646200D01*
X4438000Y3627100D01*
X4441300Y3608100D01*
X4446100Y3595400D01*
X4455700Y3582700D01*
X4467000Y3574200D01*
X4478200Y3570000D01*
X4489500D01*
X4500800Y3574200D01*
X4510400Y3580600D01*
X4518500Y3589000D01*
G01X4577200Y3675800D02*
X4586800Y3688500D01*
X4598100Y3694900D01*
X4611000Y3697000D01*
X4627100Y3692800D01*
X4638300Y3682200D01*
X4641500Y3669500D01*
X4639900Y3656800D01*
X4633500Y3646200D01*
X4601300Y3625000D01*
X4586800Y3610200D01*
X4577200Y3589000D01*
X4574000Y3570000D01*
X4641500D01*
G01X4446100Y3380000D02*
Y3507000D01*
X4486300D01*
X4499200Y3500600D01*
X4507200Y3492200D01*
X4510400Y3475200D01*
X4507200Y3458300D01*
X4497600Y3447700D01*
X4486300Y3441400D01*
X4446100D01*
G01X4486300D02*
X4510400Y3380000D01*
G01X4580400Y3394800D02*
X4591700Y3384200D01*
X4604500Y3380000D01*
X4617400Y3384200D01*
X4628700Y3396900D01*
X4636700Y3416000D01*
X4639900Y3435000D01*
Y3458300D01*
X4636700Y3477400D01*
X4628700Y3494300D01*
X4619000Y3502800D01*
X4607700Y3507000D01*
X4594900Y3502800D01*
X4585200Y3494300D01*
X4578800Y3481600D01*
X4575600Y3464700D01*
X4578800Y3449900D01*
X4586800Y3435000D01*
X4596500Y3426600D01*
X4607700Y3424400D01*
X4620600Y3428700D01*
X4630300Y3439300D01*
X4639900Y3458300D01*
G01X4746100Y2900000D02*
Y3027000D01*
X4786300D01*
X4799200Y3020600D01*
X4807200Y3012200D01*
X4810400Y2995200D01*
X4807200Y2978300D01*
X4797600Y2967700D01*
X4786300Y2961400D01*
X4746100D01*
G01X4786300D02*
X4810400Y2900000D01*
G01X4907700D02*
Y3027000D01*
X4888400Y3001600D01*
G01Y2900000D02*
X4927000D01*
G01X5009900Y2914800D02*
X5021200Y2904200D01*
X5034000Y2900000D01*
X5046900Y2904200D01*
X5058200Y2916900D01*
X5066200Y2936000D01*
X5069400Y2955000D01*
Y2978300D01*
X5066200Y2997400D01*
X5058200Y3014300D01*
X5048500Y3022800D01*
X5037200Y3027000D01*
X5024400Y3022800D01*
X5014700Y3014300D01*
X5008300Y3001600D01*
X5005100Y2984700D01*
X5008300Y2969900D01*
X5016300Y2955000D01*
X5026000Y2946600D01*
X5037200Y2944400D01*
X5050100Y2948700D01*
X5059800Y2959300D01*
X5069400Y2978300D01*
G01X4903600Y4453600D02*
X4897200Y4444000D01*
X4893000Y4432700D01*
Y4419900D01*
X4899400Y4405400D01*
X4909900Y4394100D01*
X4922600Y4386100D01*
X4943800Y4379600D01*
X4962900Y4378000D01*
X4981900Y4381300D01*
X4994600Y4386100D01*
X5007300Y4395700D01*
X5015800Y4407000D01*
X5020000Y4418200D01*
Y4429500D01*
X5015800Y4440800D01*
X5009400Y4450400D01*
X5001000Y4458500D01*
G01X4994600Y4512400D02*
X5009400Y4522000D01*
X5017900Y4534900D01*
X5020000Y4549400D01*
X5017900Y4562200D01*
X5007300Y4575100D01*
X4994600Y4583100D01*
X4981900Y4584700D01*
X4967100Y4581500D01*
X4956500Y4570300D01*
X4952300Y4559000D01*
Y4544500D01*
G01Y4559000D02*
X4945900Y4568700D01*
X4935300Y4576700D01*
X4922600Y4579900D01*
X4909900Y4576700D01*
X4899400Y4568700D01*
X4893000Y4554200D01*
X4895100Y4539700D01*
X4903600Y4525200D01*
G01X5005200Y4649900D02*
X5015800Y4661200D01*
X5020000Y4674000D01*
X5015800Y4686900D01*
X5003100Y4698200D01*
X4984000Y4706200D01*
X4965000Y4709400D01*
X4941700D01*
X4922600Y4706200D01*
X4905700Y4698200D01*
X4897200Y4688500D01*
X4893000Y4677200D01*
X4897200Y4664400D01*
X4905700Y4654700D01*
X4918400Y4648300D01*
X4935300Y4645100D01*
X4950100Y4648300D01*
X4965000Y4656300D01*
X4973400Y4666000D01*
X4975600Y4677200D01*
X4971300Y4690100D01*
X4960700Y4699800D01*
X4941700Y4709400D01*
G01X4800000Y4386100D02*
X4673000D01*
Y4426300D01*
X4679400Y4439200D01*
X4687800Y4447200D01*
X4704800Y4450400D01*
X4721700Y4447200D01*
X4732300Y4437600D01*
X4738600Y4426300D01*
Y4386100D01*
G01Y4426300D02*
X4800000Y4450400D01*
G01Y4567100D02*
X4673000D01*
X4764000Y4507500D01*
Y4588000D01*
G01X4781000Y4641900D02*
X4791500Y4651500D01*
X4797900Y4662800D01*
X4800000Y4677200D01*
X4795800Y4691700D01*
X4787300Y4703000D01*
X4772500Y4711000D01*
X4755600Y4712600D01*
X4738600Y4709400D01*
X4728000Y4701400D01*
X4719600Y4690100D01*
X4717500Y4678900D01*
X4719600Y4667600D01*
X4728000Y4653100D01*
X4673000Y4657900D01*
Y4701400D01*
G01X5243600Y4666400D02*
X5234000Y4672800D01*
X5222700Y4677000D01*
X5209900D01*
X5195400Y4670600D01*
X5184100Y4660100D01*
X5176100Y4647400D01*
X5169600Y4626200D01*
X5168000Y4607100D01*
X5171300Y4588100D01*
X5176100Y4575400D01*
X5185700Y4562700D01*
X5197000Y4554200D01*
X5208200Y4550000D01*
X5219500D01*
X5230800Y4554200D01*
X5240400Y4560600D01*
X5248500Y4569000D01*
G01X5302400Y4575400D02*
X5312000Y4560600D01*
X5324900Y4552100D01*
X5339400Y4550000D01*
X5352200Y4552100D01*
X5365100Y4562700D01*
X5373100Y4575400D01*
X5374700Y4588100D01*
X5371500Y4602900D01*
X5360300Y4613500D01*
X5349000Y4617700D01*
X5334500D01*
G01X5349000D02*
X5358700Y4624100D01*
X5366700Y4634700D01*
X5369900Y4647400D01*
X5366700Y4660100D01*
X5358700Y4670600D01*
X5344200Y4677000D01*
X5329700Y4674900D01*
X5315200Y4666400D01*
G01X5436700Y4655800D02*
X5446300Y4668500D01*
X5457600Y4674900D01*
X5470500Y4677000D01*
X5486600Y4672800D01*
X5497800Y4662200D01*
X5501000Y4649500D01*
X5499400Y4636800D01*
X5493000Y4626200D01*
X5460800Y4605000D01*
X5446300Y4590200D01*
X5436700Y4569000D01*
X5433500Y4550000D01*
X5501000D01*
G01X5176100Y4750000D02*
Y4877000D01*
X5216300D01*
X5229200Y4870600D01*
X5237200Y4862200D01*
X5240400Y4845200D01*
X5237200Y4828300D01*
X5227600Y4817700D01*
X5216300Y4811400D01*
X5176100D01*
G01X5216300D02*
X5240400Y4750000D01*
G01X5357100D02*
Y4877000D01*
X5297500Y4786000D01*
X5378000D01*
G01X5436700Y4855800D02*
X5446300Y4868500D01*
X5457600Y4874900D01*
X5470500Y4877000D01*
X5486600Y4872800D01*
X5497800Y4862200D01*
X5501000Y4849500D01*
X5499400Y4836800D01*
X5493000Y4826200D01*
X5460800Y4805000D01*
X5446300Y4790200D01*
X5436700Y4769000D01*
X5433500Y4750000D01*
X5501000D01*
G01X5176100Y4960000D02*
Y5087000D01*
X5216300D01*
X5229200Y5080600D01*
X5237200Y5072200D01*
X5240400Y5055200D01*
X5237200Y5038300D01*
X5227600Y5027700D01*
X5216300Y5021400D01*
X5176100D01*
G01X5216300D02*
X5240400Y4960000D01*
G01X5357100D02*
Y5087000D01*
X5297500Y4996000D01*
X5378000D01*
G01X5467200Y4960000D02*
Y5087000D01*
X5447900Y5061600D01*
G01Y4960000D02*
X5486500D01*
G01X4972900Y8357000D02*
Y8266000D01*
X4979300Y8246900D01*
X4992200Y8234200D01*
X5008200Y8230000D01*
X5024300Y8234200D01*
X5037200Y8246900D01*
X5043600Y8266000D01*
Y8357000D01*
G01X5157100Y8230000D02*
Y8357000D01*
X5097500Y8266000D01*
X5178000D01*
G01X5453600Y7036400D02*
X5444000Y7042800D01*
X5432700Y7047000D01*
X5419900D01*
X5405400Y7040600D01*
X5394100Y7030100D01*
X5386100Y7017400D01*
X5379600Y6996200D01*
X5378000Y6977100D01*
X5381300Y6958100D01*
X5386100Y6945400D01*
X5395700Y6932700D01*
X5407000Y6924200D01*
X5418200Y6920000D01*
X5429500D01*
X5440800Y6924200D01*
X5450400Y6930600D01*
X5458500Y6939000D01*
G01X5512400Y6945400D02*
X5522000Y6930600D01*
X5534900Y6922100D01*
X5549400Y6920000D01*
X5562200Y6922100D01*
X5575100Y6932700D01*
X5583100Y6945400D01*
X5584700Y6958100D01*
X5581500Y6972900D01*
X5570300Y6983500D01*
X5559000Y6987700D01*
X5544500D01*
G01X5559000D02*
X5568700Y6994100D01*
X5576700Y7004700D01*
X5579900Y7017400D01*
X5576700Y7030100D01*
X5568700Y7040600D01*
X5554200Y7047000D01*
X5539700Y7044900D01*
X5525200Y7036400D01*
G01X5646700Y6972900D02*
X5657900Y6987700D01*
X5667600Y6996200D01*
X5680500Y7000400D01*
X5691700Y6996200D01*
X5699800Y6987700D01*
X5706200Y6975000D01*
X5707800Y6960200D01*
X5706200Y6947500D01*
X5699800Y6934800D01*
X5690100Y6924200D01*
X5678900Y6920000D01*
X5666000Y6924200D01*
X5654700Y6936900D01*
X5648300Y6956000D01*
X5646700Y6977100D01*
X5649900Y7004700D01*
X5654700Y7019500D01*
X5662800Y7034300D01*
X5674000Y7044900D01*
X5685300Y7047000D01*
X5696600Y7042800D01*
X5704600Y7032200D01*
G01X5403600Y7316400D02*
X5394000Y7322800D01*
X5382700Y7327000D01*
X5369900D01*
X5355400Y7320600D01*
X5344100Y7310100D01*
X5336100Y7297400D01*
X5329600Y7276200D01*
X5328000Y7257100D01*
X5331300Y7238100D01*
X5336100Y7225400D01*
X5345700Y7212700D01*
X5357000Y7204200D01*
X5368200Y7200000D01*
X5379500D01*
X5390800Y7204200D01*
X5400400Y7210600D01*
X5408500Y7219000D01*
G01X5462400Y7225400D02*
X5472000Y7210600D01*
X5484900Y7202100D01*
X5499400Y7200000D01*
X5512200Y7202100D01*
X5525100Y7212700D01*
X5533100Y7225400D01*
X5534700Y7238100D01*
X5531500Y7252900D01*
X5520300Y7263500D01*
X5509000Y7267700D01*
X5494500D01*
G01X5509000D02*
X5518700Y7274100D01*
X5526700Y7284700D01*
X5529900Y7297400D01*
X5526700Y7310100D01*
X5518700Y7320600D01*
X5504200Y7327000D01*
X5489700Y7324900D01*
X5475200Y7316400D01*
G01X5591900Y7225400D02*
X5601500Y7210600D01*
X5614400Y7202100D01*
X5628900Y7200000D01*
X5641700Y7202100D01*
X5654600Y7212700D01*
X5662600Y7225400D01*
X5664200Y7238100D01*
X5661000Y7252900D01*
X5649800Y7263500D01*
X5638500Y7267700D01*
X5624000D01*
G01X5638500D02*
X5648200Y7274100D01*
X5656200Y7284700D01*
X5659400Y7297400D01*
X5656200Y7310100D01*
X5648200Y7320600D01*
X5633700Y7327000D01*
X5619200Y7324900D01*
X5604700Y7316400D01*
G01X5693600Y5076400D02*
X5684000Y5082800D01*
X5672700Y5087000D01*
X5659900D01*
X5645400Y5080600D01*
X5634100Y5070100D01*
X5626100Y5057400D01*
X5619600Y5036200D01*
X5618000Y5017100D01*
X5621300Y4998100D01*
X5626100Y4985400D01*
X5635700Y4972700D01*
X5647000Y4964200D01*
X5658200Y4960000D01*
X5669500D01*
X5680800Y4964200D01*
X5690400Y4970600D01*
X5698500Y4979000D01*
G01X5807100Y4960000D02*
Y5087000D01*
X5747500Y4996000D01*
X5828000D01*
G01X5936600Y4960000D02*
Y5087000D01*
X5877000Y4996000D01*
X5957500D01*
G01X5693600Y5266400D02*
X5684000Y5272800D01*
X5672700Y5277000D01*
X5659900D01*
X5645400Y5270600D01*
X5634100Y5260100D01*
X5626100Y5247400D01*
X5619600Y5226200D01*
X5618000Y5207100D01*
X5621300Y5188100D01*
X5626100Y5175400D01*
X5635700Y5162700D01*
X5647000Y5154200D01*
X5658200Y5150000D01*
X5669500D01*
X5680800Y5154200D01*
X5690400Y5160600D01*
X5698500Y5169000D01*
G01X5807100Y5150000D02*
Y5277000D01*
X5747500Y5186000D01*
X5828000D01*
G01X5881900Y5175400D02*
X5891500Y5160600D01*
X5904400Y5152100D01*
X5918900Y5150000D01*
X5931700Y5152100D01*
X5944600Y5162700D01*
X5952600Y5175400D01*
X5954200Y5188100D01*
X5951000Y5202900D01*
X5939800Y5213500D01*
X5928500Y5217700D01*
X5914000D01*
G01X5928500D02*
X5938200Y5224100D01*
X5946200Y5234700D01*
X5949400Y5247400D01*
X5946200Y5260100D01*
X5938200Y5270600D01*
X5923700Y5277000D01*
X5909200Y5274900D01*
X5894700Y5266400D01*
G01X5693600Y5456400D02*
X5684000Y5462800D01*
X5672700Y5467000D01*
X5659900D01*
X5645400Y5460600D01*
X5634100Y5450100D01*
X5626100Y5437400D01*
X5619600Y5416200D01*
X5618000Y5397100D01*
X5621300Y5378100D01*
X5626100Y5365400D01*
X5635700Y5352700D01*
X5647000Y5344200D01*
X5658200Y5340000D01*
X5669500D01*
X5680800Y5344200D01*
X5690400Y5350600D01*
X5698500Y5359000D01*
G01X5807100Y5340000D02*
Y5467000D01*
X5747500Y5376000D01*
X5828000D01*
G01X5886700Y5445800D02*
X5896300Y5458500D01*
X5907600Y5464900D01*
X5920500Y5467000D01*
X5936600Y5462800D01*
X5947800Y5452200D01*
X5951000Y5439500D01*
X5949400Y5426800D01*
X5943000Y5416200D01*
X5910800Y5395000D01*
X5896300Y5380200D01*
X5886700Y5359000D01*
X5883500Y5340000D01*
X5951000D01*
G01X5693600Y5646400D02*
X5684000Y5652800D01*
X5672700Y5657000D01*
X5659900D01*
X5645400Y5650600D01*
X5634100Y5640100D01*
X5626100Y5627400D01*
X5619600Y5606200D01*
X5618000Y5587100D01*
X5621300Y5568100D01*
X5626100Y5555400D01*
X5635700Y5542700D01*
X5647000Y5534200D01*
X5658200Y5530000D01*
X5669500D01*
X5680800Y5534200D01*
X5690400Y5540600D01*
X5698500Y5549000D01*
G01X5807100Y5530000D02*
Y5657000D01*
X5747500Y5566000D01*
X5828000D01*
G01X5917200Y5530000D02*
Y5657000D01*
X5897900Y5631600D01*
G01Y5530000D02*
X5936500D01*
G01X5544500Y8136900D02*
X5557300Y8126300D01*
X5571800Y8120000D01*
X5584700D01*
X5597600Y8126300D01*
X5607200Y8136900D01*
X5612000Y8151800D01*
X5608800Y8166600D01*
X5600800Y8179300D01*
X5586300Y8187700D01*
X5567000Y8192000D01*
X5555700Y8200400D01*
X5550900Y8215200D01*
X5554100Y8230100D01*
X5562200Y8240600D01*
X5573400Y8247000D01*
X5584700D01*
X5595900Y8242800D01*
X5605600Y8232200D01*
G01X5659500Y8247000D02*
X5682000Y8120000D01*
X5707700Y8247000D01*
X5733500Y8120000D01*
X5756000Y8247000D01*
G01X5801900Y8120000D02*
Y8247000D01*
X5834000D01*
X5846900Y8240600D01*
X5856600Y8232200D01*
X5864600Y8219500D01*
X5871000Y8204700D01*
X5872600Y8183500D01*
X5871000Y8162300D01*
X5864600Y8147500D01*
X5856600Y8134800D01*
X5846900Y8126300D01*
X5834000Y8120000D01*
X5801900D01*
G01X5947400Y8247000D02*
X5986000D01*
G01X5966700D02*
Y8120000D01*
G01X5947400D02*
X5986000D01*
G01X6096200D02*
X6083400Y8122100D01*
X6072100Y8130600D01*
X6062500Y8143300D01*
X6056000Y8158100D01*
X6052800Y8175000D01*
Y8192000D01*
X6056000Y8208900D01*
X6062500Y8223700D01*
X6072100Y8236400D01*
X6083400Y8244900D01*
X6096200Y8247000D01*
X6109100Y8244900D01*
X6120400Y8236400D01*
X6130000Y8223700D01*
X6136500Y8208900D01*
X6139700Y8192000D01*
Y8175000D01*
X6136500Y8158100D01*
X6130000Y8143300D01*
X6120400Y8130600D01*
X6109100Y8122100D01*
X6096200Y8120000D01*
G01X5544500Y8336900D02*
X5557300Y8326300D01*
X5571800Y8320000D01*
X5584700D01*
X5597600Y8326300D01*
X5607200Y8336900D01*
X5612000Y8351800D01*
X5608800Y8366600D01*
X5600800Y8379300D01*
X5586300Y8387700D01*
X5567000Y8392000D01*
X5555700Y8400400D01*
X5550900Y8415200D01*
X5554100Y8430100D01*
X5562200Y8440600D01*
X5573400Y8447000D01*
X5584700D01*
X5595900Y8442800D01*
X5605600Y8432200D01*
G01X5659500Y8447000D02*
X5682000Y8320000D01*
X5707700Y8447000D01*
X5733500Y8320000D01*
X5756000Y8447000D01*
G01X5872600Y8436400D02*
X5863000Y8442800D01*
X5851700Y8447000D01*
X5838900D01*
X5824400Y8440600D01*
X5813100Y8430100D01*
X5805100Y8417400D01*
X5798600Y8396200D01*
X5797000Y8377100D01*
X5800300Y8358100D01*
X5805100Y8345400D01*
X5814700Y8332700D01*
X5826000Y8324200D01*
X5837200Y8320000D01*
X5848500D01*
X5859800Y8324200D01*
X5869400Y8330600D01*
X5877500Y8339000D01*
G01X5934600Y8447000D02*
Y8320000D01*
X5998900D01*
G01X6060900D02*
Y8447000D01*
G01X6122000D02*
X6060900Y8368700D01*
G01X6131600Y8320000D02*
X6088200Y8404700D01*
G01X5664500Y8536900D02*
X5677300Y8526300D01*
X5691800Y8520000D01*
X5704700D01*
X5717600Y8526300D01*
X5727200Y8536900D01*
X5732000Y8551800D01*
X5728800Y8566600D01*
X5720800Y8579300D01*
X5706300Y8587700D01*
X5687000Y8592000D01*
X5675700Y8600400D01*
X5670900Y8615200D01*
X5674100Y8630100D01*
X5682200Y8640600D01*
X5693400Y8647000D01*
X5704700D01*
X5715900Y8642800D01*
X5725600Y8632200D01*
G01X5779500Y8647000D02*
X5802000Y8520000D01*
X5827700Y8647000D01*
X5853500Y8520000D01*
X5876000Y8647000D01*
G01X5957200Y8520000D02*
X5944400Y8522100D01*
X5933100Y8530600D01*
X5923500Y8543300D01*
X5917000Y8558100D01*
X5913800Y8575000D01*
Y8592000D01*
X5917000Y8608900D01*
X5923500Y8623700D01*
X5933100Y8636400D01*
X5944400Y8644900D01*
X5957200Y8647000D01*
X5970100Y8644900D01*
X5981400Y8636400D01*
X5991000Y8623700D01*
X5997500Y8608900D01*
X6000700Y8592000D01*
Y8575000D01*
X5997500Y8558100D01*
X5991000Y8543300D01*
X5981400Y8530600D01*
X5970100Y8522100D01*
X5957200Y8520000D01*
G01X6072900Y1220000D02*
Y1347000D01*
G01X6134000D02*
X6072900Y1268700D01*
G01X6143600Y1220000D02*
X6100200Y1304700D01*
G01X6237700Y1220000D02*
Y1347000D01*
X6218400Y1321600D01*
G01Y1220000D02*
X6257000D01*
G01X6072900Y2220000D02*
Y2347000D01*
G01X6134000D02*
X6072900Y2268700D01*
G01X6143600Y2220000D02*
X6100200Y2304700D01*
G01X6207200Y2325800D02*
X6216800Y2338500D01*
X6228100Y2344900D01*
X6241000Y2347000D01*
X6257100Y2342800D01*
X6268300Y2332200D01*
X6271500Y2319500D01*
X6269900Y2306800D01*
X6263500Y2296200D01*
X6231300Y2275000D01*
X6216800Y2260200D01*
X6207200Y2239000D01*
X6204000Y2220000D01*
X6271500D01*
G01X6072900Y3220000D02*
Y3347000D01*
G01X6134000D02*
X6072900Y3268700D01*
G01X6143600Y3220000D02*
X6100200Y3304700D01*
G01X6202400Y3245400D02*
X6212000Y3230600D01*
X6224900Y3222100D01*
X6239400Y3220000D01*
X6252200Y3222100D01*
X6265100Y3232700D01*
X6273100Y3245400D01*
X6274700Y3258100D01*
X6271500Y3272900D01*
X6260300Y3283500D01*
X6249000Y3287700D01*
X6234500D01*
G01X6249000D02*
X6258700Y3294100D01*
X6266700Y3304700D01*
X6269900Y3317400D01*
X6266700Y3330100D01*
X6258700Y3340600D01*
X6244200Y3347000D01*
X6229700Y3344900D01*
X6215200Y3336400D01*
G01X6072900Y4220000D02*
Y4347000D01*
G01X6134000D02*
X6072900Y4268700D01*
G01X6143600Y4220000D02*
X6100200Y4304700D01*
G01X6257100Y4220000D02*
Y4347000D01*
X6197500Y4256000D01*
X6278000D01*
G01X6142900Y7017000D02*
Y6926000D01*
X6149300Y6906900D01*
X6162200Y6894200D01*
X6178200Y6890000D01*
X6194300Y6894200D01*
X6207200Y6906900D01*
X6213600Y6926000D01*
Y7017000D01*
G01X6277200Y6995800D02*
X6286800Y7008500D01*
X6298100Y7014900D01*
X6311000Y7017000D01*
X6327100Y7012800D01*
X6338300Y7002200D01*
X6341500Y6989500D01*
X6339900Y6976800D01*
X6333500Y6966200D01*
X6301300Y6945000D01*
X6286800Y6930200D01*
X6277200Y6909000D01*
X6274000Y6890000D01*
X6341500D01*
G01X6296100Y7145400D02*
X6304100Y7132700D01*
X6313800Y7124200D01*
X6325000Y7120000D01*
X6337900Y7124200D01*
X6347600Y7132700D01*
X6357200Y7145400D01*
X6360400Y7162300D01*
Y7247000D01*
G01X6454500Y7120000D02*
X6457700Y7147500D01*
X6462600Y7170800D01*
X6469000Y7192000D01*
X6477100Y7215200D01*
X6489900Y7247000D01*
X6425600D01*
G01X6367900Y8183500D02*
X6400100D01*
Y8145400D01*
X6390400Y8132700D01*
X6379200Y8124200D01*
X6363100Y8120000D01*
X6347000Y8124200D01*
X6335700Y8132700D01*
X6326100Y8145400D01*
X6319600Y8160200D01*
X6316400Y8177100D01*
Y8192000D01*
X6319600Y8204700D01*
X6326100Y8219500D01*
X6335700Y8232200D01*
X6345400Y8240600D01*
X6358200Y8247000D01*
X6369500D01*
X6382400Y8242800D01*
X6392000Y8234300D01*
G01X6450800Y8120000D02*
Y8247000D01*
X6524700Y8120000D01*
Y8247000D01*
G01X6581900Y8120000D02*
Y8247000D01*
X6614000D01*
X6626900Y8240600D01*
X6636600Y8232200D01*
X6644600Y8219500D01*
X6651000Y8204700D01*
X6652600Y8183500D01*
X6651000Y8162300D01*
X6644600Y8147500D01*
X6636600Y8134800D01*
X6626900Y8126300D01*
X6614000Y8120000D01*
X6581900D01*
G01X6318000Y8457000D02*
X6358200Y8330000D01*
X6398500Y8457000D01*
G01X6523100Y8446400D02*
X6513500Y8452800D01*
X6502200Y8457000D01*
X6489400D01*
X6474900Y8450600D01*
X6463600Y8440100D01*
X6455600Y8427400D01*
X6449100Y8406200D01*
X6447500Y8387100D01*
X6450800Y8368100D01*
X6455600Y8355400D01*
X6465200Y8342700D01*
X6476500Y8334200D01*
X6487700Y8330000D01*
X6499000D01*
X6510300Y8334200D01*
X6519900Y8340600D01*
X6528000Y8349000D01*
G01X6652600Y8446400D02*
X6643000Y8452800D01*
X6631700Y8457000D01*
X6618900D01*
X6604400Y8450600D01*
X6593100Y8440100D01*
X6585100Y8427400D01*
X6578600Y8406200D01*
X6577000Y8387100D01*
X6580300Y8368100D01*
X6585100Y8355400D01*
X6594700Y8342700D01*
X6606000Y8334200D01*
X6617200Y8330000D01*
X6628500D01*
X6639800Y8334200D01*
X6649400Y8340600D01*
X6657500Y8349000D01*
G01X6336100Y8520000D02*
Y8647000D01*
X6376300D01*
X6389200Y8640600D01*
X6397200Y8632200D01*
X6400400Y8615200D01*
X6397200Y8598300D01*
X6387600Y8587700D01*
X6376300Y8581400D01*
X6336100D01*
G01X6376300D02*
X6400400Y8520000D01*
G01X6464000Y8536900D02*
X6476800Y8526300D01*
X6491300Y8520000D01*
X6504200D01*
X6517100Y8526300D01*
X6526700Y8536900D01*
X6531500Y8551800D01*
X6528300Y8566600D01*
X6520300Y8579300D01*
X6505800Y8587700D01*
X6486500Y8592000D01*
X6475200Y8600400D01*
X6470400Y8615200D01*
X6473600Y8630100D01*
X6481700Y8640600D01*
X6492900Y8647000D01*
X6504200D01*
X6515400Y8642800D01*
X6525100Y8632200D01*
G01X6627200Y8647000D02*
Y8520000D01*
G01X6590300Y8647000D02*
X6664200D01*
G01X6716100Y7670000D02*
Y7797000D01*
X6756300D01*
X6769200Y7790600D01*
X6777200Y7782200D01*
X6780400Y7765200D01*
X6777200Y7748300D01*
X6767600Y7737700D01*
X6756300Y7731400D01*
X6716100D01*
G01X6756300D02*
X6780400Y7670000D01*
G01X6897100D02*
Y7797000D01*
X6837500Y7706000D01*
X6918000D01*
G01X7007200Y7797000D02*
X6994400Y7792800D01*
X6984700Y7782200D01*
X6978300Y7769500D01*
X6973500Y7752500D01*
X6971900Y7733500D01*
X6973500Y7714400D01*
X6978300Y7697500D01*
X6984700Y7684800D01*
X6994400Y7674200D01*
X7007200Y7670000D01*
X7020100Y7674200D01*
X7029800Y7684800D01*
X7036200Y7697500D01*
X7041000Y7714400D01*
X7042600Y7733500D01*
X7041000Y7752500D01*
X7036200Y7769500D01*
X7029800Y7782200D01*
X7020100Y7792800D01*
X7007200Y7797000D01*
G01X7393600Y8406400D02*
X7384000Y8412800D01*
X7372700Y8417000D01*
X7359900D01*
X7345400Y8410600D01*
X7334100Y8400100D01*
X7326100Y8387400D01*
X7319600Y8366200D01*
X7318000Y8347100D01*
X7321300Y8328100D01*
X7326100Y8315400D01*
X7335700Y8302700D01*
X7347000Y8294200D01*
X7358200Y8290000D01*
X7369500D01*
X7380800Y8294200D01*
X7390400Y8300600D01*
X7398500Y8309000D01*
G01X7457200Y8395800D02*
X7466800Y8408500D01*
X7478100Y8414900D01*
X7491000Y8417000D01*
X7507100Y8412800D01*
X7518300Y8402200D01*
X7521500Y8389500D01*
X7519900Y8376800D01*
X7513500Y8366200D01*
X7481300Y8345000D01*
X7466800Y8330200D01*
X7457200Y8309000D01*
X7454000Y8290000D01*
X7521500D01*
G01X7614000D02*
X7617200Y8317500D01*
X7622100Y8340800D01*
X7628500Y8362000D01*
X7636600Y8385200D01*
X7649400Y8417000D01*
X7585100D01*
G01X7437900Y4893500D02*
X7470100D01*
Y4855400D01*
X7460400Y4842700D01*
X7449200Y4834200D01*
X7433100Y4830000D01*
X7417000Y4834200D01*
X7405700Y4842700D01*
X7396100Y4855400D01*
X7389600Y4870200D01*
X7386400Y4887100D01*
Y4902000D01*
X7389600Y4914700D01*
X7396100Y4929500D01*
X7405700Y4942200D01*
X7415400Y4950600D01*
X7428200Y4957000D01*
X7439500D01*
X7452400Y4952800D01*
X7462000Y4944300D01*
G01X7520800Y4830000D02*
Y4957000D01*
X7594700Y4830000D01*
Y4957000D01*
G01X7651900Y4830000D02*
Y4957000D01*
X7684000D01*
X7696900Y4950600D01*
X7706600Y4942200D01*
X7714600Y4929500D01*
X7721000Y4914700D01*
X7722600Y4893500D01*
X7721000Y4872300D01*
X7714600Y4857500D01*
X7706600Y4844800D01*
X7696900Y4836300D01*
X7684000Y4830000D01*
X7651900D01*
G01X7402900Y5220000D02*
Y5347000D01*
X7435000D01*
X7447900Y5340600D01*
X7457600Y5332200D01*
X7465600Y5319500D01*
X7472000Y5304700D01*
X7473600Y5283500D01*
X7472000Y5262300D01*
X7465600Y5247500D01*
X7457600Y5234800D01*
X7447900Y5226300D01*
X7435000Y5220000D01*
X7402900D01*
G01X7548400Y5347000D02*
X7587000D01*
G01X7567700D02*
Y5220000D01*
G01X7548400D02*
X7587000D01*
G01X7697200D02*
Y5347000D01*
X7677900Y5321600D01*
G01Y5220000D02*
X7716500D01*
G01X7437900Y5663500D02*
X7470100D01*
Y5625400D01*
X7460400Y5612700D01*
X7449200Y5604200D01*
X7433100Y5600000D01*
X7417000Y5604200D01*
X7405700Y5612700D01*
X7396100Y5625400D01*
X7389600Y5640200D01*
X7386400Y5657100D01*
Y5672000D01*
X7389600Y5684700D01*
X7396100Y5699500D01*
X7405700Y5712200D01*
X7415400Y5720600D01*
X7428200Y5727000D01*
X7439500D01*
X7452400Y5722800D01*
X7462000Y5714300D01*
G01X7520800Y5600000D02*
Y5727000D01*
X7594700Y5600000D01*
Y5727000D01*
G01X7651900Y5600000D02*
Y5727000D01*
X7684000D01*
X7696900Y5720600D01*
X7706600Y5712200D01*
X7714600Y5699500D01*
X7721000Y5684700D01*
X7722600Y5663500D01*
X7721000Y5642300D01*
X7714600Y5627500D01*
X7706600Y5614800D01*
X7696900Y5606300D01*
X7684000Y5600000D01*
X7651900D01*
G01X7382900Y5980000D02*
Y6107000D01*
X7415000D01*
X7427900Y6100600D01*
X7437600Y6092200D01*
X7445600Y6079500D01*
X7452000Y6064700D01*
X7453600Y6043500D01*
X7452000Y6022300D01*
X7445600Y6007500D01*
X7437600Y5994800D01*
X7427900Y5986300D01*
X7415000Y5980000D01*
X7382900D01*
G01X7528400Y6107000D02*
X7567000D01*
G01X7547700D02*
Y5980000D01*
G01X7528400D02*
X7567000D01*
G01X7646700Y6085800D02*
X7656300Y6098500D01*
X7667600Y6104900D01*
X7680500Y6107000D01*
X7696600Y6102800D01*
X7707800Y6092200D01*
X7711000Y6079500D01*
X7709400Y6066800D01*
X7703000Y6056200D01*
X7670800Y6035000D01*
X7656300Y6020200D01*
X7646700Y5999000D01*
X7643500Y5980000D01*
X7711000D01*
G01X7427900Y6413500D02*
X7460100D01*
Y6375400D01*
X7450400Y6362700D01*
X7439200Y6354200D01*
X7423100Y6350000D01*
X7407000Y6354200D01*
X7395700Y6362700D01*
X7386100Y6375400D01*
X7379600Y6390200D01*
X7376400Y6407100D01*
Y6422000D01*
X7379600Y6434700D01*
X7386100Y6449500D01*
X7395700Y6462200D01*
X7405400Y6470600D01*
X7418200Y6477000D01*
X7429500D01*
X7442400Y6472800D01*
X7452000Y6464300D01*
G01X7510800Y6350000D02*
Y6477000D01*
X7584700Y6350000D01*
Y6477000D01*
G01X7641900Y6350000D02*
Y6477000D01*
X7674000D01*
X7686900Y6470600D01*
X7696600Y6462200D01*
X7704600Y6449500D01*
X7711000Y6434700D01*
X7712600Y6413500D01*
X7711000Y6392300D01*
X7704600Y6377500D01*
X7696600Y6364800D01*
X7686900Y6356300D01*
X7674000Y6350000D01*
X7641900D01*
G01X7382900Y6750000D02*
Y6877000D01*
X7415000D01*
X7427900Y6870600D01*
X7437600Y6862200D01*
X7445600Y6849500D01*
X7452000Y6834700D01*
X7453600Y6813500D01*
X7452000Y6792300D01*
X7445600Y6777500D01*
X7437600Y6764800D01*
X7427900Y6756300D01*
X7415000Y6750000D01*
X7382900D01*
G01X7528400Y6877000D02*
X7567000D01*
G01X7547700D02*
Y6750000D01*
G01X7528400D02*
X7567000D01*
G01X7641900Y6775400D02*
X7651500Y6760600D01*
X7664400Y6752100D01*
X7678900Y6750000D01*
X7691700Y6752100D01*
X7704600Y6762700D01*
X7712600Y6775400D01*
X7714200Y6788100D01*
X7711000Y6802900D01*
X7699800Y6813500D01*
X7688500Y6817700D01*
X7674000D01*
G01X7688500D02*
X7698200Y6824100D01*
X7706200Y6834700D01*
X7709400Y6847400D01*
X7706200Y6860100D01*
X7698200Y6870600D01*
X7683700Y6877000D01*
X7669200Y6874900D01*
X7654700Y6866400D01*
G01X7427900Y7193500D02*
X7460100D01*
Y7155400D01*
X7450400Y7142700D01*
X7439200Y7134200D01*
X7423100Y7130000D01*
X7407000Y7134200D01*
X7395700Y7142700D01*
X7386100Y7155400D01*
X7379600Y7170200D01*
X7376400Y7187100D01*
Y7202000D01*
X7379600Y7214700D01*
X7386100Y7229500D01*
X7395700Y7242200D01*
X7405400Y7250600D01*
X7418200Y7257000D01*
X7429500D01*
X7442400Y7252800D01*
X7452000Y7244300D01*
G01X7510800Y7130000D02*
Y7257000D01*
X7584700Y7130000D01*
Y7257000D01*
G01X7641900Y7130000D02*
Y7257000D01*
X7674000D01*
X7686900Y7250600D01*
X7696600Y7242200D01*
X7704600Y7229500D01*
X7711000Y7214700D01*
X7712600Y7193500D01*
X7711000Y7172300D01*
X7704600Y7157500D01*
X7696600Y7144800D01*
X7686900Y7136300D01*
X7674000Y7130000D01*
X7641900D01*
G01X7392900Y7480000D02*
Y7607000D01*
X7425000D01*
X7437900Y7600600D01*
X7447600Y7592200D01*
X7455600Y7579500D01*
X7462000Y7564700D01*
X7463600Y7543500D01*
X7462000Y7522300D01*
X7455600Y7507500D01*
X7447600Y7494800D01*
X7437900Y7486300D01*
X7425000Y7480000D01*
X7392900D01*
G01X7538400Y7607000D02*
X7577000D01*
G01X7557700D02*
Y7480000D01*
G01X7538400D02*
X7577000D01*
G01X7706600D02*
Y7607000D01*
X7647000Y7516000D01*
X7727500D01*
G01X7806100Y1165400D02*
X7814100Y1152700D01*
X7823800Y1144200D01*
X7835000Y1140000D01*
X7847900Y1144200D01*
X7857600Y1152700D01*
X7867200Y1165400D01*
X7870400Y1182300D01*
Y1267000D01*
G01X7987100Y1140000D02*
Y1267000D01*
X7927500Y1176000D01*
X8008000D01*
G01X7750000Y1316100D02*
X7623000D01*
Y1356300D01*
X7629400Y1369200D01*
X7637800Y1377200D01*
X7654800Y1380400D01*
X7671700Y1377200D01*
X7682300Y1367600D01*
X7688600Y1356300D01*
Y1316100D01*
G01Y1356300D02*
X7750000Y1380400D01*
G01Y1509900D02*
Y1445600D01*
X7623000D01*
Y1509900D01*
G01X7684400Y1484200D02*
Y1445600D01*
G01X7623000Y1575100D02*
X7750000D01*
Y1639400D01*
G01Y1696500D02*
X7623000Y1736700D01*
X7750000Y1777000D01*
G01X7705600Y1762500D02*
Y1711000D01*
G01X7750000Y1866200D02*
X7692900D01*
X7623000Y1834100D01*
G01Y1898400D02*
X7692900Y1866200D01*
G01X7623000Y1995700D02*
X7627200Y1982900D01*
X7637800Y1973200D01*
X7650500Y1966800D01*
X7667500Y1962000D01*
X7686500Y1960400D01*
X7705600Y1962000D01*
X7722500Y1966800D01*
X7735200Y1973200D01*
X7745800Y1982900D01*
X7750000Y1995700D01*
X7745800Y2008600D01*
X7735200Y2018300D01*
X7722500Y2024700D01*
X7705600Y2029500D01*
X7686500Y2031100D01*
X7667500Y2029500D01*
X7650500Y2024700D01*
X7637800Y2018300D01*
X7627200Y2008600D01*
X7623000Y1995700D01*
G01X7750000Y2196100D02*
X7623000D01*
Y2236300D01*
X7629400Y2249200D01*
X7637800Y2257200D01*
X7654800Y2260400D01*
X7671700Y2257200D01*
X7682300Y2247600D01*
X7688600Y2236300D01*
Y2196100D01*
G01Y2236300D02*
X7750000Y2260400D01*
G01Y2389900D02*
Y2325600D01*
X7623000D01*
Y2389900D01*
G01X7684400Y2364200D02*
Y2325600D01*
G01X7623000Y2455100D02*
X7750000D01*
Y2519400D01*
G01Y2576500D02*
X7623000Y2616700D01*
X7750000Y2657000D01*
G01X7705600Y2642500D02*
Y2591000D01*
G01X7750000Y2746200D02*
X7692900D01*
X7623000Y2714100D01*
G01Y2778400D02*
X7692900Y2746200D01*
G01X7750000Y2875700D02*
X7623000D01*
X7648400Y2856400D01*
G01X7750000D02*
Y2895000D01*
G01Y3026100D02*
X7623000D01*
Y3066300D01*
X7629400Y3079200D01*
X7637800Y3087200D01*
X7654800Y3090400D01*
X7671700Y3087200D01*
X7682300Y3077600D01*
X7688600Y3066300D01*
Y3026100D01*
G01Y3066300D02*
X7750000Y3090400D01*
G01Y3219900D02*
Y3155600D01*
X7623000D01*
Y3219900D01*
G01X7684400Y3194200D02*
Y3155600D01*
G01X7623000Y3285100D02*
X7750000D01*
Y3349400D01*
G01Y3406500D02*
X7623000Y3446700D01*
X7750000Y3487000D01*
G01X7705600Y3472500D02*
Y3421000D01*
G01X7750000Y3576200D02*
X7692900D01*
X7623000Y3544100D01*
G01Y3608400D02*
X7692900Y3576200D01*
G01X7644200Y3675200D02*
X7631500Y3684800D01*
X7625100Y3696100D01*
X7623000Y3709000D01*
X7627200Y3725100D01*
X7637800Y3736300D01*
X7650500Y3739500D01*
X7663200Y3737900D01*
X7673800Y3731500D01*
X7695000Y3699300D01*
X7709800Y3684800D01*
X7731000Y3675200D01*
X7750000Y3672000D01*
Y3739500D01*
G01Y3896100D02*
X7623000D01*
Y3936300D01*
X7629400Y3949200D01*
X7637800Y3957200D01*
X7654800Y3960400D01*
X7671700Y3957200D01*
X7682300Y3947600D01*
X7688600Y3936300D01*
Y3896100D01*
G01Y3936300D02*
X7750000Y3960400D01*
G01Y4089900D02*
Y4025600D01*
X7623000D01*
Y4089900D01*
G01X7684400Y4064200D02*
Y4025600D01*
G01X7623000Y4155100D02*
X7750000D01*
Y4219400D01*
G01Y4276500D02*
X7623000Y4316700D01*
X7750000Y4357000D01*
G01X7705600Y4342500D02*
Y4291000D01*
G01X7750000Y4446200D02*
X7692900D01*
X7623000Y4414100D01*
G01Y4478400D02*
X7692900Y4446200D01*
G01X7724600Y4540400D02*
X7739400Y4550000D01*
X7747900Y4562900D01*
X7750000Y4577400D01*
X7747900Y4590200D01*
X7737300Y4603100D01*
X7724600Y4611100D01*
X7711900Y4612700D01*
X7697100Y4609500D01*
X7686500Y4598300D01*
X7682300Y4587000D01*
Y4572500D01*
G01Y4587000D02*
X7675900Y4596700D01*
X7665300Y4604700D01*
X7652600Y4607900D01*
X7639900Y4604700D01*
X7629400Y4596700D01*
X7623000Y4582200D01*
X7625100Y4567700D01*
X7633600Y4553200D01*
G01X7806100Y7835400D02*
X7814100Y7822700D01*
X7823800Y7814200D01*
X7835000Y7810000D01*
X7847900Y7814200D01*
X7857600Y7822700D01*
X7867200Y7835400D01*
X7870400Y7852300D01*
Y7937000D01*
G01X7932400Y7829000D02*
X7942000Y7818500D01*
X7953300Y7812100D01*
X7967700Y7810000D01*
X7982200Y7814200D01*
X7993500Y7822700D01*
X8001500Y7837500D01*
X8003100Y7854400D01*
X7999900Y7871400D01*
X7991900Y7882000D01*
X7980600Y7890400D01*
X7969400Y7892500D01*
X7958100Y7890400D01*
X7943600Y7882000D01*
X7948400Y7937000D01*
X7991900D01*
G54D11*
G01X2976000Y3760000D02*
G03X2915000Y3821000I-61000J0D01*
G01D02*
G03X2854000Y3760000I0J-61000D01*
G01D02*
G03X2915000Y3699000I61000J0D01*
G01D02*
G03X2976000Y3760000I0J61000D01*
M02*
