G04 ================== begin FILE IDENTIFICATION RECORD ==================*
G04 Layout Name:  G:/Work/sh-z-004/design/pcb/io_4di_4do.brd*
G04 Film Name:    SILKSCREEN_BOTTOM*
G04 File Format:  Gerber RS274X*
G04 File Origin:  Cadence Allegro 17.2-S007*
G04 Origin Date:  Mon Oct 15 21:01:38 2018*
G04 *
G04 Layer:  MANUFACTURING/AUTOSILK_BOTTOM*
G04 Layer:  BOARD GEOMETRY/SILKSCREEN_BOTTOM*
G04 Layer:  BOARD GEOMETRY/OUTLINE*
G04 *
G04 Offset:    (0.000 0.000)*
G04 Mirror:    No*
G04 Mode:      Positive*
G04 Rotation:  0*
G04 FullContactRelief:  No*
G04 UndefLineWidth:     0.200*
G04 ================== end FILE IDENTIFICATION RECORD ====================*
%FSLAX25Y25*MOMM*%
%IR0*IPPOS*OFA0.00000B0.00000*MIA0B0*SFA1.00000B1.00000*%
%ADD10C,.2*%
G75*
%LPD*%
G75*
G54D10*
G01X280000Y5620000D02*
Y5460000D01*
G01X310000Y5640000D02*
Y5440000D01*
X640000D01*
Y5640000D01*
X310000D01*
G01X650000Y7290000D02*
X960000D01*
G01X710000Y7070000D02*
Y6760000D01*
G01X810000Y7480000D02*
Y7110000D01*
G01X1180000Y2360000D02*
X980000D01*
Y2030000D01*
X1180000D01*
Y2360000D01*
G01X1160000Y2390000D02*
X1000000D01*
G01X1200000Y4310000D02*
X1000000D01*
Y3980000D01*
X1200000D01*
Y4310000D01*
G01X1180000Y4340000D02*
X1020000D01*
G01X2240000Y2070000D02*
Y2270000D01*
X1910000D01*
Y2070000D01*
X2240000D01*
G01Y2300000D02*
Y2500000D01*
X1910000D01*
Y2300000D01*
X2240000D01*
G01Y2530000D02*
Y2730000D01*
X1910000D01*
Y2530000D01*
X2240000D01*
G01Y2760000D02*
Y2960000D01*
X1910000D01*
Y2760000D01*
X2240000D01*
G01X2270000Y3010000D02*
Y3210000D01*
X1940000D01*
Y3010000D01*
X2270000D01*
G01Y3490000D02*
Y3690000D01*
X1940000D01*
Y3490000D01*
X2270000D01*
G01X1960000Y3910000D02*
Y3730000D01*
X2260000D01*
Y3910000D01*
X1960000D01*
G01X1920000Y3900000D02*
Y3740000D01*
G01X2240000Y3960000D02*
Y4160000D01*
X1910000D01*
Y3960000D01*
X2240000D01*
G01Y4190000D02*
Y4390000D01*
X1910000D01*
Y4190000D01*
X2240000D01*
G01Y4650000D02*
Y4850000D01*
X1910000D01*
Y4650000D01*
X2240000D01*
G01Y4420000D02*
Y4620000D01*
X1910000D01*
Y4420000D01*
X2240000D01*
G01X1960000Y8470000D02*
Y8310000D01*
G01X1990000Y8490000D02*
Y8290000D01*
X2320000D01*
Y8490000D01*
X1990000D01*
G01X2270000Y2090000D02*
Y2250000D01*
G01Y2320000D02*
Y2480000D01*
G01Y2780000D02*
Y2940000D01*
G01Y2550000D02*
Y2710000D01*
G01Y3980000D02*
Y4140000D01*
G01Y4210000D02*
Y4370000D01*
G01Y4670000D02*
Y4830000D01*
G01Y4440000D02*
Y4600000D01*
G01X2520000Y2430000D02*
X2320000D01*
Y2100000D01*
X2520000D01*
Y2430000D01*
G01X2500000Y2460000D02*
X2340000D01*
G01Y2570000D02*
X2500000D01*
G01X2320000Y2600000D02*
X2520000D01*
Y2930000D01*
X2320000D01*
Y2600000D01*
G01X2300000Y3030000D02*
Y3190000D01*
G01Y3510000D02*
Y3670000D01*
G01X2520000Y4410000D02*
X2320000D01*
Y4080000D01*
X2520000D01*
Y4410000D01*
G01X2340000Y4460000D02*
X2500000D01*
G01X2320000Y4490000D02*
X2520000D01*
Y4820000D01*
X2320000D01*
Y4490000D01*
G01X2500000Y4440000D02*
X2340000D01*
G01X2420000Y5900000D02*
Y5720000D01*
X2720000D01*
Y5900000D01*
X2420000D01*
G01X2380000Y5890000D02*
Y5730000D01*
G01X2420000Y6130000D02*
Y5950000D01*
X2720000D01*
Y6130000D01*
X2420000D01*
G01X2380000Y6120000D02*
Y5960000D01*
G01X2910000Y3860000D02*
Y4060000D01*
X2580000D01*
Y3860000D01*
X2910000D01*
G01X2940000Y3880000D02*
Y4040000D01*
G01X3250000Y6120000D02*
X3050000D01*
Y5790000D01*
X3250000D01*
Y6120000D01*
G01X3230000Y6150000D02*
X3070000D01*
G01Y6310000D02*
X3230000D01*
G01X3050000Y6340000D02*
X3250000D01*
Y6670000D01*
X3050000D01*
Y6340000D01*
G01X3520000Y2210000D02*
Y2410000D01*
X3190000D01*
Y2210000D01*
X3520000D01*
G01Y2480000D02*
Y2680000D01*
X3190000D01*
Y2480000D01*
X3520000D01*
G01X3320000Y5770000D02*
Y5610000D01*
G01X3550000Y2230000D02*
Y2390000D01*
G01Y2500000D02*
Y2660000D01*
G01X3590000Y2420000D02*
X3790000D01*
Y2750000D01*
X3590000D01*
Y2420000D01*
G01X3480000Y3940000D02*
X3640000D01*
G01X3460000Y3970000D02*
X3660000D01*
Y4300000D01*
X3460000D01*
Y3970000D01*
G01X3350000Y5790000D02*
Y5590000D01*
X3680000D01*
Y5790000D01*
X3350000D01*
G01X3610000Y2390000D02*
X3770000D01*
G01X3780000Y5760000D02*
Y5600000D01*
G01X3810000Y5780000D02*
Y5580000D01*
X4140000D01*
Y5780000D01*
X3810000D01*
G01X3960000Y3680000D02*
Y3520000D01*
G01X3990000Y3700000D02*
Y3500000D01*
X4320000D01*
Y3700000D01*
X3990000D01*
G01X3960000Y3950000D02*
Y3790000D01*
G01X3990000Y3970000D02*
Y3770000D01*
X4320000D01*
Y3970000D01*
X3990000D01*
G01X4770000Y340000D02*
Y540000D01*
X4440000D01*
Y340000D01*
X4770000D01*
G01X4410000Y820000D02*
Y660000D01*
G01X4440000Y840000D02*
Y640000D01*
X4770000D01*
Y840000D01*
X4440000D01*
G01X4410000Y1090000D02*
Y930000D01*
G01X4440000Y1110000D02*
Y910000D01*
X4770000D01*
Y1110000D01*
X4440000D01*
G01X4850000Y1690000D02*
X4650000D01*
Y1360000D01*
X4850000D01*
Y1690000D01*
G01X4830000Y1720000D02*
X4670000D01*
G01X4850000Y2690000D02*
X4650000D01*
Y2360000D01*
X4850000D01*
Y2690000D01*
G01X4830000Y2720000D02*
X4670000D01*
G01X4850000Y3700000D02*
X4650000D01*
Y3370000D01*
X4850000D01*
Y3700000D01*
G01X4830000Y3730000D02*
X4670000D01*
G01X4800000Y360000D02*
Y520000D01*
G01X5310000Y480000D02*
X5220000D01*
Y360000D01*
X5010000D01*
Y390000D01*
X4930000D01*
Y680000D01*
X5010000D01*
Y710000D01*
X5220000D01*
Y590000D01*
X5310000D01*
Y480000D01*
G01X5260000Y820000D02*
Y1020000D01*
X4930000D01*
Y820000D01*
X5260000D01*
G01X4900000Y1260000D02*
Y1100000D01*
G01X4930000Y1280000D02*
Y1080000D01*
X5260000D01*
Y1280000D01*
X4930000D01*
G01X5310000Y1470000D02*
X5220000D01*
Y1350000D01*
X5010000D01*
Y1380000D01*
X4930000D01*
Y1670000D01*
X5010000D01*
Y1700000D01*
X5220000D01*
Y1580000D01*
X5310000D01*
Y1470000D01*
G01X5260000Y1820000D02*
Y2020000D01*
X4930000D01*
Y1820000D01*
X5260000D01*
G01X4900000Y2260000D02*
Y2100000D01*
G01X4930000Y2280000D02*
Y2080000D01*
X5260000D01*
Y2280000D01*
X4930000D01*
G01X5310000Y2470000D02*
X5220000D01*
Y2350000D01*
X5010000D01*
Y2380000D01*
X4930000D01*
Y2670000D01*
X5010000D01*
Y2700000D01*
X5220000D01*
Y2580000D01*
X5310000D01*
Y2470000D01*
G01X5260000Y2830000D02*
Y3030000D01*
X4930000D01*
Y2830000D01*
X5260000D01*
G01X4900000Y3260000D02*
Y3100000D01*
G01X4930000Y3280000D02*
Y3080000D01*
X5260000D01*
Y3280000D01*
X4930000D01*
G01X5310000Y3480000D02*
X5220000D01*
Y3360000D01*
X5010000D01*
Y3390000D01*
X4930000D01*
Y3680000D01*
X5010000D01*
Y3710000D01*
X5220000D01*
Y3590000D01*
X5310000D01*
Y3480000D01*
G01X5290000Y840000D02*
Y1000000D01*
G01Y1840000D02*
Y2000000D01*
G01Y2850000D02*
Y3010000D01*
G01X5540000Y5810000D02*
Y6010000D01*
X5210000D01*
Y5810000D01*
X5540000D01*
G01Y6250000D02*
Y6450000D01*
X5210000D01*
Y6250000D01*
X5540000D01*
G01Y6030000D02*
Y6230000D01*
X5210000D01*
Y6030000D01*
X5540000D01*
G01Y6470000D02*
Y6670000D01*
X5210000D01*
Y6470000D01*
X5540000D01*
G01X5570000Y5830000D02*
Y5990000D01*
G01Y6270000D02*
Y6430000D01*
G01Y6050000D02*
Y6210000D01*
G01Y6490000D02*
Y6650000D01*
G01X6590000Y5880000D02*
Y6080000D01*
X6260000D01*
Y5880000D01*
X6590000D01*
G01Y6130000D02*
Y6330000D01*
X6260000D01*
Y6130000D01*
X6590000D01*
G01Y6390000D02*
Y6590000D01*
X6260000D01*
Y6390000D01*
X6590000D01*
G01Y6640000D02*
Y6840000D01*
X6260000D01*
Y6640000D01*
X6590000D01*
G01X6620000Y5900000D02*
Y6060000D01*
G01Y6150000D02*
Y6310000D01*
G01Y6410000D02*
Y6570000D01*
G01Y6660000D02*
Y6820000D01*
G01X7290000Y5720000D02*
X7380000D01*
Y5840000D01*
X7590000D01*
Y5810000D01*
X7670000D01*
Y5520000D01*
X7590000D01*
Y5490000D01*
X7380000D01*
Y5610000D01*
X7290000D01*
Y5720000D01*
G01Y7240000D02*
X7380000D01*
Y7360000D01*
X7590000D01*
Y7330000D01*
X7670000D01*
Y7040000D01*
X7590000D01*
Y7010000D01*
X7380000D01*
Y7130000D01*
X7290000D01*
Y7240000D01*
G01X80000Y0D02*
X8620000D01*
G03X8700000Y80000I0J80000D01*
G01Y9120000D01*
G03X8620000Y9200000I-80000J0D01*
G01X80000D01*
G03X0Y9120000I0J-80000D01*
G01Y80000D01*
G03X80000Y0I80000J0D01*
G01X1156400Y2606400D02*
X1166000Y2612800D01*
X1177300Y2617000D01*
X1190100D01*
X1204600Y2610600D01*
X1215900Y2600100D01*
X1223900Y2587400D01*
X1230400Y2566200D01*
X1232000Y2547100D01*
X1228700Y2528100D01*
X1223900Y2515400D01*
X1214300Y2502700D01*
X1203000Y2494200D01*
X1191800Y2490000D01*
X1180500D01*
X1169200Y2494200D01*
X1159600Y2500600D01*
X1151500Y2509000D01*
G01X1062300Y2490000D02*
Y2617000D01*
X1081600Y2591600D01*
G01Y2490000D02*
X1043000D01*
G01X932800D02*
X921500Y2492100D01*
X908600Y2498500D01*
X900600Y2509000D01*
X897400Y2523900D01*
X900600Y2538700D01*
X910200Y2551400D01*
X924700Y2557700D01*
X940800D01*
X950400Y2562000D01*
X958500Y2572500D01*
X961700Y2587400D01*
X956900Y2602200D01*
X945600Y2612800D01*
X932800Y2617000D01*
X919900Y2612800D01*
X908600Y2602200D01*
X903800Y2587400D01*
X907000Y2572500D01*
X915100Y2562000D01*
X924700Y2557700D01*
X940800D01*
X955300Y2551400D01*
X964900Y2538700D01*
X968100Y2523900D01*
X964900Y2509000D01*
X956900Y2498500D01*
X944000Y2492100D01*
X932800Y2490000D01*
G01X1086400Y4566400D02*
X1096000Y4572800D01*
X1107300Y4577000D01*
X1120100D01*
X1134600Y4570600D01*
X1145900Y4560100D01*
X1153900Y4547400D01*
X1160400Y4526200D01*
X1162000Y4507100D01*
X1158700Y4488100D01*
X1153900Y4475400D01*
X1144300Y4462700D01*
X1133000Y4454200D01*
X1121800Y4450000D01*
X1110500D01*
X1099200Y4454200D01*
X1089600Y4460600D01*
X1081500Y4469000D01*
G01X992300Y4450000D02*
Y4577000D01*
X1011600Y4551600D01*
G01Y4450000D02*
X973000D01*
G01X898100Y4469000D02*
X888500Y4458500D01*
X877200Y4452100D01*
X862800Y4450000D01*
X848300Y4454200D01*
X837000Y4462700D01*
X829000Y4477500D01*
X827400Y4494400D01*
X830600Y4511400D01*
X838600Y4522000D01*
X849900Y4530400D01*
X861100Y4532500D01*
X872400Y4530400D01*
X886900Y4522000D01*
X882100Y4577000D01*
X838600D01*
G01X1083900Y5480000D02*
Y5607000D01*
X1043700D01*
X1030800Y5600600D01*
X1022800Y5592200D01*
X1019600Y5575200D01*
X1022800Y5558300D01*
X1032400Y5547700D01*
X1043700Y5541400D01*
X1083900D01*
G01X1043700D02*
X1019600Y5480000D01*
G01X922300D02*
Y5607000D01*
X941600Y5581600D01*
G01Y5480000D02*
X903000D01*
G01X792800D02*
X781500Y5482100D01*
X768600Y5488500D01*
X760600Y5499000D01*
X757400Y5513900D01*
X760600Y5528700D01*
X770200Y5541400D01*
X784700Y5547700D01*
X800800D01*
X810400Y5552000D01*
X818500Y5562500D01*
X821700Y5577400D01*
X816900Y5592200D01*
X805600Y5602800D01*
X792800Y5607000D01*
X779900Y5602800D01*
X768600Y5592200D01*
X763800Y5577400D01*
X767000Y5562500D01*
X775100Y5552000D01*
X784700Y5547700D01*
X800800D01*
X815300Y5541400D01*
X824900Y5528700D01*
X828100Y5513900D01*
X824900Y5499000D01*
X816900Y5488500D01*
X804000Y5482100D01*
X792800Y5480000D01*
G01X1796400Y3256400D02*
X1806000Y3262800D01*
X1817300Y3267000D01*
X1830100D01*
X1844600Y3260600D01*
X1855900Y3250100D01*
X1863900Y3237400D01*
X1870400Y3216200D01*
X1872000Y3197100D01*
X1868700Y3178100D01*
X1863900Y3165400D01*
X1854300Y3152700D01*
X1843000Y3144200D01*
X1831800Y3140000D01*
X1820500D01*
X1809200Y3144200D01*
X1799600Y3150600D01*
X1791500Y3159000D01*
G01X1737600Y3165400D02*
X1728000Y3150600D01*
X1715100Y3142100D01*
X1700600Y3140000D01*
X1687800Y3142100D01*
X1674900Y3152700D01*
X1666900Y3165400D01*
X1665300Y3178100D01*
X1668500Y3192900D01*
X1679700Y3203500D01*
X1691000Y3207700D01*
X1705500D01*
G01X1691000D02*
X1681300Y3214100D01*
X1673300Y3224700D01*
X1670100Y3237400D01*
X1673300Y3250100D01*
X1681300Y3260600D01*
X1695800Y3267000D01*
X1710300Y3264900D01*
X1724800Y3256400D01*
G01X2223900Y1490000D02*
Y1617000D01*
X2183700D01*
X2170800Y1610600D01*
X2162800Y1602200D01*
X2159600Y1585200D01*
X2162800Y1568300D01*
X2172400Y1557700D01*
X2183700Y1551400D01*
X2223900D01*
G01X2183700D02*
X2159600Y1490000D01*
G01X2062300D02*
Y1617000D01*
X2081600Y1591600D01*
G01Y1490000D02*
X2043000D01*
G01X1913400D02*
Y1617000D01*
X1973000Y1526000D01*
X1892500D01*
G01X2223900Y1310000D02*
Y1437000D01*
X2183700D01*
X2170800Y1430600D01*
X2162800Y1422200D01*
X2159600Y1405200D01*
X2162800Y1388300D01*
X2172400Y1377700D01*
X2183700Y1371400D01*
X2223900D01*
G01X2183700D02*
X2159600Y1310000D01*
G01X2062300D02*
Y1437000D01*
X2081600Y1411600D01*
G01Y1310000D02*
X2043000D01*
G01X1968100Y1335400D02*
X1958500Y1320600D01*
X1945600Y1312100D01*
X1931100Y1310000D01*
X1918300Y1312100D01*
X1905400Y1322700D01*
X1897400Y1335400D01*
X1895800Y1348100D01*
X1899000Y1362900D01*
X1910200Y1373500D01*
X1921500Y1377700D01*
X1936000D01*
G01X1921500D02*
X1911800Y1384100D01*
X1903800Y1394700D01*
X1900600Y1407400D01*
X1903800Y1420100D01*
X1911800Y1430600D01*
X1926300Y1437000D01*
X1940800Y1434900D01*
X1955300Y1426400D01*
G01X2223900Y1670000D02*
Y1797000D01*
X2183700D01*
X2170800Y1790600D01*
X2162800Y1782200D01*
X2159600Y1765200D01*
X2162800Y1748300D01*
X2172400Y1737700D01*
X2183700Y1731400D01*
X2223900D01*
G01X2183700D02*
X2159600Y1670000D01*
G01X2062300D02*
Y1797000D01*
X2081600Y1771600D01*
G01Y1670000D02*
X2043000D01*
G01X1932800Y1797000D02*
X1945600Y1792800D01*
X1955300Y1782200D01*
X1961700Y1769500D01*
X1966500Y1752500D01*
X1968100Y1733500D01*
X1966500Y1714400D01*
X1961700Y1697500D01*
X1955300Y1684800D01*
X1945600Y1674200D01*
X1932800Y1670000D01*
X1919900Y1674200D01*
X1910200Y1684800D01*
X1903800Y1697500D01*
X1899000Y1714400D01*
X1897400Y1733500D01*
X1899000Y1752500D01*
X1903800Y1769500D01*
X1910200Y1782200D01*
X1919900Y1792800D01*
X1932800Y1797000D01*
G01X2223900Y1850000D02*
Y1977000D01*
X2183700D01*
X2170800Y1970600D01*
X2162800Y1962200D01*
X2159600Y1945200D01*
X2162800Y1928300D01*
X2172400Y1917700D01*
X2183700Y1911400D01*
X2223900D01*
G01X2183700D02*
X2159600Y1850000D01*
G01X2062300D02*
Y1977000D01*
X2081600Y1951600D01*
G01Y1850000D02*
X2043000D01*
G01X1963300Y1955800D02*
X1953700Y1968500D01*
X1942400Y1974900D01*
X1929500Y1977000D01*
X1913400Y1972800D01*
X1902200Y1962200D01*
X1899000Y1949500D01*
X1900600Y1936800D01*
X1907000Y1926200D01*
X1939200Y1905000D01*
X1953700Y1890200D01*
X1963300Y1869000D01*
X1966500Y1850000D01*
X1899000D01*
G01X2173900Y4910000D02*
Y5037000D01*
X2133700D01*
X2120800Y5030600D01*
X2112800Y5022200D01*
X2109600Y5005200D01*
X2112800Y4988300D01*
X2122400Y4977700D01*
X2133700Y4971400D01*
X2173900D01*
G01X2133700D02*
X2109600Y4910000D01*
G01X2042800Y4962900D02*
X2031600Y4977700D01*
X2021900Y4986200D01*
X2009000Y4990400D01*
X1997800Y4986200D01*
X1989700Y4977700D01*
X1983300Y4965000D01*
X1981700Y4950200D01*
X1983300Y4937500D01*
X1989700Y4924800D01*
X1999400Y4914200D01*
X2010600Y4910000D01*
X2023500Y4914200D01*
X2034800Y4926900D01*
X2041200Y4946000D01*
X2042800Y4967100D01*
X2039600Y4994700D01*
X2034800Y5009500D01*
X2026700Y5024300D01*
X2015500Y5034900D01*
X2004200Y5037000D01*
X1992900Y5032800D01*
X1984900Y5022200D01*
G01X2173900Y5070000D02*
Y5197000D01*
X2133700D01*
X2120800Y5190600D01*
X2112800Y5182200D01*
X2109600Y5165200D01*
X2112800Y5148300D01*
X2122400Y5137700D01*
X2133700Y5131400D01*
X2173900D01*
G01X2133700D02*
X2109600Y5070000D01*
G01X2015500D02*
X2012300Y5097500D01*
X2007400Y5120800D01*
X2001000Y5142000D01*
X1992900Y5165200D01*
X1980100Y5197000D01*
X2044400D01*
G01X2173900Y5240000D02*
Y5367000D01*
X2133700D01*
X2120800Y5360600D01*
X2112800Y5352200D01*
X2109600Y5335200D01*
X2112800Y5318300D01*
X2122400Y5307700D01*
X2133700Y5301400D01*
X2173900D01*
G01X2133700D02*
X2109600Y5240000D01*
G01X2047600Y5265400D02*
X2038000Y5250600D01*
X2025100Y5242100D01*
X2010600Y5240000D01*
X1997800Y5242100D01*
X1984900Y5252700D01*
X1976900Y5265400D01*
X1975300Y5278100D01*
X1978500Y5292900D01*
X1989700Y5303500D01*
X2001000Y5307700D01*
X2015500D01*
G01X2001000D02*
X1991300Y5314100D01*
X1983300Y5324700D01*
X1980100Y5337400D01*
X1983300Y5350100D01*
X1991300Y5360600D01*
X2005800Y5367000D01*
X2020300Y5364900D01*
X2034800Y5356400D01*
G01X2173900Y5410000D02*
Y5537000D01*
X2133700D01*
X2120800Y5530600D01*
X2112800Y5522200D01*
X2109600Y5505200D01*
X2112800Y5488300D01*
X2122400Y5477700D01*
X2133700Y5471400D01*
X2173900D01*
G01X2133700D02*
X2109600Y5410000D01*
G01X2047600Y5429000D02*
X2038000Y5418500D01*
X2026700Y5412100D01*
X2012300Y5410000D01*
X1997800Y5414200D01*
X1986500Y5422700D01*
X1978500Y5437500D01*
X1976900Y5454400D01*
X1980100Y5471400D01*
X1988100Y5482000D01*
X1999400Y5490400D01*
X2010600Y5492500D01*
X2021900Y5490400D01*
X2036400Y5482000D01*
X2031600Y5537000D01*
X1988100D01*
G01X2236400Y8686400D02*
X2246000Y8692800D01*
X2257300Y8697000D01*
X2270100D01*
X2284600Y8690600D01*
X2295900Y8680100D01*
X2303900Y8667400D01*
X2310400Y8646200D01*
X2312000Y8627100D01*
X2308700Y8608100D01*
X2303900Y8595400D01*
X2294300Y8582700D01*
X2283000Y8574200D01*
X2271800Y8570000D01*
X2260500D01*
X2249200Y8574200D01*
X2239600Y8580600D01*
X2231500Y8589000D01*
G01X2172800Y8675800D02*
X2163200Y8688500D01*
X2151900Y8694900D01*
X2139000Y8697000D01*
X2122900Y8692800D01*
X2111700Y8682200D01*
X2108500Y8669500D01*
X2110100Y8656800D01*
X2116500Y8646200D01*
X2148700Y8625000D01*
X2163200Y8610200D01*
X2172800Y8589000D01*
X2176000Y8570000D01*
X2108500D01*
G01X2043300Y8675800D02*
X2033700Y8688500D01*
X2022400Y8694900D01*
X2009500Y8697000D01*
X1993400Y8692800D01*
X1982200Y8682200D01*
X1979000Y8669500D01*
X1980600Y8656800D01*
X1987000Y8646200D01*
X2019200Y8625000D01*
X2033700Y8610200D01*
X2043300Y8589000D01*
X2046500Y8570000D01*
X1979000D01*
G01X2576400Y3636400D02*
X2586000Y3642800D01*
X2597300Y3647000D01*
X2610100D01*
X2624600Y3640600D01*
X2635900Y3630100D01*
X2643900Y3617400D01*
X2650400Y3596200D01*
X2652000Y3577100D01*
X2648700Y3558100D01*
X2643900Y3545400D01*
X2634300Y3532700D01*
X2623000Y3524200D01*
X2611800Y3520000D01*
X2600500D01*
X2589200Y3524200D01*
X2579600Y3530600D01*
X2571500Y3539000D01*
G01X2517600D02*
X2508000Y3528500D01*
X2496700Y3522100D01*
X2482300Y3520000D01*
X2467800Y3524200D01*
X2456500Y3532700D01*
X2448500Y3547500D01*
X2446900Y3564400D01*
X2450100Y3581400D01*
X2458100Y3592000D01*
X2469400Y3600400D01*
X2480600Y3602500D01*
X2491900Y3600400D01*
X2506400Y3592000D01*
X2501600Y3647000D01*
X2458100D01*
G01X2513900Y3887000D02*
Y3760000D01*
X2449600D01*
G01X2382800Y3865800D02*
X2373200Y3878500D01*
X2361900Y3884900D01*
X2349000Y3887000D01*
X2332900Y3882800D01*
X2321700Y3872200D01*
X2318500Y3859500D01*
X2320100Y3846800D01*
X2326500Y3836200D01*
X2358700Y3815000D01*
X2373200Y3800200D01*
X2382800Y3779000D01*
X2386000Y3760000D01*
X2318500D01*
G01X2643900Y5637000D02*
Y5510000D01*
X2579600D01*
G01X2517600Y5529000D02*
X2508000Y5518500D01*
X2496700Y5512100D01*
X2482300Y5510000D01*
X2467800Y5514200D01*
X2456500Y5522700D01*
X2448500Y5537500D01*
X2446900Y5554400D01*
X2450100Y5571400D01*
X2458100Y5582000D01*
X2469400Y5590400D01*
X2480600Y5592500D01*
X2491900Y5590400D01*
X2506400Y5582000D01*
X2501600Y5637000D01*
X2458100D01*
G01X2623900Y6357000D02*
Y6230000D01*
X2559600D01*
G01X2442900D02*
Y6357000D01*
X2502500Y6266000D01*
X2422000D01*
G01X2846400Y2336400D02*
X2856000Y2342800D01*
X2867300Y2347000D01*
X2880100D01*
X2894600Y2340600D01*
X2905900Y2330100D01*
X2913900Y2317400D01*
X2920400Y2296200D01*
X2922000Y2277100D01*
X2918700Y2258100D01*
X2913900Y2245400D01*
X2904300Y2232700D01*
X2893000Y2224200D01*
X2881800Y2220000D01*
X2870500D01*
X2859200Y2224200D01*
X2849600Y2230600D01*
X2841500Y2239000D01*
G01X2752300Y2220000D02*
Y2347000D01*
X2771600Y2321600D01*
G01Y2220000D02*
X2733000D01*
G01X2603400D02*
Y2347000D01*
X2663000Y2256000D01*
X2582500D01*
G01X2826400Y2816400D02*
X2836000Y2822800D01*
X2847300Y2827000D01*
X2860100D01*
X2874600Y2820600D01*
X2885900Y2810100D01*
X2893900Y2797400D01*
X2900400Y2776200D01*
X2902000Y2757100D01*
X2898700Y2738100D01*
X2893900Y2725400D01*
X2884300Y2712700D01*
X2873000Y2704200D01*
X2861800Y2700000D01*
X2850500D01*
X2839200Y2704200D01*
X2829600Y2710600D01*
X2821500Y2719000D01*
G01X2732300Y2700000D02*
Y2827000D01*
X2751600Y2801600D01*
G01Y2700000D02*
X2713000D01*
G01X2638100Y2725400D02*
X2628500Y2710600D01*
X2615600Y2702100D01*
X2601100Y2700000D01*
X2588300Y2702100D01*
X2575400Y2712700D01*
X2567400Y2725400D01*
X2565800Y2738100D01*
X2569000Y2752900D01*
X2580200Y2763500D01*
X2591500Y2767700D01*
X2606000D01*
G01X2591500D02*
X2581800Y2774100D01*
X2573800Y2784700D01*
X2570600Y2797400D01*
X2573800Y2810100D01*
X2581800Y2820600D01*
X2596300Y2827000D01*
X2610800Y2824900D01*
X2625300Y2816400D01*
G01X2856400Y4386400D02*
X2866000Y4392800D01*
X2877300Y4397000D01*
X2890100D01*
X2904600Y4390600D01*
X2915900Y4380100D01*
X2923900Y4367400D01*
X2930400Y4346200D01*
X2932000Y4327100D01*
X2928700Y4308100D01*
X2923900Y4295400D01*
X2914300Y4282700D01*
X2903000Y4274200D01*
X2891800Y4270000D01*
X2880500D01*
X2869200Y4274200D01*
X2859600Y4280600D01*
X2851500Y4289000D01*
G01X2762300Y4270000D02*
Y4397000D01*
X2781600Y4371600D01*
G01Y4270000D02*
X2743000D01*
G01X2663300Y4375800D02*
X2653700Y4388500D01*
X2642400Y4394900D01*
X2629500Y4397000D01*
X2613400Y4392800D01*
X2602200Y4382200D01*
X2599000Y4369500D01*
X2600600Y4356800D01*
X2607000Y4346200D01*
X2639200Y4325000D01*
X2653700Y4310200D01*
X2663300Y4289000D01*
X2666500Y4270000D01*
X2599000D01*
G01X2846400Y4726400D02*
X2856000Y4732800D01*
X2867300Y4737000D01*
X2880100D01*
X2894600Y4730600D01*
X2905900Y4720100D01*
X2913900Y4707400D01*
X2920400Y4686200D01*
X2922000Y4667100D01*
X2918700Y4648100D01*
X2913900Y4635400D01*
X2904300Y4622700D01*
X2893000Y4614200D01*
X2881800Y4610000D01*
X2870500D01*
X2859200Y4614200D01*
X2849600Y4620600D01*
X2841500Y4629000D01*
G01X2752300Y4610000D02*
Y4737000D01*
X2771600Y4711600D01*
G01Y4610000D02*
X2733000D01*
G01X2622800D02*
Y4737000D01*
X2642100Y4711600D01*
G01Y4610000D02*
X2603500D01*
G01X2734200Y8492300D02*
X2721500Y8482700D01*
X2715100Y8471400D01*
X2713000Y8458500D01*
X2717200Y8442400D01*
X2727800Y8431200D01*
X2740500Y8428000D01*
X2753200Y8429600D01*
X2763800Y8436000D01*
X2785000Y8468200D01*
X2799800Y8482700D01*
X2821000Y8492300D01*
X2840000Y8495500D01*
Y8428000D01*
G01Y8312900D02*
X2713000D01*
X2804000Y8372500D01*
Y8292000D01*
G01X2713000Y8243000D02*
X2840000Y8202800D01*
X2713000Y8162500D01*
G01X3183900Y3890000D02*
Y4017000D01*
X3143700D01*
X3130800Y4010600D01*
X3122800Y4002200D01*
X3119600Y3985200D01*
X3122800Y3968300D01*
X3132400Y3957700D01*
X3143700Y3951400D01*
X3183900D01*
G01X3143700D02*
X3119600Y3890000D01*
G01X3022300D02*
Y4017000D01*
X3041600Y3991600D01*
G01Y3890000D02*
X3003000D01*
G01X3236400Y6866400D02*
X3246000Y6872800D01*
X3257300Y6877000D01*
X3270100D01*
X3284600Y6870600D01*
X3295900Y6860100D01*
X3303900Y6847400D01*
X3310400Y6826200D01*
X3312000Y6807100D01*
X3308700Y6788100D01*
X3303900Y6775400D01*
X3294300Y6762700D01*
X3283000Y6754200D01*
X3271800Y6750000D01*
X3260500D01*
X3249200Y6754200D01*
X3239600Y6760600D01*
X3231500Y6769000D01*
G01X3177600Y6775400D02*
X3168000Y6760600D01*
X3155100Y6752100D01*
X3140600Y6750000D01*
X3127800Y6752100D01*
X3114900Y6762700D01*
X3106900Y6775400D01*
X3105300Y6788100D01*
X3108500Y6802900D01*
X3119700Y6813500D01*
X3131000Y6817700D01*
X3145500D01*
G01X3131000D02*
X3121300Y6824100D01*
X3113300Y6834700D01*
X3110100Y6847400D01*
X3113300Y6860100D01*
X3121300Y6870600D01*
X3135800Y6877000D01*
X3150300Y6874900D01*
X3164800Y6866400D01*
G01X3016000Y6750000D02*
X3012800Y6777500D01*
X3007900Y6800800D01*
X3001500Y6822000D01*
X2993400Y6845200D01*
X2980600Y6877000D01*
X3044900D01*
G01X3026500Y8442100D02*
Y8409900D01*
X3064600D01*
X3077300Y8419600D01*
X3085800Y8430800D01*
X3090000Y8446900D01*
X3085800Y8463000D01*
X3077300Y8474300D01*
X3064600Y8483900D01*
X3049800Y8490400D01*
X3032900Y8493600D01*
X3018000D01*
X3005300Y8490400D01*
X2990500Y8483900D01*
X2977800Y8474300D01*
X2969400Y8464600D01*
X2963000Y8451800D01*
Y8440500D01*
X2967200Y8427600D01*
X2975700Y8418000D01*
G01X3090000Y8359200D02*
X2963000D01*
X3090000Y8285300D01*
X2963000D01*
G01X3090000Y8228100D02*
X2963000D01*
Y8196000D01*
X2969400Y8183100D01*
X2977800Y8173400D01*
X2990500Y8165400D01*
X3005300Y8159000D01*
X3026500Y8157400D01*
X3047700Y8159000D01*
X3062500Y8165400D01*
X3075200Y8173400D01*
X3083700Y8183100D01*
X3090000Y8196000D01*
Y8228100D01*
G01X3386400Y2106400D02*
X3396000Y2112800D01*
X3407300Y2117000D01*
X3420100D01*
X3434600Y2110600D01*
X3445900Y2100100D01*
X3453900Y2087400D01*
X3460400Y2066200D01*
X3462000Y2047100D01*
X3458700Y2028100D01*
X3453900Y2015400D01*
X3444300Y2002700D01*
X3433000Y1994200D01*
X3421800Y1990000D01*
X3410500D01*
X3399200Y1994200D01*
X3389600Y2000600D01*
X3381500Y2009000D01*
G01X3295500Y1990000D02*
X3292300Y2017500D01*
X3287400Y2040800D01*
X3281000Y2062000D01*
X3272900Y2085200D01*
X3260100Y2117000D01*
X3324400D01*
G01X3306400Y2886400D02*
X3316000Y2892800D01*
X3327300Y2897000D01*
X3340100D01*
X3354600Y2890600D01*
X3365900Y2880100D01*
X3373900Y2867400D01*
X3380400Y2846200D01*
X3382000Y2827100D01*
X3378700Y2808100D01*
X3373900Y2795400D01*
X3364300Y2782700D01*
X3353000Y2774200D01*
X3341800Y2770000D01*
X3330500D01*
X3319200Y2774200D01*
X3309600Y2780600D01*
X3301500Y2789000D01*
G01X3212300Y2770000D02*
X3201000Y2772100D01*
X3188100Y2778500D01*
X3180100Y2789000D01*
X3176900Y2803900D01*
X3180100Y2818700D01*
X3189700Y2831400D01*
X3204200Y2837700D01*
X3220300D01*
X3229900Y2842000D01*
X3238000Y2852500D01*
X3241200Y2867400D01*
X3236400Y2882200D01*
X3225100Y2892800D01*
X3212300Y2897000D01*
X3199400Y2892800D01*
X3188100Y2882200D01*
X3183300Y2867400D01*
X3186500Y2852500D01*
X3194600Y2842000D01*
X3204200Y2837700D01*
X3220300D01*
X3234800Y2831400D01*
X3244400Y2818700D01*
X3247600Y2803900D01*
X3244400Y2789000D01*
X3236400Y2778500D01*
X3223500Y2772100D01*
X3212300Y2770000D01*
G01X3486400Y5456400D02*
X3496000Y5462800D01*
X3507300Y5467000D01*
X3520100D01*
X3534600Y5460600D01*
X3545900Y5450100D01*
X3553900Y5437400D01*
X3560400Y5416200D01*
X3562000Y5397100D01*
X3558700Y5378100D01*
X3553900Y5365400D01*
X3544300Y5352700D01*
X3533000Y5344200D01*
X3521800Y5340000D01*
X3510500D01*
X3499200Y5344200D01*
X3489600Y5350600D01*
X3481500Y5359000D01*
G01X3427600Y5365400D02*
X3418000Y5350600D01*
X3405100Y5342100D01*
X3390600Y5340000D01*
X3377800Y5342100D01*
X3364900Y5352700D01*
X3356900Y5365400D01*
X3355300Y5378100D01*
X3358500Y5392900D01*
X3369700Y5403500D01*
X3381000Y5407700D01*
X3395500D01*
G01X3381000D02*
X3371300Y5414100D01*
X3363300Y5424700D01*
X3360100Y5437400D01*
X3363300Y5450100D01*
X3371300Y5460600D01*
X3385800Y5467000D01*
X3400300Y5464900D01*
X3414800Y5456400D01*
G01X3298100Y5359000D02*
X3288500Y5348500D01*
X3277200Y5342100D01*
X3262800Y5340000D01*
X3248300Y5344200D01*
X3237000Y5352700D01*
X3229000Y5367500D01*
X3227400Y5384400D01*
X3230600Y5401400D01*
X3238600Y5412000D01*
X3249900Y5420400D01*
X3261100Y5422500D01*
X3272400Y5420400D01*
X3286900Y5412000D01*
X3282100Y5467000D01*
X3238600D01*
G01X3350000Y8487100D02*
X3223000D01*
Y8455000D01*
X3229400Y8442100D01*
X3237800Y8432400D01*
X3250500Y8424400D01*
X3265300Y8418000D01*
X3286500Y8416400D01*
X3307700Y8418000D01*
X3322500Y8424400D01*
X3335200Y8432400D01*
X3343700Y8442100D01*
X3350000Y8455000D01*
Y8487100D01*
G01Y8322300D02*
X3347900Y8335100D01*
X3339400Y8346400D01*
X3326700Y8356000D01*
X3311900Y8362500D01*
X3295000Y8365700D01*
X3278000D01*
X3261100Y8362500D01*
X3246300Y8356000D01*
X3233600Y8346400D01*
X3225100Y8335100D01*
X3223000Y8322300D01*
X3225100Y8309400D01*
X3233600Y8298100D01*
X3246300Y8288500D01*
X3261100Y8282000D01*
X3278000Y8278800D01*
X3295000D01*
X3311900Y8282000D01*
X3326700Y8288500D01*
X3339400Y8298100D01*
X3347900Y8309400D01*
X3350000Y8322300D01*
G01X3324600Y8228100D02*
X3339400Y8218500D01*
X3347900Y8205600D01*
X3350000Y8191100D01*
X3347900Y8178300D01*
X3337300Y8165400D01*
X3324600Y8157400D01*
X3311900Y8155800D01*
X3297100Y8159000D01*
X3286500Y8170200D01*
X3282300Y8181500D01*
Y8196000D01*
G01Y8181500D02*
X3275900Y8171800D01*
X3265300Y8163800D01*
X3252600Y8160600D01*
X3239900Y8163800D01*
X3229400Y8171800D01*
X3223000Y8186300D01*
X3225100Y8200800D01*
X3233600Y8215300D01*
G01X3903900Y2870000D02*
Y2997000D01*
X3863700D01*
X3850800Y2990600D01*
X3842800Y2982200D01*
X3839600Y2965200D01*
X3842800Y2948300D01*
X3852400Y2937700D01*
X3863700Y2931400D01*
X3903900D01*
G01X3863700D02*
X3839600Y2870000D01*
G01X3772800Y2975800D02*
X3763200Y2988500D01*
X3751900Y2994900D01*
X3739000Y2997000D01*
X3722900Y2992800D01*
X3711700Y2982200D01*
X3708500Y2969500D01*
X3710100Y2956800D01*
X3716500Y2946200D01*
X3748700Y2925000D01*
X3763200Y2910200D01*
X3772800Y2889000D01*
X3776000Y2870000D01*
X3708500D01*
G01X3612800Y2997000D02*
X3625600Y2992800D01*
X3635300Y2982200D01*
X3641700Y2969500D01*
X3646500Y2952500D01*
X3648100Y2933500D01*
X3646500Y2914400D01*
X3641700Y2897500D01*
X3635300Y2884800D01*
X3625600Y2874200D01*
X3612800Y2870000D01*
X3599900Y2874200D01*
X3590200Y2884800D01*
X3583800Y2897500D01*
X3579000Y2914400D01*
X3577400Y2933500D01*
X3579000Y2952500D01*
X3583800Y2969500D01*
X3590200Y2982200D01*
X3599900Y2992800D01*
X3612800Y2997000D01*
G01X3633900Y4400000D02*
Y4527000D01*
X3593700D01*
X3580800Y4520600D01*
X3572800Y4512200D01*
X3569600Y4495200D01*
X3572800Y4478300D01*
X3582400Y4467700D01*
X3593700Y4461400D01*
X3633900D01*
G01X3593700D02*
X3569600Y4400000D01*
G01X3502800Y4505800D02*
X3493200Y4518500D01*
X3481900Y4524900D01*
X3469000Y4527000D01*
X3452900Y4522800D01*
X3441700Y4512200D01*
X3438500Y4499500D01*
X3440100Y4486800D01*
X3446500Y4476200D01*
X3478700Y4455000D01*
X3493200Y4440200D01*
X3502800Y4419000D01*
X3506000Y4400000D01*
X3438500D01*
G01X3673900Y6020000D02*
Y6147000D01*
X3633700D01*
X3620800Y6140600D01*
X3612800Y6132200D01*
X3609600Y6115200D01*
X3612800Y6098300D01*
X3622400Y6087700D01*
X3633700Y6081400D01*
X3673900D01*
G01X3633700D02*
X3609600Y6020000D01*
G01X3492900D02*
Y6147000D01*
X3552500Y6056000D01*
X3472000D01*
G01X3418100Y6045400D02*
X3408500Y6030600D01*
X3395600Y6022100D01*
X3381100Y6020000D01*
X3368300Y6022100D01*
X3355400Y6032700D01*
X3347400Y6045400D01*
X3345800Y6058100D01*
X3349000Y6072900D01*
X3360200Y6083500D01*
X3371500Y6087700D01*
X3386000D01*
G01X3371500D02*
X3361800Y6094100D01*
X3353800Y6104700D01*
X3350600Y6117400D01*
X3353800Y6130100D01*
X3361800Y6140600D01*
X3376300Y6147000D01*
X3390800Y6144900D01*
X3405300Y6136400D01*
G01X3590000Y8487100D02*
X3463000D01*
Y8455000D01*
X3469400Y8442100D01*
X3477800Y8432400D01*
X3490500Y8424400D01*
X3505300Y8418000D01*
X3526500Y8416400D01*
X3547700Y8418000D01*
X3562500Y8424400D01*
X3575200Y8432400D01*
X3583700Y8442100D01*
X3590000Y8455000D01*
Y8487100D01*
G01Y8322300D02*
X3587900Y8335100D01*
X3579400Y8346400D01*
X3566700Y8356000D01*
X3551900Y8362500D01*
X3535000Y8365700D01*
X3518000D01*
X3501100Y8362500D01*
X3486300Y8356000D01*
X3473600Y8346400D01*
X3465100Y8335100D01*
X3463000Y8322300D01*
X3465100Y8309400D01*
X3473600Y8298100D01*
X3486300Y8288500D01*
X3501100Y8282000D01*
X3518000Y8278800D01*
X3535000D01*
X3551900Y8282000D01*
X3566700Y8288500D01*
X3579400Y8298100D01*
X3587900Y8309400D01*
X3590000Y8322300D01*
G01X3484200Y8223300D02*
X3471500Y8213700D01*
X3465100Y8202400D01*
X3463000Y8189500D01*
X3467200Y8173400D01*
X3477800Y8162200D01*
X3490500Y8159000D01*
X3503200Y8160600D01*
X3513800Y8167000D01*
X3535000Y8199200D01*
X3549800Y8213700D01*
X3571000Y8223300D01*
X3590000Y8226500D01*
Y8159000D01*
G01X3806400Y3656400D02*
X3816000Y3662800D01*
X3827300Y3667000D01*
X3840100D01*
X3854600Y3660600D01*
X3865900Y3650100D01*
X3873900Y3637400D01*
X3880400Y3616200D01*
X3882000Y3597100D01*
X3878700Y3578100D01*
X3873900Y3565400D01*
X3864300Y3552700D01*
X3853000Y3544200D01*
X3841800Y3540000D01*
X3830500D01*
X3819200Y3544200D01*
X3809600Y3550600D01*
X3801500Y3559000D01*
G01X3712300Y3540000D02*
Y3667000D01*
X3731600Y3641600D01*
G01Y3540000D02*
X3693000D01*
G01X3840000Y8487100D02*
X3713000D01*
Y8455000D01*
X3719400Y8442100D01*
X3727800Y8432400D01*
X3740500Y8424400D01*
X3755300Y8418000D01*
X3776500Y8416400D01*
X3797700Y8418000D01*
X3812500Y8424400D01*
X3825200Y8432400D01*
X3833700Y8442100D01*
X3840000Y8455000D01*
Y8487100D01*
G01Y8322300D02*
X3837900Y8335100D01*
X3829400Y8346400D01*
X3816700Y8356000D01*
X3801900Y8362500D01*
X3785000Y8365700D01*
X3768000D01*
X3751100Y8362500D01*
X3736300Y8356000D01*
X3723600Y8346400D01*
X3715100Y8335100D01*
X3713000Y8322300D01*
X3715100Y8309400D01*
X3723600Y8298100D01*
X3736300Y8288500D01*
X3751100Y8282000D01*
X3768000Y8278800D01*
X3785000D01*
X3801900Y8282000D01*
X3816700Y8288500D01*
X3829400Y8298100D01*
X3837900Y8309400D01*
X3840000Y8322300D01*
G01Y8192800D02*
X3713000D01*
X3738400Y8212100D01*
G01X3840000D02*
Y8173500D01*
G01X4333900Y380000D02*
Y507000D01*
X4293700D01*
X4280800Y500600D01*
X4272800Y492200D01*
X4269600Y475200D01*
X4272800Y458300D01*
X4282400Y447700D01*
X4293700Y441400D01*
X4333900D01*
G01X4293700D02*
X4269600Y380000D01*
G01X4202800Y485800D02*
X4193200Y498500D01*
X4181900Y504900D01*
X4169000Y507000D01*
X4152900Y502800D01*
X4141700Y492200D01*
X4138500Y479500D01*
X4140100Y466800D01*
X4146500Y456200D01*
X4178700Y435000D01*
X4193200Y420200D01*
X4202800Y399000D01*
X4206000Y380000D01*
X4138500D01*
G01X4070100Y394800D02*
X4058800Y384200D01*
X4046000Y380000D01*
X4033100Y384200D01*
X4021800Y396900D01*
X4013800Y416000D01*
X4010600Y435000D01*
Y458300D01*
X4013800Y477400D01*
X4021800Y494300D01*
X4031500Y502800D01*
X4042800Y507000D01*
X4055600Y502800D01*
X4065300Y494300D01*
X4071700Y481600D01*
X4074900Y464700D01*
X4071700Y449900D01*
X4063700Y435000D01*
X4054000Y426600D01*
X4042800Y424400D01*
X4029900Y428700D01*
X4020200Y439300D01*
X4010600Y458300D01*
G01X4256400Y796400D02*
X4266000Y802800D01*
X4277300Y807000D01*
X4290100D01*
X4304600Y800600D01*
X4315900Y790100D01*
X4323900Y777400D01*
X4330400Y756200D01*
X4332000Y737100D01*
X4328700Y718100D01*
X4323900Y705400D01*
X4314300Y692700D01*
X4303000Y684200D01*
X4291800Y680000D01*
X4280500D01*
X4269200Y684200D01*
X4259600Y690600D01*
X4251500Y699000D01*
G01X4192800Y785800D02*
X4183200Y798500D01*
X4171900Y804900D01*
X4159000Y807000D01*
X4142900Y802800D01*
X4131700Y792200D01*
X4128500Y779500D01*
X4130100Y766800D01*
X4136500Y756200D01*
X4168700Y735000D01*
X4183200Y720200D01*
X4192800Y699000D01*
X4196000Y680000D01*
X4128500D01*
G01X4068100Y705400D02*
X4058500Y690600D01*
X4045600Y682100D01*
X4031100Y680000D01*
X4018300Y682100D01*
X4005400Y692700D01*
X3997400Y705400D01*
X3995800Y718100D01*
X3999000Y732900D01*
X4010200Y743500D01*
X4021500Y747700D01*
X4036000D01*
G01X4021500D02*
X4011800Y754100D01*
X4003800Y764700D01*
X4000600Y777400D01*
X4003800Y790100D01*
X4011800Y800600D01*
X4026300Y807000D01*
X4040800Y804900D01*
X4055300Y796400D01*
G01X4323900Y950000D02*
Y1077000D01*
X4283700D01*
X4270800Y1070600D01*
X4262800Y1062200D01*
X4259600Y1045200D01*
X4262800Y1028300D01*
X4272400Y1017700D01*
X4283700Y1011400D01*
X4323900D01*
G01X4283700D02*
X4259600Y950000D01*
G01X4192800Y1055800D02*
X4183200Y1068500D01*
X4171900Y1074900D01*
X4159000Y1077000D01*
X4142900Y1072800D01*
X4131700Y1062200D01*
X4128500Y1049500D01*
X4130100Y1036800D01*
X4136500Y1026200D01*
X4168700Y1005000D01*
X4183200Y990200D01*
X4192800Y969000D01*
X4196000Y950000D01*
X4128500D01*
G01X4036000D02*
X4032800Y977500D01*
X4027900Y1000800D01*
X4021500Y1022000D01*
X4013400Y1045200D01*
X4000600Y1077000D01*
X4064900D01*
G01X4193900Y4040000D02*
Y4167000D01*
X4153700D01*
X4140800Y4160600D01*
X4132800Y4152200D01*
X4129600Y4135200D01*
X4132800Y4118300D01*
X4142400Y4107700D01*
X4153700Y4101400D01*
X4193900D01*
G01X4153700D02*
X4129600Y4040000D01*
G01X4012900D02*
Y4167000D01*
X4072500Y4076000D01*
X3992000D01*
G01X4100000Y8487100D02*
X3973000D01*
Y8455000D01*
X3979400Y8442100D01*
X3987800Y8432400D01*
X4000500Y8424400D01*
X4015300Y8418000D01*
X4036500Y8416400D01*
X4057700Y8418000D01*
X4072500Y8424400D01*
X4085200Y8432400D01*
X4093700Y8442100D01*
X4100000Y8455000D01*
Y8487100D01*
G01Y8322300D02*
X4097900Y8335100D01*
X4089400Y8346400D01*
X4076700Y8356000D01*
X4061900Y8362500D01*
X4045000Y8365700D01*
X4028000D01*
X4011100Y8362500D01*
X3996300Y8356000D01*
X3983600Y8346400D01*
X3975100Y8335100D01*
X3973000Y8322300D01*
X3975100Y8309400D01*
X3983600Y8298100D01*
X3996300Y8288500D01*
X4011100Y8282000D01*
X4028000Y8278800D01*
X4045000D01*
X4061900Y8282000D01*
X4076700Y8288500D01*
X4089400Y8298100D01*
X4097900Y8309400D01*
X4100000Y8322300D01*
G01X3973000Y8192800D02*
X3977200Y8205600D01*
X3987800Y8215300D01*
X4000500Y8221700D01*
X4017500Y8226500D01*
X4036500Y8228100D01*
X4055600Y8226500D01*
X4072500Y8221700D01*
X4085200Y8215300D01*
X4095800Y8205600D01*
X4100000Y8192800D01*
X4095800Y8179900D01*
X4085200Y8170200D01*
X4072500Y8163800D01*
X4055600Y8159000D01*
X4036500Y8157400D01*
X4017500Y8159000D01*
X4000500Y8163800D01*
X3987800Y8170200D01*
X3977200Y8179900D01*
X3973000Y8192800D01*
G01X4553900Y1480000D02*
Y1607000D01*
X4513700D01*
X4500800Y1600600D01*
X4492800Y1592200D01*
X4489600Y1575200D01*
X4492800Y1558300D01*
X4502400Y1547700D01*
X4513700Y1541400D01*
X4553900D01*
G01X4513700D02*
X4489600Y1480000D01*
G01X4422800Y1585800D02*
X4413200Y1598500D01*
X4401900Y1604900D01*
X4389000Y1607000D01*
X4372900Y1602800D01*
X4361700Y1592200D01*
X4358500Y1579500D01*
X4360100Y1566800D01*
X4366500Y1556200D01*
X4398700Y1535000D01*
X4413200Y1520200D01*
X4422800Y1499000D01*
X4426000Y1480000D01*
X4358500D01*
G01X4262800D02*
X4251500Y1482100D01*
X4238600Y1488500D01*
X4230600Y1499000D01*
X4227400Y1513900D01*
X4230600Y1528700D01*
X4240200Y1541400D01*
X4254700Y1547700D01*
X4270800D01*
X4280400Y1552000D01*
X4288500Y1562500D01*
X4291700Y1577400D01*
X4286900Y1592200D01*
X4275600Y1602800D01*
X4262800Y1607000D01*
X4249900Y1602800D01*
X4238600Y1592200D01*
X4233800Y1577400D01*
X4237000Y1562500D01*
X4245100Y1552000D01*
X4254700Y1547700D01*
X4270800D01*
X4285300Y1541400D01*
X4294900Y1528700D01*
X4298100Y1513900D01*
X4294900Y1499000D01*
X4286900Y1488500D01*
X4274000Y1482100D01*
X4262800Y1480000D01*
G01X4543900Y2470000D02*
Y2597000D01*
X4503700D01*
X4490800Y2590600D01*
X4482800Y2582200D01*
X4479600Y2565200D01*
X4482800Y2548300D01*
X4492400Y2537700D01*
X4503700Y2531400D01*
X4543900D01*
G01X4503700D02*
X4479600Y2470000D01*
G01X4417600Y2495400D02*
X4408000Y2480600D01*
X4395100Y2472100D01*
X4380600Y2470000D01*
X4367800Y2472100D01*
X4354900Y2482700D01*
X4346900Y2495400D01*
X4345300Y2508100D01*
X4348500Y2522900D01*
X4359700Y2533500D01*
X4371000Y2537700D01*
X4385500D01*
G01X4371000D02*
X4361300Y2544100D01*
X4353300Y2554700D01*
X4350100Y2567400D01*
X4353300Y2580100D01*
X4361300Y2590600D01*
X4375800Y2597000D01*
X4390300Y2594900D01*
X4404800Y2586400D01*
G01X4288100Y2495400D02*
X4278500Y2480600D01*
X4265600Y2472100D01*
X4251100Y2470000D01*
X4238300Y2472100D01*
X4225400Y2482700D01*
X4217400Y2495400D01*
X4215800Y2508100D01*
X4219000Y2522900D01*
X4230200Y2533500D01*
X4241500Y2537700D01*
X4256000D01*
G01X4241500D02*
X4231800Y2544100D01*
X4223800Y2554700D01*
X4220600Y2567400D01*
X4223800Y2580100D01*
X4231800Y2590600D01*
X4246300Y2597000D01*
X4260800Y2594900D01*
X4275300Y2586400D01*
G01X4573900Y5620000D02*
Y5747000D01*
X4533700D01*
X4520800Y5740600D01*
X4512800Y5732200D01*
X4509600Y5715200D01*
X4512800Y5698300D01*
X4522400Y5687700D01*
X4533700Y5681400D01*
X4573900D01*
G01X4533700D02*
X4509600Y5620000D01*
G01X4392900D02*
Y5747000D01*
X4452500Y5656000D01*
X4372000D01*
G01X4263400Y5620000D02*
Y5747000D01*
X4323000Y5656000D01*
X4242500D01*
G01X4776400Y1946400D02*
X4786000Y1952800D01*
X4797300Y1957000D01*
X4810100D01*
X4824600Y1950600D01*
X4835900Y1940100D01*
X4843900Y1927400D01*
X4850400Y1906200D01*
X4852000Y1887100D01*
X4848700Y1868100D01*
X4843900Y1855400D01*
X4834300Y1842700D01*
X4823000Y1834200D01*
X4811800Y1830000D01*
X4800500D01*
X4789200Y1834200D01*
X4779600Y1840600D01*
X4771500Y1849000D01*
G01X4712800Y1935800D02*
X4703200Y1948500D01*
X4691900Y1954900D01*
X4679000Y1957000D01*
X4662900Y1952800D01*
X4651700Y1942200D01*
X4648500Y1929500D01*
X4650100Y1916800D01*
X4656500Y1906200D01*
X4688700Y1885000D01*
X4703200Y1870200D01*
X4712800Y1849000D01*
X4716000Y1830000D01*
X4648500D01*
G01X4588100Y1849000D02*
X4578500Y1838500D01*
X4567200Y1832100D01*
X4552800Y1830000D01*
X4538300Y1834200D01*
X4527000Y1842700D01*
X4519000Y1857500D01*
X4517400Y1874400D01*
X4520600Y1891400D01*
X4528600Y1902000D01*
X4539900Y1910400D01*
X4551100Y1912500D01*
X4562400Y1910400D01*
X4576900Y1902000D01*
X4572100Y1957000D01*
X4528600D01*
G01X4823900Y2110000D02*
Y2237000D01*
X4783700D01*
X4770800Y2230600D01*
X4762800Y2222200D01*
X4759600Y2205200D01*
X4762800Y2188300D01*
X4772400Y2177700D01*
X4783700Y2171400D01*
X4823900D01*
G01X4783700D02*
X4759600Y2110000D01*
G01X4697600Y2135400D02*
X4688000Y2120600D01*
X4675100Y2112100D01*
X4660600Y2110000D01*
X4647800Y2112100D01*
X4634900Y2122700D01*
X4626900Y2135400D01*
X4625300Y2148100D01*
X4628500Y2162900D01*
X4639700Y2173500D01*
X4651000Y2177700D01*
X4665500D01*
G01X4651000D02*
X4641300Y2184100D01*
X4633300Y2194700D01*
X4630100Y2207400D01*
X4633300Y2220100D01*
X4641300Y2230600D01*
X4655800Y2237000D01*
X4670300Y2234900D01*
X4684800Y2226400D01*
G01X4563300Y2162900D02*
X4552100Y2177700D01*
X4542400Y2186200D01*
X4529500Y2190400D01*
X4518300Y2186200D01*
X4510200Y2177700D01*
X4503800Y2165000D01*
X4502200Y2150200D01*
X4503800Y2137500D01*
X4510200Y2124800D01*
X4519900Y2114200D01*
X4531100Y2110000D01*
X4544000Y2114200D01*
X4555300Y2126900D01*
X4561700Y2146000D01*
X4563300Y2167100D01*
X4560100Y2194700D01*
X4555300Y2209500D01*
X4547200Y2224300D01*
X4536000Y2234900D01*
X4524700Y2237000D01*
X4513400Y2232800D01*
X4505400Y2222200D01*
G01X4766400Y2986400D02*
X4776000Y2992800D01*
X4787300Y2997000D01*
X4800100D01*
X4814600Y2990600D01*
X4825900Y2980100D01*
X4833900Y2967400D01*
X4840400Y2946200D01*
X4842000Y2927100D01*
X4838700Y2908100D01*
X4833900Y2895400D01*
X4824300Y2882700D01*
X4813000Y2874200D01*
X4801800Y2870000D01*
X4790500D01*
X4779200Y2874200D01*
X4769600Y2880600D01*
X4761500Y2889000D01*
G01X4702800Y2975800D02*
X4693200Y2988500D01*
X4681900Y2994900D01*
X4669000Y2997000D01*
X4652900Y2992800D01*
X4641700Y2982200D01*
X4638500Y2969500D01*
X4640100Y2956800D01*
X4646500Y2946200D01*
X4678700Y2925000D01*
X4693200Y2910200D01*
X4702800Y2889000D01*
X4706000Y2870000D01*
X4638500D01*
G01X4573300Y2922900D02*
X4562100Y2937700D01*
X4552400Y2946200D01*
X4539500Y2950400D01*
X4528300Y2946200D01*
X4520200Y2937700D01*
X4513800Y2925000D01*
X4512200Y2910200D01*
X4513800Y2897500D01*
X4520200Y2884800D01*
X4529900Y2874200D01*
X4541100Y2870000D01*
X4554000Y2874200D01*
X4565300Y2886900D01*
X4571700Y2906000D01*
X4573300Y2927100D01*
X4570100Y2954700D01*
X4565300Y2969500D01*
X4557200Y2984300D01*
X4546000Y2994900D01*
X4534700Y2997000D01*
X4523400Y2992800D01*
X4515400Y2982200D01*
G01X4813900Y3120000D02*
Y3247000D01*
X4773700D01*
X4760800Y3240600D01*
X4752800Y3232200D01*
X4749600Y3215200D01*
X4752800Y3198300D01*
X4762400Y3187700D01*
X4773700Y3181400D01*
X4813900D01*
G01X4773700D02*
X4749600Y3120000D01*
G01X4687600Y3145400D02*
X4678000Y3130600D01*
X4665100Y3122100D01*
X4650600Y3120000D01*
X4637800Y3122100D01*
X4624900Y3132700D01*
X4616900Y3145400D01*
X4615300Y3158100D01*
X4618500Y3172900D01*
X4629700Y3183500D01*
X4641000Y3187700D01*
X4655500D01*
G01X4641000D02*
X4631300Y3194100D01*
X4623300Y3204700D01*
X4620100Y3217400D01*
X4623300Y3230100D01*
X4631300Y3240600D01*
X4645800Y3247000D01*
X4660300Y3244900D01*
X4674800Y3236400D01*
G01X4526000Y3120000D02*
X4522800Y3147500D01*
X4517900Y3170800D01*
X4511500Y3192000D01*
X4503400Y3215200D01*
X4490600Y3247000D01*
X4554900D01*
G01X4843900Y3800000D02*
Y3927000D01*
X4803700D01*
X4790800Y3920600D01*
X4782800Y3912200D01*
X4779600Y3895200D01*
X4782800Y3878300D01*
X4792400Y3867700D01*
X4803700Y3861400D01*
X4843900D01*
G01X4803700D02*
X4779600Y3800000D01*
G01X4717600Y3825400D02*
X4708000Y3810600D01*
X4695100Y3802100D01*
X4680600Y3800000D01*
X4667800Y3802100D01*
X4654900Y3812700D01*
X4646900Y3825400D01*
X4645300Y3838100D01*
X4648500Y3852900D01*
X4659700Y3863500D01*
X4671000Y3867700D01*
X4685500D01*
G01X4671000D02*
X4661300Y3874100D01*
X4653300Y3884700D01*
X4650100Y3897400D01*
X4653300Y3910100D01*
X4661300Y3920600D01*
X4675800Y3927000D01*
X4690300Y3924900D01*
X4704800Y3916400D01*
G01X4533400Y3800000D02*
Y3927000D01*
X4593000Y3836000D01*
X4512500D01*
G01X5111800Y3800000D02*
X5124600Y3802100D01*
X5135900Y3810600D01*
X5145500Y3823300D01*
X5152000Y3838100D01*
X5155200Y3855000D01*
Y3872000D01*
X5152000Y3888900D01*
X5145500Y3903700D01*
X5135900Y3916400D01*
X5124600Y3924900D01*
X5111800Y3927000D01*
X5098900Y3924900D01*
X5087600Y3916400D01*
X5078000Y3903700D01*
X5071500Y3888900D01*
X5068300Y3872000D01*
Y3855000D01*
X5071500Y3838100D01*
X5078000Y3823300D01*
X5087600Y3810600D01*
X5098900Y3802100D01*
X5111800Y3800000D01*
G01X5098900Y3833900D02*
X5079600Y3800000D01*
G01X4962900D02*
Y3927000D01*
X5022500Y3836000D01*
X4942000D01*
G01X5765500Y7286900D02*
X5752700Y7276300D01*
X5738200Y7270000D01*
X5725300D01*
X5712400Y7276300D01*
X5702800Y7286900D01*
X5698000Y7301800D01*
X5701200Y7316600D01*
X5709200Y7329300D01*
X5723700Y7337700D01*
X5743000Y7342000D01*
X5754300Y7350400D01*
X5759100Y7365200D01*
X5755900Y7380100D01*
X5747800Y7390600D01*
X5736600Y7397000D01*
X5725300D01*
X5714100Y7392800D01*
X5704400Y7382200D01*
G01X5650500Y7397000D02*
X5628000Y7270000D01*
X5602300Y7397000D01*
X5576500Y7270000D01*
X5554000Y7397000D01*
G01X5508100Y7270000D02*
Y7397000D01*
X5476000D01*
X5463100Y7390600D01*
X5453400Y7382200D01*
X5445400Y7369500D01*
X5439000Y7354700D01*
X5437400Y7333500D01*
X5439000Y7312300D01*
X5445400Y7297500D01*
X5453400Y7284800D01*
X5463100Y7276300D01*
X5476000Y7270000D01*
X5508100D01*
G01X5362600Y7397000D02*
X5324000D01*
G01X5343300D02*
Y7270000D01*
G01X5362600D02*
X5324000D01*
G01X5213800D02*
X5226600Y7272100D01*
X5237900Y7280600D01*
X5247500Y7293300D01*
X5254000Y7308100D01*
X5257200Y7325000D01*
Y7342000D01*
X5254000Y7358900D01*
X5247500Y7373700D01*
X5237900Y7386400D01*
X5226600Y7394900D01*
X5213800Y7397000D01*
X5200900Y7394900D01*
X5189600Y7386400D01*
X5180000Y7373700D01*
X5173500Y7358900D01*
X5170300Y7342000D01*
Y7325000D01*
X5173500Y7308100D01*
X5180000Y7293300D01*
X5189600Y7280600D01*
X5200900Y7272100D01*
X5213800Y7270000D01*
G01X5635500Y7536900D02*
X5622700Y7526300D01*
X5608200Y7520000D01*
X5595300D01*
X5582400Y7526300D01*
X5572800Y7536900D01*
X5568000Y7551800D01*
X5571200Y7566600D01*
X5579200Y7579300D01*
X5593700Y7587700D01*
X5613000Y7592000D01*
X5624300Y7600400D01*
X5629100Y7615200D01*
X5625900Y7630100D01*
X5617800Y7640600D01*
X5606600Y7647000D01*
X5595300D01*
X5584100Y7642800D01*
X5574400Y7632200D01*
G01X5520500Y7647000D02*
X5498000Y7520000D01*
X5472300Y7647000D01*
X5446500Y7520000D01*
X5424000Y7647000D01*
G01X5307400Y7636400D02*
X5317000Y7642800D01*
X5328300Y7647000D01*
X5341100D01*
X5355600Y7640600D01*
X5366900Y7630100D01*
X5374900Y7617400D01*
X5381400Y7596200D01*
X5383000Y7577100D01*
X5379700Y7558100D01*
X5374900Y7545400D01*
X5365300Y7532700D01*
X5354000Y7524200D01*
X5342800Y7520000D01*
X5331500D01*
X5320200Y7524200D01*
X5310600Y7530600D01*
X5302500Y7539000D01*
G01X5245400Y7647000D02*
Y7520000D01*
X5181100D01*
G01X5119100D02*
Y7647000D01*
G01X5058000D02*
X5119100Y7568700D01*
G01X5048400Y7520000D02*
X5091800Y7604700D01*
G01X5491800Y690000D02*
X5504600Y692100D01*
X5515900Y700600D01*
X5525500Y713300D01*
X5532000Y728100D01*
X5535200Y745000D01*
Y762000D01*
X5532000Y778900D01*
X5525500Y793700D01*
X5515900Y806400D01*
X5504600Y814900D01*
X5491800Y817000D01*
X5478900Y814900D01*
X5467600Y806400D01*
X5458000Y793700D01*
X5451500Y778900D01*
X5448300Y762000D01*
Y745000D01*
X5451500Y728100D01*
X5458000Y713300D01*
X5467600Y700600D01*
X5478900Y692100D01*
X5491800Y690000D01*
G01X5478900Y723900D02*
X5459600Y690000D01*
G01X5362300D02*
Y817000D01*
X5381600Y791600D01*
G01Y690000D02*
X5343000D01*
G01X5521800Y1700000D02*
X5534600Y1702100D01*
X5545900Y1710600D01*
X5555500Y1723300D01*
X5562000Y1738100D01*
X5565200Y1755000D01*
Y1772000D01*
X5562000Y1788900D01*
X5555500Y1803700D01*
X5545900Y1816400D01*
X5534600Y1824900D01*
X5521800Y1827000D01*
X5508900Y1824900D01*
X5497600Y1816400D01*
X5488000Y1803700D01*
X5481500Y1788900D01*
X5478300Y1772000D01*
Y1755000D01*
X5481500Y1738100D01*
X5488000Y1723300D01*
X5497600Y1710600D01*
X5508900Y1702100D01*
X5521800Y1700000D01*
G01X5508900Y1733900D02*
X5489600Y1700000D01*
G01X5422800Y1805800D02*
X5413200Y1818500D01*
X5401900Y1824900D01*
X5389000Y1827000D01*
X5372900Y1822800D01*
X5361700Y1812200D01*
X5358500Y1799500D01*
X5360100Y1786800D01*
X5366500Y1776200D01*
X5398700Y1755000D01*
X5413200Y1740200D01*
X5422800Y1719000D01*
X5426000Y1700000D01*
X5358500D01*
G01X5501800Y2700000D02*
X5514600Y2702100D01*
X5525900Y2710600D01*
X5535500Y2723300D01*
X5542000Y2738100D01*
X5545200Y2755000D01*
Y2772000D01*
X5542000Y2788900D01*
X5535500Y2803700D01*
X5525900Y2816400D01*
X5514600Y2824900D01*
X5501800Y2827000D01*
X5488900Y2824900D01*
X5477600Y2816400D01*
X5468000Y2803700D01*
X5461500Y2788900D01*
X5458300Y2772000D01*
Y2755000D01*
X5461500Y2738100D01*
X5468000Y2723300D01*
X5477600Y2710600D01*
X5488900Y2702100D01*
X5501800Y2700000D01*
G01X5488900Y2733900D02*
X5469600Y2700000D01*
G01X5407600Y2725400D02*
X5398000Y2710600D01*
X5385100Y2702100D01*
X5370600Y2700000D01*
X5357800Y2702100D01*
X5344900Y2712700D01*
X5336900Y2725400D01*
X5335300Y2738100D01*
X5338500Y2752900D01*
X5349700Y2763500D01*
X5361000Y2767700D01*
X5375500D01*
G01X5361000D02*
X5351300Y2774100D01*
X5343300Y2784700D01*
X5340100Y2797400D01*
X5343300Y2810100D01*
X5351300Y2820600D01*
X5365800Y2827000D01*
X5380300Y2824900D01*
X5394800Y2816400D01*
G01X5695500Y7806900D02*
X5682700Y7796300D01*
X5668200Y7790000D01*
X5655300D01*
X5642400Y7796300D01*
X5632800Y7806900D01*
X5628000Y7821800D01*
X5631200Y7836600D01*
X5639200Y7849300D01*
X5653700Y7857700D01*
X5673000Y7862000D01*
X5684300Y7870400D01*
X5689100Y7885200D01*
X5685900Y7900100D01*
X5677800Y7910600D01*
X5666600Y7917000D01*
X5655300D01*
X5644100Y7912800D01*
X5634400Y7902200D01*
G01X5580500Y7917000D02*
X5558000Y7790000D01*
X5532300Y7917000D01*
X5506500Y7790000D01*
X5484000Y7917000D01*
G01X5402800Y7790000D02*
X5415600Y7792100D01*
X5426900Y7800600D01*
X5436500Y7813300D01*
X5443000Y7828100D01*
X5446200Y7845000D01*
Y7862000D01*
X5443000Y7878900D01*
X5436500Y7893700D01*
X5426900Y7906400D01*
X5415600Y7914900D01*
X5402800Y7917000D01*
X5389900Y7914900D01*
X5378600Y7906400D01*
X5369000Y7893700D01*
X5362500Y7878900D01*
X5359300Y7862000D01*
Y7845000D01*
X5362500Y7828100D01*
X5369000Y7813300D01*
X5378600Y7800600D01*
X5389900Y7792100D01*
X5402800Y7790000D01*
G01X5936400Y1016400D02*
X5946000Y1022800D01*
X5957300Y1027000D01*
X5970100D01*
X5984600Y1020600D01*
X5995900Y1010100D01*
X6003900Y997400D01*
X6010400Y976200D01*
X6012000Y957100D01*
X6008700Y938100D01*
X6003900Y925400D01*
X5994300Y912700D01*
X5983000Y904200D01*
X5971800Y900000D01*
X5960500D01*
X5949200Y904200D01*
X5939600Y910600D01*
X5931500Y919000D01*
G01X5872800Y1005800D02*
X5863200Y1018500D01*
X5851900Y1024900D01*
X5839000Y1027000D01*
X5822900Y1022800D01*
X5811700Y1012200D01*
X5808500Y999500D01*
X5810100Y986800D01*
X5816500Y976200D01*
X5848700Y955000D01*
X5863200Y940200D01*
X5872800Y919000D01*
X5876000Y900000D01*
X5808500D01*
G01X5693400D02*
Y1027000D01*
X5753000Y936000D01*
X5672500D01*
G01X5813900Y1200000D02*
Y1327000D01*
X5773700D01*
X5760800Y1320600D01*
X5752800Y1312200D01*
X5749600Y1295200D01*
X5752800Y1278300D01*
X5762400Y1267700D01*
X5773700Y1261400D01*
X5813900D01*
G01X5773700D02*
X5749600Y1200000D01*
G01X5687600Y1225400D02*
X5678000Y1210600D01*
X5665100Y1202100D01*
X5650600Y1200000D01*
X5637800Y1202100D01*
X5624900Y1212700D01*
X5616900Y1225400D01*
X5615300Y1238100D01*
X5618500Y1252900D01*
X5629700Y1263500D01*
X5641000Y1267700D01*
X5655500D01*
G01X5641000D02*
X5631300Y1274100D01*
X5623300Y1284700D01*
X5620100Y1297400D01*
X5623300Y1310100D01*
X5631300Y1320600D01*
X5645800Y1327000D01*
X5660300Y1324900D01*
X5674800Y1316400D01*
G01X5522800Y1327000D02*
X5535600Y1322800D01*
X5545300Y1312200D01*
X5551700Y1299500D01*
X5556500Y1282500D01*
X5558100Y1263500D01*
X5556500Y1244400D01*
X5551700Y1227500D01*
X5545300Y1214800D01*
X5535600Y1204200D01*
X5522800Y1200000D01*
X5509900Y1204200D01*
X5500200Y1214800D01*
X5493800Y1227500D01*
X5489000Y1244400D01*
X5487400Y1263500D01*
X5489000Y1282500D01*
X5493800Y1299500D01*
X5500200Y1312200D01*
X5509900Y1322800D01*
X5522800Y1327000D01*
G01X5973900Y5850000D02*
Y5977000D01*
X5933700D01*
X5920800Y5970600D01*
X5912800Y5962200D01*
X5909600Y5945200D01*
X5912800Y5928300D01*
X5922400Y5917700D01*
X5933700Y5911400D01*
X5973900D01*
G01X5933700D02*
X5909600Y5850000D01*
G01X5842800Y5955800D02*
X5833200Y5968500D01*
X5821900Y5974900D01*
X5809000Y5977000D01*
X5792900Y5972800D01*
X5781700Y5962200D01*
X5778500Y5949500D01*
X5780100Y5936800D01*
X5786500Y5926200D01*
X5818700Y5905000D01*
X5833200Y5890200D01*
X5842800Y5869000D01*
X5846000Y5850000D01*
X5778500D01*
G01X5718100Y5875400D02*
X5708500Y5860600D01*
X5695600Y5852100D01*
X5681100Y5850000D01*
X5668300Y5852100D01*
X5655400Y5862700D01*
X5647400Y5875400D01*
X5645800Y5888100D01*
X5649000Y5902900D01*
X5660200Y5913500D01*
X5671500Y5917700D01*
X5686000D01*
G01X5671500D02*
X5661800Y5924100D01*
X5653800Y5934700D01*
X5650600Y5947400D01*
X5653800Y5960100D01*
X5661800Y5970600D01*
X5676300Y5977000D01*
X5690800Y5974900D01*
X5705300Y5966400D01*
G01X5963900Y6290000D02*
Y6417000D01*
X5923700D01*
X5910800Y6410600D01*
X5902800Y6402200D01*
X5899600Y6385200D01*
X5902800Y6368300D01*
X5912400Y6357700D01*
X5923700Y6351400D01*
X5963900D01*
G01X5923700D02*
X5899600Y6290000D01*
G01X5837600Y6315400D02*
X5828000Y6300600D01*
X5815100Y6292100D01*
X5800600Y6290000D01*
X5787800Y6292100D01*
X5774900Y6302700D01*
X5766900Y6315400D01*
X5765300Y6328100D01*
X5768500Y6342900D01*
X5779700Y6353500D01*
X5791000Y6357700D01*
X5805500D01*
G01X5791000D02*
X5781300Y6364100D01*
X5773300Y6374700D01*
X5770100Y6387400D01*
X5773300Y6400100D01*
X5781300Y6410600D01*
X5795800Y6417000D01*
X5810300Y6414900D01*
X5824800Y6406400D01*
G01X5672800Y6290000D02*
Y6417000D01*
X5692100Y6391600D01*
G01Y6290000D02*
X5653500D01*
G01X5973900Y6070000D02*
Y6197000D01*
X5933700D01*
X5920800Y6190600D01*
X5912800Y6182200D01*
X5909600Y6165200D01*
X5912800Y6148300D01*
X5922400Y6137700D01*
X5933700Y6131400D01*
X5973900D01*
G01X5933700D02*
X5909600Y6070000D01*
G01X5842800Y6175800D02*
X5833200Y6188500D01*
X5821900Y6194900D01*
X5809000Y6197000D01*
X5792900Y6192800D01*
X5781700Y6182200D01*
X5778500Y6169500D01*
X5780100Y6156800D01*
X5786500Y6146200D01*
X5818700Y6125000D01*
X5833200Y6110200D01*
X5842800Y6089000D01*
X5846000Y6070000D01*
X5778500D01*
G01X5718100Y6089000D02*
X5708500Y6078500D01*
X5697200Y6072100D01*
X5682800Y6070000D01*
X5668300Y6074200D01*
X5657000Y6082700D01*
X5649000Y6097500D01*
X5647400Y6114400D01*
X5650600Y6131400D01*
X5658600Y6142000D01*
X5669900Y6150400D01*
X5681100Y6152500D01*
X5692400Y6150400D01*
X5706900Y6142000D01*
X5702100Y6197000D01*
X5658600D01*
G01X5993900Y6510000D02*
Y6637000D01*
X5953700D01*
X5940800Y6630600D01*
X5932800Y6622200D01*
X5929600Y6605200D01*
X5932800Y6588300D01*
X5942400Y6577700D01*
X5953700Y6571400D01*
X5993900D01*
G01X5953700D02*
X5929600Y6510000D01*
G01X5867600Y6535400D02*
X5858000Y6520600D01*
X5845100Y6512100D01*
X5830600Y6510000D01*
X5817800Y6512100D01*
X5804900Y6522700D01*
X5796900Y6535400D01*
X5795300Y6548100D01*
X5798500Y6562900D01*
X5809700Y6573500D01*
X5821000Y6577700D01*
X5835500D01*
G01X5821000D02*
X5811300Y6584100D01*
X5803300Y6594700D01*
X5800100Y6607400D01*
X5803300Y6620100D01*
X5811300Y6630600D01*
X5825800Y6637000D01*
X5840300Y6634900D01*
X5854800Y6626400D01*
G01X5738100Y6529000D02*
X5728500Y6518500D01*
X5717200Y6512100D01*
X5702800Y6510000D01*
X5688300Y6514200D01*
X5677000Y6522700D01*
X5669000Y6537500D01*
X5667400Y6554400D01*
X5670600Y6571400D01*
X5678600Y6582000D01*
X5689900Y6590400D01*
X5701100Y6592500D01*
X5712400Y6590400D01*
X5726900Y6582000D01*
X5722100Y6637000D01*
X5678600D01*
G01X6582100Y7203500D02*
X6549900D01*
Y7165400D01*
X6559600Y7152700D01*
X6570800Y7144200D01*
X6586900Y7140000D01*
X6603000Y7144200D01*
X6614300Y7152700D01*
X6623900Y7165400D01*
X6630400Y7180200D01*
X6633600Y7197100D01*
Y7212000D01*
X6630400Y7224700D01*
X6623900Y7239500D01*
X6614300Y7252200D01*
X6604600Y7260600D01*
X6591800Y7267000D01*
X6580500D01*
X6567600Y7262800D01*
X6558000Y7254300D01*
G01X6499200Y7140000D02*
Y7267000D01*
X6425300Y7140000D01*
Y7267000D01*
G01X6368100Y7140000D02*
Y7267000D01*
X6336000D01*
X6323100Y7260600D01*
X6313400Y7252200D01*
X6305400Y7239500D01*
X6299000Y7224700D01*
X6297400Y7203500D01*
X6299000Y7182300D01*
X6305400Y7167500D01*
X6313400Y7154800D01*
X6323100Y7146300D01*
X6336000Y7140000D01*
X6368100D01*
G01X6682000Y7667000D02*
X6641800Y7540000D01*
X6601500Y7667000D01*
G01X6476900Y7656400D02*
X6486500Y7662800D01*
X6497800Y7667000D01*
X6510600D01*
X6525100Y7660600D01*
X6536400Y7650100D01*
X6544400Y7637400D01*
X6550900Y7616200D01*
X6552500Y7597100D01*
X6549200Y7578100D01*
X6544400Y7565400D01*
X6534800Y7552700D01*
X6523500Y7544200D01*
X6512300Y7540000D01*
X6501000D01*
X6489700Y7544200D01*
X6480100Y7550600D01*
X6472000Y7559000D01*
G01X6347400Y7656400D02*
X6357000Y7662800D01*
X6368300Y7667000D01*
X6381100D01*
X6395600Y7660600D01*
X6406900Y7650100D01*
X6414900Y7637400D01*
X6421400Y7616200D01*
X6423000Y7597100D01*
X6419700Y7578100D01*
X6414900Y7565400D01*
X6405300Y7552700D01*
X6394000Y7544200D01*
X6382800Y7540000D01*
X6371500D01*
X6360200Y7544200D01*
X6350600Y7550600D01*
X6342500Y7559000D01*
G01X6673900Y7790000D02*
Y7917000D01*
X6633700D01*
X6620800Y7910600D01*
X6612800Y7902200D01*
X6609600Y7885200D01*
X6612800Y7868300D01*
X6622400Y7857700D01*
X6633700Y7851400D01*
X6673900D01*
G01X6633700D02*
X6609600Y7790000D01*
G01X6546000Y7806900D02*
X6533200Y7796300D01*
X6518700Y7790000D01*
X6505800D01*
X6492900Y7796300D01*
X6483300Y7806900D01*
X6478500Y7821800D01*
X6481700Y7836600D01*
X6489700Y7849300D01*
X6504200Y7857700D01*
X6523500Y7862000D01*
X6534800Y7870400D01*
X6539600Y7885200D01*
X6536400Y7900100D01*
X6528300Y7910600D01*
X6517100Y7917000D01*
X6505800D01*
X6494600Y7912800D01*
X6484900Y7902200D01*
G01X6382800Y7917000D02*
Y7790000D01*
G01X6419700Y7917000D02*
X6345800D01*
G01X7043900Y5910000D02*
Y6037000D01*
X7003700D01*
X6990800Y6030600D01*
X6982800Y6022200D01*
X6979600Y6005200D01*
X6982800Y5988300D01*
X6992400Y5977700D01*
X7003700Y5971400D01*
X7043900D01*
G01X7003700D02*
X6979600Y5910000D01*
G01X6912800Y6015800D02*
X6903200Y6028500D01*
X6891900Y6034900D01*
X6879000Y6037000D01*
X6862900Y6032800D01*
X6851700Y6022200D01*
X6848500Y6009500D01*
X6850100Y5996800D01*
X6856500Y5986200D01*
X6888700Y5965000D01*
X6903200Y5950200D01*
X6912800Y5929000D01*
X6916000Y5910000D01*
X6848500D01*
G01X6733400D02*
Y6037000D01*
X6793000Y5946000D01*
X6712500D01*
G01X7043900Y6160000D02*
Y6287000D01*
X7003700D01*
X6990800Y6280600D01*
X6982800Y6272200D01*
X6979600Y6255200D01*
X6982800Y6238300D01*
X6992400Y6227700D01*
X7003700Y6221400D01*
X7043900D01*
G01X7003700D02*
X6979600Y6160000D01*
G01X6912800Y6265800D02*
X6903200Y6278500D01*
X6891900Y6284900D01*
X6879000Y6287000D01*
X6862900Y6282800D01*
X6851700Y6272200D01*
X6848500Y6259500D01*
X6850100Y6246800D01*
X6856500Y6236200D01*
X6888700Y6215000D01*
X6903200Y6200200D01*
X6912800Y6179000D01*
X6916000Y6160000D01*
X6848500D01*
G01X6783300Y6212900D02*
X6772100Y6227700D01*
X6762400Y6236200D01*
X6749500Y6240400D01*
X6738300Y6236200D01*
X6730200Y6227700D01*
X6723800Y6215000D01*
X6722200Y6200200D01*
X6723800Y6187500D01*
X6730200Y6174800D01*
X6739900Y6164200D01*
X6751100Y6160000D01*
X6764000Y6164200D01*
X6775300Y6176900D01*
X6781700Y6196000D01*
X6783300Y6217100D01*
X6780100Y6244700D01*
X6775300Y6259500D01*
X6767200Y6274300D01*
X6756000Y6284900D01*
X6744700Y6287000D01*
X6733400Y6282800D01*
X6725400Y6272200D01*
G01X7043900Y6420000D02*
Y6547000D01*
X7003700D01*
X6990800Y6540600D01*
X6982800Y6532200D01*
X6979600Y6515200D01*
X6982800Y6498300D01*
X6992400Y6487700D01*
X7003700Y6481400D01*
X7043900D01*
G01X7003700D02*
X6979600Y6420000D01*
G01X6917600Y6445400D02*
X6908000Y6430600D01*
X6895100Y6422100D01*
X6880600Y6420000D01*
X6867800Y6422100D01*
X6854900Y6432700D01*
X6846900Y6445400D01*
X6845300Y6458100D01*
X6848500Y6472900D01*
X6859700Y6483500D01*
X6871000Y6487700D01*
X6885500D01*
G01X6871000D02*
X6861300Y6494100D01*
X6853300Y6504700D01*
X6850100Y6517400D01*
X6853300Y6530100D01*
X6861300Y6540600D01*
X6875800Y6547000D01*
X6890300Y6544900D01*
X6904800Y6536400D01*
G01X6783300Y6525800D02*
X6773700Y6538500D01*
X6762400Y6544900D01*
X6749500Y6547000D01*
X6733400Y6542800D01*
X6722200Y6532200D01*
X6719000Y6519500D01*
X6720600Y6506800D01*
X6727000Y6496200D01*
X6759200Y6475000D01*
X6773700Y6460200D01*
X6783300Y6439000D01*
X6786500Y6420000D01*
X6719000D01*
G01X7043900Y6670000D02*
Y6797000D01*
X7003700D01*
X6990800Y6790600D01*
X6982800Y6782200D01*
X6979600Y6765200D01*
X6982800Y6748300D01*
X6992400Y6737700D01*
X7003700Y6731400D01*
X7043900D01*
G01X7003700D02*
X6979600Y6670000D01*
G01X6917600Y6695400D02*
X6908000Y6680600D01*
X6895100Y6672100D01*
X6880600Y6670000D01*
X6867800Y6672100D01*
X6854900Y6682700D01*
X6846900Y6695400D01*
X6845300Y6708100D01*
X6848500Y6722900D01*
X6859700Y6733500D01*
X6871000Y6737700D01*
X6885500D01*
G01X6871000D02*
X6861300Y6744100D01*
X6853300Y6754700D01*
X6850100Y6767400D01*
X6853300Y6780100D01*
X6861300Y6790600D01*
X6875800Y6797000D01*
X6890300Y6794900D01*
X6904800Y6786400D01*
G01X6752800Y6670000D02*
X6741500Y6672100D01*
X6728600Y6678500D01*
X6720600Y6689000D01*
X6717400Y6703900D01*
X6720600Y6718700D01*
X6730200Y6731400D01*
X6744700Y6737700D01*
X6760800D01*
X6770400Y6742000D01*
X6778500Y6752500D01*
X6781700Y6767400D01*
X6776900Y6782200D01*
X6765600Y6792800D01*
X6752800Y6797000D01*
X6739900Y6792800D01*
X6728600Y6782200D01*
X6723800Y6767400D01*
X6727000Y6752500D01*
X6735100Y6742000D01*
X6744700Y6737700D01*
X6760800D01*
X6775300Y6731400D01*
X6784900Y6718700D01*
X6788100Y6703900D01*
X6784900Y6689000D01*
X6776900Y6678500D01*
X6764000Y6672100D01*
X6752800Y6670000D01*
G01X7597100Y5950000D02*
Y6077000D01*
X7565000D01*
X7552100Y6070600D01*
X7542400Y6062200D01*
X7534400Y6049500D01*
X7528000Y6034700D01*
X7526400Y6013500D01*
X7528000Y5992300D01*
X7534400Y5977500D01*
X7542400Y5964800D01*
X7552100Y5956300D01*
X7565000Y5950000D01*
X7597100D01*
G01X7435500D02*
X7432300Y5977500D01*
X7427400Y6000800D01*
X7421000Y6022000D01*
X7412900Y6045200D01*
X7400100Y6077000D01*
X7464400D01*
G01X7617100Y7490000D02*
Y7617000D01*
X7585000D01*
X7572100Y7610600D01*
X7562400Y7602200D01*
X7554400Y7589500D01*
X7548000Y7574700D01*
X7546400Y7553500D01*
X7548000Y7532300D01*
X7554400Y7517500D01*
X7562400Y7504800D01*
X7572100Y7496300D01*
X7585000Y7490000D01*
X7617100D01*
G01X7452300D02*
X7441000Y7492100D01*
X7428100Y7498500D01*
X7420100Y7509000D01*
X7416900Y7523900D01*
X7420100Y7538700D01*
X7429700Y7551400D01*
X7444200Y7557700D01*
X7460300D01*
X7469900Y7562000D01*
X7478000Y7572500D01*
X7481200Y7587400D01*
X7476400Y7602200D01*
X7465100Y7612800D01*
X7452300Y7617000D01*
X7439400Y7612800D01*
X7428100Y7602200D01*
X7423300Y7587400D01*
X7426500Y7572500D01*
X7434600Y7562000D01*
X7444200Y7557700D01*
X7460300D01*
X7474800Y7551400D01*
X7484400Y7538700D01*
X7487600Y7523900D01*
X7484400Y7509000D01*
X7476400Y7498500D01*
X7463500Y7492100D01*
X7452300Y7490000D01*
G01X8340000Y2013900D02*
X8213000D01*
Y1973700D01*
X8219400Y1960800D01*
X8227800Y1952800D01*
X8244800Y1949600D01*
X8261700Y1952800D01*
X8272300Y1962400D01*
X8278600Y1973700D01*
Y2013900D01*
G01Y1973700D02*
X8340000Y1949600D01*
G01Y1820100D02*
Y1884400D01*
X8213000D01*
Y1820100D01*
G01X8274400Y1845800D02*
Y1884400D01*
G01X8213000Y1754900D02*
X8340000D01*
Y1690600D01*
G01Y1633500D02*
X8213000Y1593300D01*
X8340000Y1553000D01*
G01X8295600Y1567500D02*
Y1619000D01*
G01X8340000Y1463800D02*
X8282900D01*
X8213000Y1495900D01*
G01Y1431600D02*
X8282900Y1463800D01*
G01X8213000Y1334300D02*
X8217200Y1347100D01*
X8227800Y1356800D01*
X8240500Y1363200D01*
X8257500Y1368000D01*
X8276500Y1369600D01*
X8295600Y1368000D01*
X8312500Y1363200D01*
X8325200Y1356800D01*
X8335800Y1347100D01*
X8340000Y1334300D01*
X8335800Y1321400D01*
X8325200Y1311700D01*
X8312500Y1305300D01*
X8295600Y1300500D01*
X8276500Y1298900D01*
X8257500Y1300500D01*
X8240500Y1305300D01*
X8227800Y1311700D01*
X8217200Y1321400D01*
X8213000Y1334300D01*
G01X8330000Y2853900D02*
X8203000D01*
Y2813700D01*
X8209400Y2800800D01*
X8217800Y2792800D01*
X8234800Y2789600D01*
X8251700Y2792800D01*
X8262300Y2802400D01*
X8268600Y2813700D01*
Y2853900D01*
G01Y2813700D02*
X8330000Y2789600D01*
G01Y2660100D02*
Y2724400D01*
X8203000D01*
Y2660100D01*
G01X8264400Y2685800D02*
Y2724400D01*
G01X8203000Y2594900D02*
X8330000D01*
Y2530600D01*
G01Y2473500D02*
X8203000Y2433300D01*
X8330000Y2393000D01*
G01X8285600Y2407500D02*
Y2459000D01*
G01X8330000Y2303800D02*
X8272900D01*
X8203000Y2335900D01*
G01Y2271600D02*
X8272900Y2303800D01*
G01X8330000Y2174300D02*
X8203000D01*
X8228400Y2193600D01*
G01X8330000D02*
Y2155000D01*
G01Y3713900D02*
X8203000D01*
Y3673700D01*
X8209400Y3660800D01*
X8217800Y3652800D01*
X8234800Y3649600D01*
X8251700Y3652800D01*
X8262300Y3662400D01*
X8268600Y3673700D01*
Y3713900D01*
G01Y3673700D02*
X8330000Y3649600D01*
G01Y3520100D02*
Y3584400D01*
X8203000D01*
Y3520100D01*
G01X8264400Y3545800D02*
Y3584400D01*
G01X8203000Y3454900D02*
X8330000D01*
Y3390600D01*
G01Y3333500D02*
X8203000Y3293300D01*
X8330000Y3253000D01*
G01X8285600Y3267500D02*
Y3319000D01*
G01X8330000Y3163800D02*
X8272900D01*
X8203000Y3195900D01*
G01Y3131600D02*
X8272900Y3163800D01*
G01X8224200Y3064800D02*
X8211500Y3055200D01*
X8205100Y3043900D01*
X8203000Y3031000D01*
X8207200Y3014900D01*
X8217800Y3003700D01*
X8230500Y3000500D01*
X8243200Y3002100D01*
X8253800Y3008500D01*
X8275000Y3040700D01*
X8289800Y3055200D01*
X8311000Y3064800D01*
X8330000Y3068000D01*
Y3000500D01*
G01Y4553900D02*
X8203000D01*
Y4513700D01*
X8209400Y4500800D01*
X8217800Y4492800D01*
X8234800Y4489600D01*
X8251700Y4492800D01*
X8262300Y4502400D01*
X8268600Y4513700D01*
Y4553900D01*
G01Y4513700D02*
X8330000Y4489600D01*
G01Y4360100D02*
Y4424400D01*
X8203000D01*
Y4360100D01*
G01X8264400Y4385800D02*
Y4424400D01*
G01X8203000Y4294900D02*
X8330000D01*
Y4230600D01*
G01Y4173500D02*
X8203000Y4133300D01*
X8330000Y4093000D01*
G01X8285600Y4107500D02*
Y4159000D01*
G01X8330000Y4003800D02*
X8272900D01*
X8203000Y4035900D01*
G01Y3971600D02*
X8272900Y4003800D01*
G01X8304600Y3909600D02*
X8319400Y3900000D01*
X8327900Y3887100D01*
X8330000Y3872600D01*
X8327900Y3859800D01*
X8317300Y3846900D01*
X8304600Y3838900D01*
X8291900Y3837300D01*
X8277100Y3840500D01*
X8266500Y3851700D01*
X8262300Y3863000D01*
Y3877500D01*
G01Y3863000D02*
X8255900Y3853300D01*
X8245300Y3845300D01*
X8232600Y3842100D01*
X8219900Y3845300D01*
X8209400Y3853300D01*
X8203000Y3867800D01*
X8205100Y3882300D01*
X8213600Y3896800D01*
G01X8507100Y5220000D02*
Y5347000D01*
X8475000D01*
X8462100Y5340600D01*
X8452400Y5332200D01*
X8444400Y5319500D01*
X8438000Y5304700D01*
X8436400Y5283500D01*
X8438000Y5262300D01*
X8444400Y5247500D01*
X8452400Y5234800D01*
X8462100Y5226300D01*
X8475000Y5220000D01*
X8507100D01*
G01X8361600Y5347000D02*
X8323000D01*
G01X8342300D02*
Y5220000D01*
G01X8361600D02*
X8323000D01*
G01X8212800D02*
Y5347000D01*
X8232100Y5321600D01*
G01Y5220000D02*
X8193500D01*
G01X8507100Y5980000D02*
Y6107000D01*
X8475000D01*
X8462100Y6100600D01*
X8452400Y6092200D01*
X8444400Y6079500D01*
X8438000Y6064700D01*
X8436400Y6043500D01*
X8438000Y6022300D01*
X8444400Y6007500D01*
X8452400Y5994800D01*
X8462100Y5986300D01*
X8475000Y5980000D01*
X8507100D01*
G01X8361600Y6107000D02*
X8323000D01*
G01X8342300D02*
Y5980000D01*
G01X8361600D02*
X8323000D01*
G01X8243300Y6085800D02*
X8233700Y6098500D01*
X8222400Y6104900D01*
X8209500Y6107000D01*
X8193400Y6102800D01*
X8182200Y6092200D01*
X8179000Y6079500D01*
X8180600Y6066800D01*
X8187000Y6056200D01*
X8219200Y6035000D01*
X8233700Y6020200D01*
X8243300Y5999000D01*
X8246500Y5980000D01*
X8179000D01*
G01X8517100Y6740000D02*
Y6867000D01*
X8485000D01*
X8472100Y6860600D01*
X8462400Y6852200D01*
X8454400Y6839500D01*
X8448000Y6824700D01*
X8446400Y6803500D01*
X8448000Y6782300D01*
X8454400Y6767500D01*
X8462400Y6754800D01*
X8472100Y6746300D01*
X8485000Y6740000D01*
X8517100D01*
G01X8371600Y6867000D02*
X8333000D01*
G01X8352300D02*
Y6740000D01*
G01X8371600D02*
X8333000D01*
G01X8258100Y6765400D02*
X8248500Y6750600D01*
X8235600Y6742100D01*
X8221100Y6740000D01*
X8208300Y6742100D01*
X8195400Y6752700D01*
X8187400Y6765400D01*
X8185800Y6778100D01*
X8189000Y6792900D01*
X8200200Y6803500D01*
X8211500Y6807700D01*
X8226000D01*
G01X8211500D02*
X8201800Y6814100D01*
X8193800Y6824700D01*
X8190600Y6837400D01*
X8193800Y6850100D01*
X8201800Y6860600D01*
X8216300Y6867000D01*
X8230800Y6864900D01*
X8245300Y6856400D01*
G01X8497100Y7500000D02*
Y7627000D01*
X8465000D01*
X8452100Y7620600D01*
X8442400Y7612200D01*
X8434400Y7599500D01*
X8428000Y7584700D01*
X8426400Y7563500D01*
X8428000Y7542300D01*
X8434400Y7527500D01*
X8442400Y7514800D01*
X8452100Y7506300D01*
X8465000Y7500000D01*
X8497100D01*
G01X8351600Y7627000D02*
X8313000D01*
G01X8332300D02*
Y7500000D01*
G01X8351600D02*
X8313000D01*
G01X8183400D02*
Y7627000D01*
X8243000Y7536000D01*
X8162500D01*
M02*
