G04 ================== begin FILE IDENTIFICATION RECORD ==================*
G04 Layout Name:  G:/Work/sh-z-004/design/pcb/io_4di_4do.brd*
G04 Film Name:    SOLDERMASK_BOTTOM*
G04 File Format:  Gerber RS274X*
G04 File Origin:  Cadence Allegro 17.2-S007*
G04 Origin Date:  Sun Nov 18 12:20:19 2018*
G04 *
G04 Layer:  VIA CLASS/SOLDERMASK_BOTTOM*
G04 Layer:  PIN/SOLDERMASK_BOTTOM*
G04 Layer:  PACKAGE GEOMETRY/SOLDERMASK_BOTTOM*
G04 Layer:  DRC ERROR CLASS/SOLDERMASK_BOTTOM*
G04 Layer:  BOARD GEOMETRY/SOLDERMASK_BOTTOM*
G04 *
G04 Offset:    (0.000 0.000)*
G04 Mirror:    No*
G04 Mode:      Positive*
G04 Rotation:  0*
G04 FullContactRelief:  No*
G04 UndefLineWidth:     0.200*
G04 ================== end FILE IDENTIFICATION RECORD ====================*
%FSLAX25Y25*MOMM*%
%IR0*IPPOS*OFA0.00000B0.00000*MIA0B0*SFA1.00000B1.00000*%
%ADD22R,1.1X.7*%
%ADD10C,1.2*%
%ADD21C,2.2*%
%ADD15C,1.5*%
%ADD12C,2.4*%
%ADD20R,1.8X.7*%
%ADD19C,1.7*%
%ADD23R,2.2X2.2*%
%ADD16R,1.5X1.5*%
%ADD13R,2.4X2.4*%
%ADD18R,1.7X1.7*%
%ADD17R,1.X1.6*%
%ADD11R,1.X1.7*%
%ADD14R,1.7X1.*%
%LPD*%
G75*
G54D10*
X255000Y1693500D03*
Y1947500D03*
Y2764500D03*
Y3018500D03*
X245000Y3643500D03*
Y3897500D03*
Y4714500D03*
Y4968500D03*
X1380000Y2038000D03*
Y2292000D03*
Y2546000D03*
Y2800000D03*
X1370000Y3988000D03*
Y4242000D03*
Y4496000D03*
Y4750000D03*
X1634000Y1912000D03*
Y2166000D03*
Y2420000D03*
Y2674000D03*
X1624000Y3862000D03*
Y4116000D03*
Y4370000D03*
Y4624000D03*
G54D11*
X380000Y5540000D03*
X570000D03*
X1980000Y2170000D03*
Y2400000D03*
Y2860000D03*
Y2630000D03*
X2010000Y3110000D03*
Y3590000D03*
X1980000Y4060000D03*
Y4290000D03*
Y4520000D03*
Y4750000D03*
X2170000Y2170000D03*
Y2400000D03*
Y2860000D03*
Y2630000D03*
X2200000Y3110000D03*
Y3590000D03*
X2170000Y4060000D03*
Y4290000D03*
Y4520000D03*
Y4750000D03*
X2250000Y8390000D03*
X2060000D03*
X2650000Y3960000D03*
X2840000D03*
X3260000Y2310000D03*
Y2580000D03*
X3450000Y2310000D03*
Y2580000D03*
X3610000Y5690000D03*
X3420000D03*
X3880000Y5680000D03*
X4060000Y3600000D03*
Y3870000D03*
X4070000Y5680000D03*
X4250000Y3600000D03*
Y3870000D03*
X5280000Y5910000D03*
X5470000D03*
X5280000Y6130000D03*
X5470000D03*
X5280000Y6350000D03*
X5470000D03*
X5280000Y6570000D03*
X5470000D03*
X6330000Y5980000D03*
X6520000D03*
X6330000Y6230000D03*
X6520000D03*
X6330000Y6490000D03*
X6520000D03*
X6330000Y6740000D03*
X6520000D03*
G54D20*
X4440000Y2020000D03*
Y2274000D03*
Y2147000D03*
Y2528000D03*
Y2401000D03*
Y2782000D03*
Y2655000D03*
Y2909000D03*
X5090000Y2020000D03*
Y2274000D03*
Y2147000D03*
Y2528000D03*
Y2401000D03*
Y2782000D03*
Y2655000D03*
Y2909000D03*
G54D12*
X400000Y6919000D03*
G54D21*
X5500000Y530000D03*
Y1000000D03*
Y1530000D03*
Y2000000D03*
Y2530000D03*
Y3000000D03*
Y3530000D03*
Y4000000D03*
X6650000Y530000D03*
Y1530000D03*
Y2530000D03*
Y3530000D03*
X7350000Y530000D03*
Y1530000D03*
Y2530000D03*
Y3530000D03*
X8000000Y2011000D03*
Y2392000D03*
Y2773000D03*
Y3154000D03*
Y3535000D03*
Y3916000D03*
Y4297000D03*
Y5281000D03*
Y5662000D03*
Y6043000D03*
Y6424000D03*
Y6805000D03*
Y7186000D03*
Y7567000D03*
G54D13*
X400000Y7300000D03*
G54D22*
X7360000Y5665000D03*
Y7185000D03*
X7600000Y5570000D03*
Y5760000D03*
Y7090000D03*
Y7280000D03*
G54D14*
X1080000Y2100000D03*
Y2290000D03*
X1100000Y4050000D03*
Y4240000D03*
X2420000Y2170000D03*
Y2360000D03*
Y2670000D03*
Y2860000D03*
Y4150000D03*
Y4340000D03*
Y4560000D03*
Y4750000D03*
X3150000Y5860000D03*
Y6050000D03*
Y6410000D03*
Y6600000D03*
X3560000Y4040000D03*
Y4230000D03*
X3690000Y2490000D03*
Y2680000D03*
X4490000Y4500000D03*
Y4690000D03*
X4710000Y4500000D03*
Y4690000D03*
X4930000Y4500000D03*
Y4690000D03*
X5150000Y4500000D03*
Y4690000D03*
G54D23*
X8000000Y1630000D03*
Y4900000D03*
G54D15*
X1554000Y8000000D03*
X1808000D03*
X2062000D03*
G54D16*
X1300000D03*
G54D17*
X2020000Y3820000D03*
X2200000D03*
X2480000Y5810000D03*
Y6040000D03*
X2660000Y5810000D03*
Y6040000D03*
G54D18*
X2770000Y8000000D03*
X5920000Y7850000D03*
G54D19*
X3024000Y8000000D03*
X3278000D03*
X3532000D03*
X3786000D03*
X4040000D03*
X5920000Y7342000D03*
Y7596000D03*
X6174000Y7342000D03*
Y7596000D03*
Y7850000D03*
M02*
